<ttFont>
    <TTGlyph name=".notdef" xMin="76" yMin="0" xMax="628" yMax="660">
      <contour>
        <pt x="76" y="0" on="1"/>
        <pt x="76" y="660" on="1"/>
        <pt x="628" y="660" on="1"/>
        <pt x="628" y="0" on="1"/>
      </contour>
      <contour>
        <pt x="288" y="104" on="1"/>
        <pt x="416" y="104" on="1"/>
        <pt x="390" y="160" on="1"/>
        <pt x="354" y="256" on="1"/>
        <pt x="350" y="256" on="1"/>
        <pt x="314" y="160" on="1"/>
      </contour>
      <contour>
        <pt x="350" y="424" on="1"/>
        <pt x="354" y="424" on="1"/>
        <pt x="394" y="520" on="1"/>
        <pt x="412" y="556" on="1"/>
        <pt x="292" y="556" on="1"/>
        <pt x="310" y="520" on="1"/>
      </contour>
      <contour>
        <pt x="188" y="172" on="1"/>
        <pt x="270" y="340" on="1"/>
        <pt x="188" y="508" on="1"/>
      </contour>
      <contour>
        <pt x="516" y="172" on="1"/>
        <pt x="516" y="508" on="1"/>
        <pt x="434" y="340" on="1"/>
      </contour>
    </TTGlyph>
    <TTGlyph name="A" xMin="-10" yMin="0" xMax="594" yMax="650">
      <contour>
        <pt x="-10" y="0" on="1"/>
        <pt x="188" y="650" on="1"/>
        <pt x="396" y="650" on="1"/>
        <pt x="594" y="0" on="1"/>
        <pt x="412" y="0" on="1"/>
        <pt x="338" y="316" on="1"/>
        <pt x="329" y="350" on="0"/>
        <pt x="297" y="493" on="0"/>
        <pt x="290" y="522" on="1"/>
        <pt x="286" y="522" on="1"/>
        <pt x="253" y="366" on="0"/>
        <pt x="240" y="316" on="1"/>
        <pt x="166" y="0" on="1"/>
      </contour>
      <contour>
        <pt x="132" y="138" on="1"/>
        <pt x="132" y="271" on="1"/>
        <pt x="450" y="271" on="1"/>
        <pt x="450" y="138" on="1"/>
      </contour>
    </TTGlyph>
    <TTGlyph name="AE" xMin="-22" yMin="0" xMax="800" yMax="650">
      <contour>
        <pt x="-22" y="0" on="1"/>
        <pt x="274" y="650" on="1"/>
        <pt x="790" y="650" on="1"/>
        <pt x="790" y="506" on="1"/>
        <pt x="552" y="506" on="1"/>
        <pt x="552" y="404" on="1"/>
        <pt x="754" y="404" on="1"/>
        <pt x="754" y="260" on="1"/>
        <pt x="552" y="260" on="1"/>
        <pt x="552" y="144" on="1"/>
        <pt x="800" y="144" on="1"/>
        <pt x="800" y="0" on="1"/>
        <pt x="380" y="0" on="1"/>
        <pt x="380" y="522" on="1"/>
        <pt x="376" y="522" on="1"/>
        <pt x="316" y="366" on="0"/>
        <pt x="308" y="348" on="1"/>
        <pt x="158" y="0" on="1"/>
      </contour>
      <contour>
        <pt x="130" y="132" on="1"/>
        <pt x="130" y="265" on="1"/>
        <pt x="468" y="265" on="1"/>
        <pt x="468" y="132" on="1"/>
      </contour>
    </TTGlyph>
    <TTGlyph name="Aacute" xMin="-10" yMin="0" xMax="594" yMax="904">
      <contour>
        <pt x="-10" y="0" on="1"/>
        <pt x="188" y="650" on="1"/>
        <pt x="396" y="650" on="1"/>
        <pt x="594" y="0" on="1"/>
        <pt x="412" y="0" on="1"/>
        <pt x="338" y="316" on="1"/>
        <pt x="329" y="350" on="0"/>
        <pt x="297" y="493" on="0"/>
        <pt x="290" y="522" on="1"/>
        <pt x="286" y="522" on="1"/>
        <pt x="253" y="366" on="0"/>
        <pt x="240" y="316" on="1"/>
        <pt x="166" y="0" on="1"/>
      </contour>
      <contour>
        <pt x="132" y="138" on="1"/>
        <pt x="132" y="271" on="1"/>
        <pt x="450" y="271" on="1"/>
        <pt x="450" y="138" on="1"/>
      </contour>
      <contour>
        <pt x="280" y="674" on="1"/>
        <pt x="204" y="760" on="1"/>
        <pt x="386" y="904" on="1"/>
        <pt x="476" y="794" on="1"/>
      </contour>
    </TTGlyph>
    <TTGlyph name="Acircumflex" xMin="-10" yMin="0" xMax="594" yMax="834">
      <contour>
        <pt x="-10" y="0" on="1"/>
        <pt x="188" y="650" on="1"/>
        <pt x="396" y="650" on="1"/>
        <pt x="594" y="0" on="1"/>
        <pt x="412" y="0" on="1"/>
        <pt x="338" y="316" on="1"/>
        <pt x="329" y="350" on="0"/>
        <pt x="297" y="493" on="0"/>
        <pt x="290" y="522" on="1"/>
        <pt x="286" y="522" on="1"/>
        <pt x="253" y="366" on="0"/>
        <pt x="240" y="316" on="1"/>
        <pt x="166" y="0" on="1"/>
      </contour>
      <contour>
        <pt x="132" y="138" on="1"/>
        <pt x="132" y="271" on="1"/>
        <pt x="450" y="271" on="1"/>
        <pt x="450" y="138" on="1"/>
      </contour>
      <contour>
        <pt x="110" y="724" on="1"/>
        <pt x="194" y="834" on="1"/>
        <pt x="382" y="834" on="1"/>
        <pt x="466" y="724" on="1"/>
        <pt x="392" y="680" on="1"/>
        <pt x="290" y="760" on="1"/>
        <pt x="286" y="760" on="1"/>
        <pt x="184" y="680" on="1"/>
      </contour>
    </TTGlyph>
    <TTGlyph name="Adieresis" xMin="-10" yMin="0" xMax="594" yMax="850">
      <contour>
        <pt x="-10" y="0" on="1"/>
        <pt x="188" y="650" on="1"/>
        <pt x="396" y="650" on="1"/>
        <pt x="594" y="0" on="1"/>
        <pt x="412" y="0" on="1"/>
        <pt x="338" y="316" on="1"/>
        <pt x="329" y="350" on="0"/>
        <pt x="297" y="493" on="0"/>
        <pt x="290" y="522" on="1"/>
        <pt x="286" y="522" on="1"/>
        <pt x="253" y="366" on="0"/>
        <pt x="240" y="316" on="1"/>
        <pt x="166" y="0" on="1"/>
      </contour>
      <contour>
        <pt x="132" y="138" on="1"/>
        <pt x="132" y="271" on="1"/>
        <pt x="450" y="271" on="1"/>
        <pt x="450" y="138" on="1"/>
      </contour>
      <contour>
        <pt x="208" y="694" on="0"/>
        <pt x="140" y="694" on="0"/>
        <pt x="96" y="739" on="0"/>
        <pt x="96" y="805" on="0"/>
        <pt x="140" y="850" on="0"/>
        <pt x="208" y="850" on="0"/>
        <pt x="252" y="805" on="0"/>
        <pt x="252" y="739" on="0"/>
      </contour>
      <contour>
        <pt x="436" y="694" on="0"/>
        <pt x="368" y="694" on="0"/>
        <pt x="324" y="739" on="0"/>
        <pt x="324" y="805" on="0"/>
        <pt x="368" y="850" on="0"/>
        <pt x="436" y="850" on="0"/>
        <pt x="480" y="805" on="0"/>
        <pt x="480" y="739" on="0"/>
      </contour>
    </TTGlyph>
    <TTGlyph name="Agrave" xMin="-10" yMin="0" xMax="594" yMax="904">
      <contour>
        <pt x="-10" y="0" on="1"/>
        <pt x="188" y="650" on="1"/>
        <pt x="396" y="650" on="1"/>
        <pt x="594" y="0" on="1"/>
        <pt x="412" y="0" on="1"/>
        <pt x="338" y="316" on="1"/>
        <pt x="329" y="350" on="0"/>
        <pt x="297" y="493" on="0"/>
        <pt x="290" y="522" on="1"/>
        <pt x="286" y="522" on="1"/>
        <pt x="253" y="366" on="0"/>
        <pt x="240" y="316" on="1"/>
        <pt x="166" y="0" on="1"/>
      </contour>
      <contour>
        <pt x="132" y="138" on="1"/>
        <pt x="132" y="271" on="1"/>
        <pt x="450" y="271" on="1"/>
        <pt x="450" y="138" on="1"/>
      </contour>
      <contour>
        <pt x="296" y="674" on="1"/>
        <pt x="100" y="794" on="1"/>
        <pt x="190" y="904" on="1"/>
        <pt x="372" y="760" on="1"/>
      </contour>
    </TTGlyph>
    <TTGlyph name="Aring" xMin="-10" yMin="0" xMax="594" yMax="900">
      <contour>
        <pt x="-10" y="0" on="1"/>
        <pt x="188" y="650" on="1"/>
        <pt x="396" y="650" on="1"/>
        <pt x="594" y="0" on="1"/>
        <pt x="412" y="0" on="1"/>
        <pt x="338" y="316" on="1"/>
        <pt x="329" y="350" on="0"/>
        <pt x="297" y="493" on="0"/>
        <pt x="290" y="522" on="1"/>
        <pt x="286" y="522" on="1"/>
        <pt x="253" y="366" on="0"/>
        <pt x="240" y="316" on="1"/>
        <pt x="166" y="0" on="1"/>
      </contour>
      <contour>
        <pt x="132" y="138" on="1"/>
        <pt x="132" y="271" on="1"/>
        <pt x="450" y="271" on="1"/>
        <pt x="450" y="138" on="1"/>
      </contour>
      <contour>
        <pt x="342" y="696" on="0"/>
        <pt x="234" y="696" on="0"/>
        <pt x="168" y="752" on="0"/>
        <pt x="168" y="844" on="0"/>
        <pt x="234" y="900" on="0"/>
        <pt x="342" y="900" on="0"/>
        <pt x="408" y="844" on="0"/>
        <pt x="408" y="752" on="0"/>
      </contour>
      <contour>
        <pt x="272" y="758" on="0"/>
        <pt x="304" y="758" on="0"/>
        <pt x="326" y="780" on="0"/>
        <pt x="326" y="816" on="0"/>
        <pt x="304" y="838" on="0"/>
        <pt x="272" y="838" on="0"/>
        <pt x="250" y="816" on="0"/>
        <pt x="250" y="780" on="0"/>
      </contour>
    </TTGlyph>
    <TTGlyph name="Atilde" xMin="-10" yMin="0" xMax="594" yMax="856">
      <contour>
        <pt x="-10" y="0" on="1"/>
        <pt x="188" y="650" on="1"/>
        <pt x="396" y="650" on="1"/>
        <pt x="594" y="0" on="1"/>
        <pt x="412" y="0" on="1"/>
        <pt x="338" y="316" on="1"/>
        <pt x="329" y="350" on="0"/>
        <pt x="297" y="493" on="0"/>
        <pt x="290" y="522" on="1"/>
        <pt x="286" y="522" on="1"/>
        <pt x="253" y="366" on="0"/>
        <pt x="240" y="316" on="1"/>
        <pt x="166" y="0" on="1"/>
      </contour>
      <contour>
        <pt x="132" y="138" on="1"/>
        <pt x="132" y="271" on="1"/>
        <pt x="450" y="271" on="1"/>
        <pt x="450" y="138" on="1"/>
      </contour>
      <contour>
        <pt x="358" y="686" on="1"/>
        <pt x="318" y="686" on="0"/>
        <pt x="233" y="738" on="0"/>
        <pt x="224" y="738" on="1"/>
        <pt x="197" y="738" on="0"/>
        <pt x="192" y="696" on="1"/>
        <pt x="82" y="704" on="1"/>
        <pt x="86" y="782" on="0"/>
        <pt x="159" y="856" on="0"/>
        <pt x="218" y="856" on="1"/>
        <pt x="258" y="856" on="0"/>
        <pt x="343" y="804" on="0"/>
        <pt x="352" y="804" on="1"/>
        <pt x="379" y="804" on="0"/>
        <pt x="384" y="846" on="1"/>
        <pt x="494" y="838" on="1"/>
        <pt x="490" y="760" on="0"/>
        <pt x="417" y="686" on="0"/>
      </contour>
    </TTGlyph>
    <TTGlyph name="B" xMin="72" yMin="0" xMax="582" yMax="650">
      <contour>
        <pt x="72" y="0" on="1"/>
        <pt x="72" y="650" on="1"/>
        <pt x="306" y="650" on="1"/>
        <pt x="552" y="650" on="0"/>
        <pt x="552" y="488" on="1"/>
        <pt x="552" y="444" on="0"/>
        <pt x="506" y="363" on="0"/>
        <pt x="470" y="348" on="1"/>
        <pt x="470" y="344" on="1"/>
        <pt x="520" y="329" on="0"/>
        <pt x="582" y="253" on="0"/>
        <pt x="582" y="192" on="1"/>
        <pt x="582" y="96" on="0"/>
        <pt x="438" y="0" on="0"/>
        <pt x="326" y="0" on="1"/>
      </contour>
      <contour>
        <pt x="244" y="396" on="1"/>
        <pt x="302" y="396" on="1"/>
        <pt x="384" y="396" on="0"/>
        <pt x="384" y="462" on="1"/>
        <pt x="384" y="492" on="0"/>
        <pt x="344" y="518" on="0"/>
        <pt x="302" y="518" on="1"/>
        <pt x="244" y="518" on="1"/>
      </contour>
      <contour>
        <pt x="244" y="132" on="1"/>
        <pt x="314" y="132" on="1"/>
        <pt x="414" y="132" on="0"/>
        <pt x="414" y="204" on="1"/>
        <pt x="414" y="239" on="0"/>
        <pt x="366" y="270" on="0"/>
        <pt x="314" y="270" on="1"/>
        <pt x="244" y="270" on="1"/>
      </contour>
    </TTGlyph>
    <TTGlyph name="C" xMin="44" yMin="-12" xMax="568" yMax="662">
      <contour>
        <pt x="354" y="-12" on="1"/>
        <pt x="222" y="-12" on="0"/>
        <pt x="44" y="161" on="0"/>
        <pt x="44" y="320" on="1"/>
        <pt x="44" y="477" on="0"/>
        <pt x="228" y="662" on="0"/>
        <pt x="358" y="662" on="1"/>
        <pt x="474" y="662" on="0"/>
        <pt x="560" y="576" on="1"/>
        <pt x="470" y="466" on="1"/>
        <pt x="415" y="514" on="0"/>
        <pt x="362" y="514" on="1"/>
        <pt x="303" y="514" on="0"/>
        <pt x="220" y="412" on="0"/>
        <pt x="220" y="326" on="1"/>
        <pt x="220" y="236" on="0"/>
        <pt x="296" y="136" on="0"/>
        <pt x="360" y="136" on="1"/>
        <pt x="426" y="136" on="0"/>
        <pt x="478" y="192" on="1"/>
        <pt x="568" y="84" on="1"/>
        <pt x="485" y="-12" on="0"/>
      </contour>
    </TTGlyph>
    <TTGlyph name="Ccedilla" xMin="44" yMin="-244" xMax="568" yMax="662">
      <contour>
        <pt x="354" y="-12" on="1"/>
        <pt x="222" y="-12" on="0"/>
        <pt x="44" y="161" on="0"/>
        <pt x="44" y="320" on="1"/>
        <pt x="44" y="477" on="0"/>
        <pt x="228" y="662" on="0"/>
        <pt x="358" y="662" on="1"/>
        <pt x="474" y="662" on="0"/>
        <pt x="560" y="576" on="1"/>
        <pt x="470" y="466" on="1"/>
        <pt x="415" y="514" on="0"/>
        <pt x="362" y="514" on="1"/>
        <pt x="303" y="514" on="0"/>
        <pt x="220" y="412" on="0"/>
        <pt x="220" y="326" on="1"/>
        <pt x="220" y="236" on="0"/>
        <pt x="296" y="136" on="0"/>
        <pt x="360" y="136" on="1"/>
        <pt x="426" y="136" on="0"/>
        <pt x="478" y="192" on="1"/>
        <pt x="568" y="84" on="1"/>
        <pt x="485" y="-12" on="0"/>
      </contour>
      <contour>
        <pt x="244" y="-244" on="1"/>
        <pt x="232" y="-178" on="1"/>
        <pt x="289" y="-175" on="0"/>
        <pt x="332" y="-157" on="0"/>
        <pt x="332" y="-136" on="1"/>
        <pt x="332" y="-106" on="0"/>
        <pt x="256" y="-96" on="1"/>
        <pt x="306" y="4" on="1"/>
        <pt x="404" y="4" on="1"/>
        <pt x="376" y="-60" on="1"/>
        <pt x="454" y="-78" on="0"/>
        <pt x="454" y="-136" on="1"/>
        <pt x="454" y="-238" on="0"/>
      </contour>
    </TTGlyph>
    <TTGlyph name="D" xMin="72" yMin="0" xMax="598" yMax="650">
      <contour>
        <pt x="72" y="0" on="1"/>
        <pt x="72" y="650" on="1"/>
        <pt x="264" y="650" on="1"/>
        <pt x="420" y="650" on="0"/>
        <pt x="598" y="494" on="0"/>
        <pt x="598" y="162" on="0"/>
        <pt x="423" y="0" on="0"/>
        <pt x="274" y="0" on="1"/>
      </contour>
      <contour>
        <pt x="244" y="138" on="1"/>
        <pt x="254" y="138" on="1"/>
        <pt x="333" y="138" on="0"/>
        <pt x="422" y="222" on="0"/>
        <pt x="422" y="328" on="1"/>
        <pt x="422" y="433" on="0"/>
        <pt x="334" y="512" on="0"/>
        <pt x="254" y="512" on="1"/>
        <pt x="244" y="512" on="1"/>
      </contour>
    </TTGlyph>
    <TTGlyph name="E" xMin="72" yMin="0" xMax="502" yMax="650">
      <contour>
        <pt x="72" y="0" on="1"/>
        <pt x="72" y="650" on="1"/>
        <pt x="492" y="650" on="1"/>
        <pt x="492" y="506" on="1"/>
        <pt x="244" y="506" on="1"/>
        <pt x="244" y="404" on="1"/>
        <pt x="456" y="404" on="1"/>
        <pt x="456" y="260" on="1"/>
        <pt x="244" y="260" on="1"/>
        <pt x="244" y="144" on="1"/>
        <pt x="502" y="144" on="1"/>
        <pt x="502" y="0" on="1"/>
      </contour>
    </TTGlyph>
    <TTGlyph name="Eacute" xMin="72" yMin="0" xMax="502" yMax="904">
      <contour>
        <pt x="72" y="0" on="1"/>
        <pt x="72" y="650" on="1"/>
        <pt x="492" y="650" on="1"/>
        <pt x="492" y="506" on="1"/>
        <pt x="244" y="506" on="1"/>
        <pt x="244" y="404" on="1"/>
        <pt x="456" y="404" on="1"/>
        <pt x="456" y="260" on="1"/>
        <pt x="244" y="260" on="1"/>
        <pt x="244" y="144" on="1"/>
        <pt x="502" y="144" on="1"/>
        <pt x="502" y="0" on="1"/>
      </contour>
      <contour>
        <pt x="282" y="674" on="1"/>
        <pt x="206" y="760" on="1"/>
        <pt x="388" y="904" on="1"/>
        <pt x="478" y="794" on="1"/>
      </contour>
    </TTGlyph>
    <TTGlyph name="Ecircumflex" xMin="72" yMin="0" xMax="502" yMax="834">
      <contour>
        <pt x="72" y="0" on="1"/>
        <pt x="72" y="650" on="1"/>
        <pt x="492" y="650" on="1"/>
        <pt x="492" y="506" on="1"/>
        <pt x="244" y="506" on="1"/>
        <pt x="244" y="404" on="1"/>
        <pt x="456" y="404" on="1"/>
        <pt x="456" y="260" on="1"/>
        <pt x="244" y="260" on="1"/>
        <pt x="244" y="144" on="1"/>
        <pt x="502" y="144" on="1"/>
        <pt x="502" y="0" on="1"/>
      </contour>
      <contour>
        <pt x="112" y="724" on="1"/>
        <pt x="196" y="834" on="1"/>
        <pt x="384" y="834" on="1"/>
        <pt x="468" y="724" on="1"/>
        <pt x="394" y="680" on="1"/>
        <pt x="292" y="760" on="1"/>
        <pt x="288" y="760" on="1"/>
        <pt x="186" y="680" on="1"/>
      </contour>
    </TTGlyph>
    <TTGlyph name="Edieresis" xMin="72" yMin="0" xMax="502" yMax="850">
      <contour>
        <pt x="72" y="0" on="1"/>
        <pt x="72" y="650" on="1"/>
        <pt x="492" y="650" on="1"/>
        <pt x="492" y="506" on="1"/>
        <pt x="244" y="506" on="1"/>
        <pt x="244" y="404" on="1"/>
        <pt x="456" y="404" on="1"/>
        <pt x="456" y="260" on="1"/>
        <pt x="244" y="260" on="1"/>
        <pt x="244" y="144" on="1"/>
        <pt x="502" y="144" on="1"/>
        <pt x="502" y="0" on="1"/>
      </contour>
      <contour>
        <pt x="210" y="694" on="0"/>
        <pt x="142" y="694" on="0"/>
        <pt x="98" y="739" on="0"/>
        <pt x="98" y="805" on="0"/>
        <pt x="142" y="850" on="0"/>
        <pt x="210" y="850" on="0"/>
        <pt x="254" y="805" on="0"/>
        <pt x="254" y="739" on="0"/>
      </contour>
      <contour>
        <pt x="438" y="694" on="0"/>
        <pt x="370" y="694" on="0"/>
        <pt x="326" y="739" on="0"/>
        <pt x="326" y="805" on="0"/>
        <pt x="370" y="850" on="0"/>
        <pt x="438" y="850" on="0"/>
        <pt x="482" y="805" on="0"/>
        <pt x="482" y="739" on="0"/>
      </contour>
    </TTGlyph>
    <TTGlyph name="Egrave" xMin="72" yMin="0" xMax="502" yMax="904">
      <contour>
        <pt x="72" y="0" on="1"/>
        <pt x="72" y="650" on="1"/>
        <pt x="492" y="650" on="1"/>
        <pt x="492" y="506" on="1"/>
        <pt x="244" y="506" on="1"/>
        <pt x="244" y="404" on="1"/>
        <pt x="456" y="404" on="1"/>
        <pt x="456" y="260" on="1"/>
        <pt x="244" y="260" on="1"/>
        <pt x="244" y="144" on="1"/>
        <pt x="502" y="144" on="1"/>
        <pt x="502" y="0" on="1"/>
      </contour>
      <contour>
        <pt x="298" y="674" on="1"/>
        <pt x="102" y="794" on="1"/>
        <pt x="192" y="904" on="1"/>
        <pt x="374" y="760" on="1"/>
      </contour>
    </TTGlyph>
    <TTGlyph name="Eth" xMin="24" yMin="0" xMax="624" yMax="650">
      <contour>
        <pt x="24" y="294" on="1"/>
        <pt x="24" y="368" on="1"/>
        <pt x="100" y="374" on="1"/>
        <pt x="386" y="374" on="1"/>
        <pt x="386" y="294" on="1"/>
      </contour>
      <contour>
        <pt x="98" y="0" on="1"/>
        <pt x="98" y="650" on="1"/>
        <pt x="290" y="650" on="1"/>
        <pt x="446" y="650" on="0"/>
        <pt x="624" y="494" on="0"/>
        <pt x="624" y="162" on="0"/>
        <pt x="449" y="0" on="0"/>
        <pt x="300" y="0" on="1"/>
      </contour>
      <contour>
        <pt x="270" y="138" on="1"/>
        <pt x="280" y="138" on="1"/>
        <pt x="359" y="138" on="0"/>
        <pt x="448" y="222" on="0"/>
        <pt x="448" y="328" on="1"/>
        <pt x="448" y="433" on="0"/>
        <pt x="360" y="512" on="0"/>
        <pt x="280" y="512" on="1"/>
        <pt x="270" y="512" on="1"/>
      </contour>
    </TTGlyph>
    <TTGlyph name="Euro" xMin="20" yMin="-12" xMax="530" yMax="646">
      <contour>
        <pt x="344" y="-12" on="1"/>
        <pt x="224" y="-12" on="0"/>
        <pt x="72" y="156" on="0"/>
        <pt x="72" y="468" on="0"/>
        <pt x="228" y="646" on="0"/>
        <pt x="354" y="646" on="1"/>
        <pt x="453" y="646" on="0"/>
        <pt x="522" y="568" on="1"/>
        <pt x="428" y="476" on="1"/>
        <pt x="387" y="514" on="0"/>
        <pt x="348" y="514" on="1"/>
        <pt x="297" y="514" on="0"/>
        <pt x="244" y="412" on="0"/>
        <pt x="244" y="318" on="1"/>
        <pt x="244" y="222" on="0"/>
        <pt x="301" y="120" on="0"/>
        <pt x="354" y="120" on="1"/>
        <pt x="401" y="120" on="0"/>
        <pt x="436" y="168" on="1"/>
        <pt x="530" y="80" on="1"/>
        <pt x="453" y="-12" on="0"/>
      </contour>
      <contour>
        <pt x="20" y="208" on="1"/>
        <pt x="20" y="286" on="1"/>
        <pt x="96" y="292" on="1"/>
        <pt x="412" y="292" on="1"/>
        <pt x="412" y="208" on="1"/>
      </contour>
      <contour>
        <pt x="20" y="336" on="1"/>
        <pt x="20" y="414" on="1"/>
        <pt x="96" y="420" on="1"/>
        <pt x="452" y="420" on="1"/>
        <pt x="452" y="336" on="1"/>
      </contour>
    </TTGlyph>
    <TTGlyph name="F" xMin="72" yMin="0" xMax="496" yMax="650">
      <contour>
        <pt x="72" y="0" on="1"/>
        <pt x="72" y="650" on="1"/>
        <pt x="496" y="650" on="1"/>
        <pt x="496" y="506" on="1"/>
        <pt x="244" y="506" on="1"/>
        <pt x="244" y="382" on="1"/>
        <pt x="460" y="382" on="1"/>
        <pt x="460" y="238" on="1"/>
        <pt x="244" y="238" on="1"/>
        <pt x="244" y="0" on="1"/>
      </contour>
    </TTGlyph>
    <TTGlyph name="G" xMin="44" yMin="-12" xMax="592" yMax="662">
      <contour>
        <pt x="372" y="-12" on="1"/>
        <pt x="228" y="-12" on="0"/>
        <pt x="44" y="160" on="0"/>
        <pt x="44" y="320" on="1"/>
        <pt x="44" y="478" on="0"/>
        <pt x="232" y="662" on="0"/>
        <pt x="368" y="662" on="1"/>
        <pt x="494" y="662" on="0"/>
        <pt x="580" y="576" on="1"/>
        <pt x="490" y="466" on="1"/>
        <pt x="435" y="514" on="0"/>
        <pt x="374" y="514" on="1"/>
        <pt x="306" y="514" on="0"/>
        <pt x="220" y="413" on="0"/>
        <pt x="220" y="326" on="1"/>
        <pt x="220" y="136" on="0"/>
        <pt x="390" y="136" on="1"/>
        <pt x="422" y="136" on="0"/>
        <pt x="440" y="148" on="1"/>
        <pt x="440" y="238" on="1"/>
        <pt x="344" y="238" on="1"/>
        <pt x="344" y="378" on="1"/>
        <pt x="592" y="378" on="1"/>
        <pt x="592" y="68" on="1"/>
        <pt x="556" y="33" on="0"/>
        <pt x="438" y="-12" on="0"/>
      </contour>
    </TTGlyph>
    <TTGlyph name="H" xMin="72" yMin="0" xMax="610" yMax="650">
      <contour>
        <pt x="72" y="0" on="1"/>
        <pt x="72" y="650" on="1"/>
        <pt x="244" y="650" on="1"/>
        <pt x="244" y="408" on="1"/>
        <pt x="438" y="408" on="1"/>
        <pt x="438" y="650" on="1"/>
        <pt x="610" y="650" on="1"/>
        <pt x="610" y="0" on="1"/>
        <pt x="438" y="0" on="1"/>
        <pt x="438" y="258" on="1"/>
        <pt x="244" y="258" on="1"/>
        <pt x="244" y="0" on="1"/>
      </contour>
    </TTGlyph>
    <TTGlyph name="I" xMin="72" yMin="0" xMax="244" yMax="650">
      <contour>
        <pt x="72" y="0" on="1"/>
        <pt x="72" y="650" on="1"/>
        <pt x="244" y="650" on="1"/>
        <pt x="244" y="0" on="1"/>
      </contour>
    </TTGlyph>
    <TTGlyph name="Iacute" xMin="72" yMin="0" xMax="346" yMax="904">
      <contour>
        <pt x="72" y="0" on="1"/>
        <pt x="72" y="650" on="1"/>
        <pt x="244" y="650" on="1"/>
        <pt x="244" y="0" on="1"/>
      </contour>
      <contour>
        <pt x="150" y="674" on="1"/>
        <pt x="74" y="760" on="1"/>
        <pt x="256" y="904" on="1"/>
        <pt x="346" y="794" on="1"/>
      </contour>
    </TTGlyph>
    <TTGlyph name="Icircumflex" xMin="-20" yMin="0" xMax="336" yMax="834">
      <contour>
        <pt x="72" y="0" on="1"/>
        <pt x="72" y="650" on="1"/>
        <pt x="244" y="650" on="1"/>
        <pt x="244" y="0" on="1"/>
      </contour>
      <contour>
        <pt x="-20" y="724" on="1"/>
        <pt x="64" y="834" on="1"/>
        <pt x="252" y="834" on="1"/>
        <pt x="336" y="724" on="1"/>
        <pt x="262" y="680" on="1"/>
        <pt x="160" y="760" on="1"/>
        <pt x="156" y="760" on="1"/>
        <pt x="54" y="680" on="1"/>
      </contour>
    </TTGlyph>
    <TTGlyph name="Idieresis" xMin="-34" yMin="0" xMax="350" yMax="850">
      <contour>
        <pt x="72" y="0" on="1"/>
        <pt x="72" y="650" on="1"/>
        <pt x="244" y="650" on="1"/>
        <pt x="244" y="0" on="1"/>
      </contour>
      <contour>
        <pt x="78" y="694" on="0"/>
        <pt x="10" y="694" on="0"/>
        <pt x="-34" y="739" on="0"/>
        <pt x="-34" y="805" on="0"/>
        <pt x="10" y="850" on="0"/>
        <pt x="78" y="850" on="0"/>
        <pt x="122" y="805" on="0"/>
        <pt x="122" y="739" on="0"/>
      </contour>
      <contour>
        <pt x="306" y="694" on="0"/>
        <pt x="238" y="694" on="0"/>
        <pt x="194" y="739" on="0"/>
        <pt x="194" y="805" on="0"/>
        <pt x="238" y="850" on="0"/>
        <pt x="306" y="850" on="0"/>
        <pt x="350" y="805" on="0"/>
        <pt x="350" y="739" on="0"/>
      </contour>
    </TTGlyph>
    <TTGlyph name="Igrave" xMin="-30" yMin="0" xMax="244" yMax="904">
      <contour>
        <pt x="72" y="0" on="1"/>
        <pt x="72" y="650" on="1"/>
        <pt x="244" y="650" on="1"/>
        <pt x="244" y="0" on="1"/>
      </contour>
      <contour>
        <pt x="166" y="674" on="1"/>
        <pt x="-30" y="794" on="1"/>
        <pt x="60" y="904" on="1"/>
        <pt x="242" y="760" on="1"/>
      </contour>
    </TTGlyph>
    <TTGlyph name="J" xMin="10" yMin="-12" xMax="452" yMax="650">
      <contour>
        <pt x="232" y="-12" on="1"/>
        <pt x="81" y="-12" on="0"/>
        <pt x="10" y="111" on="1"/>
        <pt x="126" y="198" on="1"/>
        <pt x="158" y="136" on="0"/>
        <pt x="208" y="136" on="1"/>
        <pt x="245" y="136" on="0"/>
        <pt x="280" y="181" on="0"/>
        <pt x="280" y="240" on="1"/>
        <pt x="280" y="650" on="1"/>
        <pt x="452" y="650" on="1"/>
        <pt x="452" y="226" on="1"/>
        <pt x="452" y="122" on="0"/>
        <pt x="339" y="-12" on="0"/>
      </contour>
    </TTGlyph>
    <TTGlyph name="K" xMin="72" yMin="0" xMax="638" yMax="650">
      <contour>
        <pt x="72" y="0" on="1"/>
        <pt x="72" y="650" on="1"/>
        <pt x="244" y="650" on="1"/>
        <pt x="244" y="408" on="1"/>
        <pt x="248" y="408" on="1"/>
        <pt x="412" y="650" on="1"/>
        <pt x="600" y="650" on="1"/>
        <pt x="406" y="386" on="1"/>
        <pt x="638" y="0" on="1"/>
        <pt x="450" y="0" on="1"/>
        <pt x="306" y="250" on="1"/>
        <pt x="244" y="162" on="1"/>
        <pt x="244" y="0" on="1"/>
      </contour>
    </TTGlyph>
    <TTGlyph name="L" xMin="72" yMin="0" xMax="490" yMax="650">
      <contour>
        <pt x="72" y="0" on="1"/>
        <pt x="72" y="650" on="1"/>
        <pt x="244" y="650" on="1"/>
        <pt x="244" y="144" on="1"/>
        <pt x="490" y="144" on="1"/>
        <pt x="490" y="0" on="1"/>
      </contour>
    </TTGlyph>
    <TTGlyph name="M" xMin="72" yMin="0" xMax="704" yMax="650">
      <contour>
        <pt x="72" y="0" on="1"/>
        <pt x="72" y="650" on="1"/>
        <pt x="256" y="650" on="1"/>
        <pt x="354" y="384" on="1"/>
        <pt x="360" y="365" on="0"/>
        <pt x="383" y="287" on="0"/>
        <pt x="388" y="270" on="1"/>
        <pt x="392" y="270" on="1"/>
        <pt x="397" y="287" on="0"/>
        <pt x="420" y="365" on="0"/>
        <pt x="426" y="384" on="1"/>
        <pt x="520" y="650" on="1"/>
        <pt x="704" y="650" on="1"/>
        <pt x="704" y="0" on="1"/>
        <pt x="548" y="0" on="1"/>
        <pt x="548" y="192" on="1"/>
        <pt x="548" y="245" on="0"/>
        <pt x="570" y="424" on="1"/>
        <pt x="566" y="424" on="1"/>
        <pt x="512" y="268" on="1"/>
        <pt x="432" y="53" on="1"/>
        <pt x="340" y="53" on="1"/>
        <pt x="260" y="268" on="1"/>
        <pt x="208" y="424" on="1"/>
        <pt x="204" y="424" on="1"/>
        <pt x="226" y="245" on="0"/>
        <pt x="226" y="192" on="1"/>
        <pt x="226" y="0" on="1"/>
      </contour>
    </TTGlyph>
    <TTGlyph name="N" xMin="72" yMin="0" xMax="600" yMax="650">
      <contour>
        <pt x="72" y="0" on="1"/>
        <pt x="72" y="650" on="1"/>
        <pt x="248" y="650" on="1"/>
        <pt x="392" y="360" on="1"/>
        <pt x="454" y="214" on="1"/>
        <pt x="458" y="214" on="1"/>
        <pt x="436" y="406" on="0"/>
        <pt x="436" y="462" on="1"/>
        <pt x="436" y="650" on="1"/>
        <pt x="600" y="650" on="1"/>
        <pt x="600" y="0" on="1"/>
        <pt x="424" y="0" on="1"/>
        <pt x="280" y="291" on="1"/>
        <pt x="218" y="436" on="1"/>
        <pt x="214" y="436" on="1"/>
        <pt x="216" y="420" on="0"/>
        <pt x="225" y="338" on="0"/>
        <pt x="231" y="287" on="0"/>
        <pt x="236" y="216" on="0"/>
        <pt x="236" y="188" on="1"/>
        <pt x="236" y="0" on="1"/>
      </contour>
    </TTGlyph>
    <TTGlyph name="Ntilde" xMin="72" yMin="0" xMax="600" yMax="856">
      <contour>
        <pt x="72" y="0" on="1"/>
        <pt x="72" y="650" on="1"/>
        <pt x="248" y="650" on="1"/>
        <pt x="392" y="360" on="1"/>
        <pt x="454" y="214" on="1"/>
        <pt x="458" y="214" on="1"/>
        <pt x="436" y="406" on="0"/>
        <pt x="436" y="462" on="1"/>
        <pt x="436" y="650" on="1"/>
        <pt x="600" y="650" on="1"/>
        <pt x="600" y="0" on="1"/>
        <pt x="424" y="0" on="1"/>
        <pt x="280" y="291" on="1"/>
        <pt x="218" y="436" on="1"/>
        <pt x="214" y="436" on="1"/>
        <pt x="216" y="420" on="0"/>
        <pt x="225" y="338" on="0"/>
        <pt x="231" y="287" on="0"/>
        <pt x="236" y="216" on="0"/>
        <pt x="236" y="188" on="1"/>
        <pt x="236" y="0" on="1"/>
      </contour>
      <contour>
        <pt x="406" y="686" on="1"/>
        <pt x="366" y="686" on="0"/>
        <pt x="281" y="738" on="0"/>
        <pt x="272" y="738" on="1"/>
        <pt x="245" y="738" on="0"/>
        <pt x="240" y="696" on="1"/>
        <pt x="130" y="704" on="1"/>
        <pt x="134" y="782" on="0"/>
        <pt x="207" y="856" on="0"/>
        <pt x="266" y="856" on="1"/>
        <pt x="306" y="856" on="0"/>
        <pt x="391" y="804" on="0"/>
        <pt x="400" y="804" on="1"/>
        <pt x="427" y="804" on="0"/>
        <pt x="432" y="846" on="1"/>
        <pt x="542" y="838" on="1"/>
        <pt x="538" y="760" on="0"/>
        <pt x="465" y="686" on="0"/>
      </contour>
    </TTGlyph>
    <TTGlyph name="O" xMin="44" yMin="-12" xMax="648" yMax="662">
      <contour>
        <pt x="483" y="-12" on="0"/>
        <pt x="209" y="-12" on="0"/>
        <pt x="44" y="170" on="0"/>
        <pt x="44" y="486" on="0"/>
        <pt x="209" y="662" on="0"/>
        <pt x="483" y="662" on="0"/>
        <pt x="648" y="485" on="0"/>
        <pt x="648" y="328" on="1"/>
        <pt x="648" y="170" on="0"/>
      </contour>
      <contour>
        <pt x="288" y="136" on="0"/>
        <pt x="404" y="136" on="0"/>
        <pt x="472" y="239" on="0"/>
        <pt x="472" y="328" on="1"/>
        <pt x="472" y="416" on="0"/>
        <pt x="405" y="514" on="0"/>
        <pt x="287" y="514" on="0"/>
        <pt x="220" y="416" on="0"/>
        <pt x="220" y="328" on="1"/>
        <pt x="220" y="239" on="0"/>
      </contour>
    </TTGlyph>
    <TTGlyph name="OE" xMin="44" yMin="0" xMax="826" yMax="650">
      <contour>
        <pt x="374" y="0" on="1"/>
        <pt x="305" y="0" on="0"/>
        <pt x="188" y="39" on="0"/>
        <pt x="96" y="116" on="0"/>
        <pt x="44" y="244" on="0"/>
        <pt x="44" y="412" on="0"/>
        <pt x="96" y="538" on="0"/>
        <pt x="190" y="613" on="0"/>
        <pt x="311" y="650" on="0"/>
        <pt x="384" y="650" on="1"/>
        <pt x="816" y="650" on="1"/>
        <pt x="816" y="506" on="1"/>
        <pt x="580" y="506" on="1"/>
        <pt x="580" y="404" on="1"/>
        <pt x="780" y="404" on="1"/>
        <pt x="780" y="260" on="1"/>
        <pt x="580" y="260" on="1"/>
        <pt x="580" y="144" on="1"/>
        <pt x="826" y="144" on="1"/>
        <pt x="826" y="0" on="1"/>
      </contour>
      <contour>
        <pt x="394" y="138" on="1"/>
        <pt x="408" y="138" on="1"/>
        <pt x="408" y="512" on="1"/>
        <pt x="394" y="512" on="1"/>
        <pt x="311" y="512" on="0"/>
        <pt x="220" y="435" on="0"/>
        <pt x="220" y="221" on="0"/>
        <pt x="312" y="138" on="0"/>
      </contour>
    </TTGlyph>
    <TTGlyph name="Oacute" xMin="44" yMin="-12" xMax="648" yMax="904">
      <contour>
        <pt x="483" y="-12" on="0"/>
        <pt x="209" y="-12" on="0"/>
        <pt x="44" y="170" on="0"/>
        <pt x="44" y="486" on="0"/>
        <pt x="209" y="662" on="0"/>
        <pt x="483" y="662" on="0"/>
        <pt x="648" y="485" on="0"/>
        <pt x="648" y="328" on="1"/>
        <pt x="648" y="170" on="0"/>
      </contour>
      <contour>
        <pt x="288" y="136" on="0"/>
        <pt x="404" y="136" on="0"/>
        <pt x="472" y="239" on="0"/>
        <pt x="472" y="328" on="1"/>
        <pt x="472" y="416" on="0"/>
        <pt x="405" y="514" on="0"/>
        <pt x="287" y="514" on="0"/>
        <pt x="220" y="416" on="0"/>
        <pt x="220" y="328" on="1"/>
        <pt x="220" y="239" on="0"/>
      </contour>
      <contour>
        <pt x="338" y="674" on="1"/>
        <pt x="262" y="760" on="1"/>
        <pt x="444" y="904" on="1"/>
        <pt x="534" y="794" on="1"/>
      </contour>
    </TTGlyph>
    <TTGlyph name="Ocircumflex" xMin="44" yMin="-12" xMax="648" yMax="834">
      <contour>
        <pt x="483" y="-12" on="0"/>
        <pt x="209" y="-12" on="0"/>
        <pt x="44" y="170" on="0"/>
        <pt x="44" y="486" on="0"/>
        <pt x="209" y="662" on="0"/>
        <pt x="483" y="662" on="0"/>
        <pt x="648" y="485" on="0"/>
        <pt x="648" y="328" on="1"/>
        <pt x="648" y="170" on="0"/>
      </contour>
      <contour>
        <pt x="288" y="136" on="0"/>
        <pt x="404" y="136" on="0"/>
        <pt x="472" y="239" on="0"/>
        <pt x="472" y="328" on="1"/>
        <pt x="472" y="416" on="0"/>
        <pt x="405" y="514" on="0"/>
        <pt x="287" y="514" on="0"/>
        <pt x="220" y="416" on="0"/>
        <pt x="220" y="328" on="1"/>
        <pt x="220" y="239" on="0"/>
      </contour>
      <contour>
        <pt x="168" y="724" on="1"/>
        <pt x="252" y="834" on="1"/>
        <pt x="440" y="834" on="1"/>
        <pt x="524" y="724" on="1"/>
        <pt x="450" y="680" on="1"/>
        <pt x="348" y="760" on="1"/>
        <pt x="344" y="760" on="1"/>
        <pt x="242" y="680" on="1"/>
      </contour>
    </TTGlyph>
    <TTGlyph name="Odieresis" xMin="44" yMin="-12" xMax="648" yMax="850">
      <contour>
        <pt x="483" y="-12" on="0"/>
        <pt x="209" y="-12" on="0"/>
        <pt x="44" y="170" on="0"/>
        <pt x="44" y="486" on="0"/>
        <pt x="209" y="662" on="0"/>
        <pt x="483" y="662" on="0"/>
        <pt x="648" y="485" on="0"/>
        <pt x="648" y="328" on="1"/>
        <pt x="648" y="170" on="0"/>
      </contour>
      <contour>
        <pt x="288" y="136" on="0"/>
        <pt x="404" y="136" on="0"/>
        <pt x="472" y="239" on="0"/>
        <pt x="472" y="328" on="1"/>
        <pt x="472" y="416" on="0"/>
        <pt x="405" y="514" on="0"/>
        <pt x="287" y="514" on="0"/>
        <pt x="220" y="416" on="0"/>
        <pt x="220" y="328" on="1"/>
        <pt x="220" y="239" on="0"/>
      </contour>
      <contour>
        <pt x="266" y="694" on="0"/>
        <pt x="198" y="694" on="0"/>
        <pt x="154" y="739" on="0"/>
        <pt x="154" y="805" on="0"/>
        <pt x="198" y="850" on="0"/>
        <pt x="266" y="850" on="0"/>
        <pt x="310" y="805" on="0"/>
        <pt x="310" y="739" on="0"/>
      </contour>
      <contour>
        <pt x="494" y="694" on="0"/>
        <pt x="426" y="694" on="0"/>
        <pt x="382" y="739" on="0"/>
        <pt x="382" y="805" on="0"/>
        <pt x="426" y="850" on="0"/>
        <pt x="494" y="850" on="0"/>
        <pt x="538" y="805" on="0"/>
        <pt x="538" y="739" on="0"/>
      </contour>
    </TTGlyph>
    <TTGlyph name="Ograve" xMin="44" yMin="-12" xMax="648" yMax="904">
      <contour>
        <pt x="483" y="-12" on="0"/>
        <pt x="209" y="-12" on="0"/>
        <pt x="44" y="170" on="0"/>
        <pt x="44" y="486" on="0"/>
        <pt x="209" y="662" on="0"/>
        <pt x="483" y="662" on="0"/>
        <pt x="648" y="485" on="0"/>
        <pt x="648" y="328" on="1"/>
        <pt x="648" y="170" on="0"/>
      </contour>
      <contour>
        <pt x="288" y="136" on="0"/>
        <pt x="404" y="136" on="0"/>
        <pt x="472" y="239" on="0"/>
        <pt x="472" y="328" on="1"/>
        <pt x="472" y="416" on="0"/>
        <pt x="405" y="514" on="0"/>
        <pt x="287" y="514" on="0"/>
        <pt x="220" y="416" on="0"/>
        <pt x="220" y="328" on="1"/>
        <pt x="220" y="239" on="0"/>
      </contour>
      <contour>
        <pt x="354" y="674" on="1"/>
        <pt x="158" y="794" on="1"/>
        <pt x="248" y="904" on="1"/>
        <pt x="430" y="760" on="1"/>
      </contour>
    </TTGlyph>
    <TTGlyph name="Oslash" xMin="36" yMin="-46" xMax="676" yMax="696">
      <contour>
        <pt x="124" y="-46" on="1"/>
        <pt x="36" y="22" on="1"/>
        <pt x="588" y="696" on="1"/>
        <pt x="676" y="628" on="1"/>
      </contour>
      <contour>
        <pt x="483" y="-12" on="0"/>
        <pt x="209" y="-12" on="0"/>
        <pt x="44" y="170" on="0"/>
        <pt x="44" y="486" on="0"/>
        <pt x="209" y="662" on="0"/>
        <pt x="483" y="662" on="0"/>
        <pt x="648" y="485" on="0"/>
        <pt x="648" y="328" on="1"/>
        <pt x="648" y="170" on="0"/>
      </contour>
      <contour>
        <pt x="288" y="136" on="0"/>
        <pt x="404" y="136" on="0"/>
        <pt x="472" y="239" on="0"/>
        <pt x="472" y="328" on="1"/>
        <pt x="472" y="416" on="0"/>
        <pt x="405" y="514" on="0"/>
        <pt x="287" y="514" on="0"/>
        <pt x="220" y="416" on="0"/>
        <pt x="220" y="328" on="1"/>
        <pt x="220" y="239" on="0"/>
      </contour>
    </TTGlyph>
    <TTGlyph name="Otilde" xMin="44" yMin="-12" xMax="648" yMax="856">
      <contour>
        <pt x="483" y="-12" on="0"/>
        <pt x="209" y="-12" on="0"/>
        <pt x="44" y="170" on="0"/>
        <pt x="44" y="486" on="0"/>
        <pt x="209" y="662" on="0"/>
        <pt x="483" y="662" on="0"/>
        <pt x="648" y="485" on="0"/>
        <pt x="648" y="328" on="1"/>
        <pt x="648" y="170" on="0"/>
      </contour>
      <contour>
        <pt x="288" y="136" on="0"/>
        <pt x="404" y="136" on="0"/>
        <pt x="472" y="239" on="0"/>
        <pt x="472" y="328" on="1"/>
        <pt x="472" y="416" on="0"/>
        <pt x="405" y="514" on="0"/>
        <pt x="287" y="514" on="0"/>
        <pt x="220" y="416" on="0"/>
        <pt x="220" y="328" on="1"/>
        <pt x="220" y="239" on="0"/>
      </contour>
      <contour>
        <pt x="416" y="686" on="1"/>
        <pt x="376" y="686" on="0"/>
        <pt x="291" y="738" on="0"/>
        <pt x="282" y="738" on="1"/>
        <pt x="255" y="738" on="0"/>
        <pt x="250" y="696" on="1"/>
        <pt x="140" y="704" on="1"/>
        <pt x="144" y="782" on="0"/>
        <pt x="217" y="856" on="0"/>
        <pt x="276" y="856" on="1"/>
        <pt x="316" y="856" on="0"/>
        <pt x="401" y="804" on="0"/>
        <pt x="410" y="804" on="1"/>
        <pt x="437" y="804" on="0"/>
        <pt x="442" y="846" on="1"/>
        <pt x="552" y="838" on="1"/>
        <pt x="548" y="760" on="0"/>
        <pt x="475" y="686" on="0"/>
      </contour>
    </TTGlyph>
    <TTGlyph name="P" xMin="72" yMin="0" xMax="574" yMax="650">
      <contour>
        <pt x="72" y="0" on="1"/>
        <pt x="72" y="650" on="1"/>
        <pt x="310" y="650" on="1"/>
        <pt x="428" y="650" on="0"/>
        <pt x="574" y="549" on="0"/>
        <pt x="574" y="434" on="1"/>
        <pt x="574" y="358" on="0"/>
        <pt x="499" y="252" on="0"/>
        <pt x="385" y="206" on="0"/>
        <pt x="314" y="206" on="1"/>
        <pt x="244" y="206" on="1"/>
        <pt x="244" y="0" on="1"/>
      </contour>
      <contour>
        <pt x="244" y="342" on="1"/>
        <pt x="306" y="342" on="1"/>
        <pt x="406" y="342" on="0"/>
        <pt x="406" y="434" on="1"/>
        <pt x="406" y="514" on="0"/>
        <pt x="302" y="514" on="1"/>
        <pt x="244" y="514" on="1"/>
      </contour>
    </TTGlyph>
    <TTGlyph name="Q" xMin="44" yMin="-188" xMax="690" yMax="662">
      <contour>
        <pt x="483" y="-12" on="0"/>
        <pt x="209" y="-12" on="0"/>
        <pt x="44" y="170" on="0"/>
        <pt x="44" y="486" on="0"/>
        <pt x="209" y="662" on="0"/>
        <pt x="483" y="662" on="0"/>
        <pt x="648" y="485" on="0"/>
        <pt x="648" y="328" on="1"/>
        <pt x="648" y="170" on="0"/>
      </contour>
      <contour>
        <pt x="287" y="128" on="0"/>
        <pt x="405" y="128" on="0"/>
        <pt x="472" y="233" on="0"/>
        <pt x="472" y="328" on="1"/>
        <pt x="472" y="416" on="0"/>
        <pt x="405" y="514" on="0"/>
        <pt x="287" y="514" on="0"/>
        <pt x="220" y="416" on="0"/>
        <pt x="220" y="328" on="1"/>
        <pt x="220" y="233" on="0"/>
      </contour>
      <contour>
        <pt x="566" y="-188" on="1"/>
        <pt x="458" y="-188" on="0"/>
        <pt x="302" y="-82" on="0"/>
        <pt x="264" y="6" on="1"/>
        <pt x="438" y="24" on="1"/>
        <pt x="455" y="-16" on="0"/>
        <pt x="537" y="-52" on="0"/>
        <pt x="586" y="-52" on="1"/>
        <pt x="626" y="-52" on="0"/>
        <pt x="660" y="-40" on="1"/>
        <pt x="690" y="-164" on="1"/>
        <pt x="645" y="-188" on="0"/>
      </contour>
    </TTGlyph>
    <TTGlyph name="R" xMin="72" yMin="0" xMax="614" yMax="650">
      <contour>
        <pt x="72" y="0" on="1"/>
        <pt x="72" y="650" on="1"/>
        <pt x="318" y="650" on="1"/>
        <pt x="578" y="650" on="0"/>
        <pt x="578" y="440" on="1"/>
        <pt x="578" y="329" on="0"/>
        <pt x="431" y="218" on="0"/>
        <pt x="318" y="218" on="1"/>
        <pt x="244" y="218" on="1"/>
        <pt x="244" y="0" on="1"/>
      </contour>
      <contour>
        <pt x="244" y="354" on="1"/>
        <pt x="306" y="354" on="1"/>
        <pt x="410" y="354" on="0"/>
        <pt x="410" y="440" on="1"/>
        <pt x="410" y="481" on="0"/>
        <pt x="359" y="514" on="0"/>
        <pt x="306" y="514" on="1"/>
        <pt x="244" y="514" on="1"/>
      </contour>
      <contour>
        <pt x="422" y="0" on="1"/>
        <pt x="287" y="263" on="1"/>
        <pt x="403" y="377" on="1"/>
        <pt x="614" y="0" on="1"/>
      </contour>
    </TTGlyph>
    <TTGlyph name="S" xMin="32" yMin="-12" xMax="532" yMax="662">
      <contour>
        <pt x="278" y="-12" on="1"/>
        <pt x="214" y="-12" on="0"/>
        <pt x="83" y="35" on="0"/>
        <pt x="32" y="81" on="1"/>
        <pt x="130" y="199" on="1"/>
        <pt x="208" y="136" on="0"/>
        <pt x="356" y="136" on="0"/>
        <pt x="356" y="182" on="1"/>
        <pt x="356" y="210" on="0"/>
        <pt x="282" y="239" on="1"/>
        <pt x="273" y="243" on="0"/>
        <pt x="268" y="245" on="1"/>
        <pt x="187" y="279" on="1"/>
        <pt x="129" y="302" on="0"/>
        <pt x="56" y="394" on="0"/>
        <pt x="56" y="460" on="1"/>
        <pt x="56" y="545" on="0"/>
        <pt x="193" y="662" on="0"/>
        <pt x="298" y="662" on="1"/>
        <pt x="356" y="662" on="0"/>
        <pt x="471" y="618" on="0"/>
        <pt x="514" y="575" on="1"/>
        <pt x="428" y="467" on="1"/>
        <pt x="361" y="514" on="0"/>
        <pt x="298" y="514" on="1"/>
        <pt x="230" y="514" on="0"/>
        <pt x="230" y="470" on="1"/>
        <pt x="230" y="451" on="0"/>
        <pt x="266" y="428" on="0"/>
        <pt x="310" y="411" on="1"/>
        <pt x="320" y="407" on="0"/>
        <pt x="326" y="405" on="1"/>
        <pt x="405" y="374" on="1"/>
        <pt x="532" y="324" on="0"/>
        <pt x="532" y="196" on="1"/>
        <pt x="532" y="109" on="0"/>
        <pt x="395" y="-12" on="0"/>
      </contour>
    </TTGlyph>
    <TTGlyph name="T" xMin="24" yMin="0" xMax="540" yMax="650">
      <contour>
        <pt x="196" y="0" on="1"/>
        <pt x="196" y="506" on="1"/>
        <pt x="24" y="506" on="1"/>
        <pt x="24" y="650" on="1"/>
        <pt x="540" y="650" on="1"/>
        <pt x="540" y="506" on="1"/>
        <pt x="368" y="506" on="1"/>
        <pt x="368" y="0" on="1"/>
      </contour>
    </TTGlyph>
    <TTGlyph name="Thorn" xMin="72" yMin="0" xMax="584" yMax="650">
      <contour>
        <pt x="72" y="0" on="1"/>
        <pt x="72" y="650" on="1"/>
        <pt x="244" y="650" on="1"/>
        <pt x="244" y="556" on="1"/>
        <pt x="324" y="556" on="1"/>
        <pt x="379" y="556" on="0"/>
        <pt x="469" y="534" on="0"/>
        <pt x="543" y="486" on="0"/>
        <pt x="584" y="399" on="0"/>
        <pt x="584" y="340" on="1"/>
        <pt x="584" y="264" on="0"/>
        <pt x="509" y="158" on="0"/>
        <pt x="395" y="112" on="0"/>
        <pt x="324" y="112" on="1"/>
        <pt x="244" y="112" on="1"/>
        <pt x="244" y="0" on="1"/>
      </contour>
      <contour>
        <pt x="244" y="248" on="1"/>
        <pt x="316" y="248" on="1"/>
        <pt x="416" y="248" on="0"/>
        <pt x="416" y="340" on="1"/>
        <pt x="416" y="420" on="0"/>
        <pt x="316" y="420" on="1"/>
        <pt x="244" y="420" on="1"/>
      </contour>
    </TTGlyph>
    <TTGlyph name="U" xMin="68" yMin="-12" xMax="604" yMax="650">
      <contour>
        <pt x="338" y="-12" on="1"/>
        <pt x="201" y="-12" on="0"/>
        <pt x="68" y="148" on="0"/>
        <pt x="68" y="314" on="1"/>
        <pt x="68" y="650" on="1"/>
        <pt x="240" y="650" on="1"/>
        <pt x="240" y="294" on="1"/>
        <pt x="240" y="208" on="0"/>
        <pt x="286" y="136" on="0"/>
        <pt x="390" y="136" on="0"/>
        <pt x="438" y="209" on="0"/>
        <pt x="438" y="294" on="1"/>
        <pt x="438" y="650" on="1"/>
        <pt x="604" y="650" on="1"/>
        <pt x="604" y="314" on="1"/>
        <pt x="604" y="147" on="0"/>
        <pt x="474" y="-12" on="0"/>
      </contour>
    </TTGlyph>
    <TTGlyph name="Uacute" xMin="68" yMin="-12" xMax="604" yMax="904">
      <contour>
        <pt x="338" y="-12" on="1"/>
        <pt x="201" y="-12" on="0"/>
        <pt x="68" y="148" on="0"/>
        <pt x="68" y="314" on="1"/>
        <pt x="68" y="650" on="1"/>
        <pt x="240" y="650" on="1"/>
        <pt x="240" y="294" on="1"/>
        <pt x="240" y="208" on="0"/>
        <pt x="286" y="136" on="0"/>
        <pt x="390" y="136" on="0"/>
        <pt x="438" y="209" on="0"/>
        <pt x="438" y="294" on="1"/>
        <pt x="438" y="650" on="1"/>
        <pt x="604" y="650" on="1"/>
        <pt x="604" y="314" on="1"/>
        <pt x="604" y="147" on="0"/>
        <pt x="474" y="-12" on="0"/>
      </contour>
      <contour>
        <pt x="328" y="674" on="1"/>
        <pt x="252" y="760" on="1"/>
        <pt x="434" y="904" on="1"/>
        <pt x="524" y="794" on="1"/>
      </contour>
    </TTGlyph>
    <TTGlyph name="Ucircumflex" xMin="68" yMin="-12" xMax="604" yMax="834">
      <contour>
        <pt x="338" y="-12" on="1"/>
        <pt x="201" y="-12" on="0"/>
        <pt x="68" y="148" on="0"/>
        <pt x="68" y="314" on="1"/>
        <pt x="68" y="650" on="1"/>
        <pt x="240" y="650" on="1"/>
        <pt x="240" y="294" on="1"/>
        <pt x="240" y="208" on="0"/>
        <pt x="286" y="136" on="0"/>
        <pt x="390" y="136" on="0"/>
        <pt x="438" y="209" on="0"/>
        <pt x="438" y="294" on="1"/>
        <pt x="438" y="650" on="1"/>
        <pt x="604" y="650" on="1"/>
        <pt x="604" y="314" on="1"/>
        <pt x="604" y="147" on="0"/>
        <pt x="474" y="-12" on="0"/>
      </contour>
      <contour>
        <pt x="158" y="724" on="1"/>
        <pt x="242" y="834" on="1"/>
        <pt x="430" y="834" on="1"/>
        <pt x="514" y="724" on="1"/>
        <pt x="440" y="680" on="1"/>
        <pt x="338" y="760" on="1"/>
        <pt x="334" y="760" on="1"/>
        <pt x="232" y="680" on="1"/>
      </contour>
    </TTGlyph>
    <TTGlyph name="Udieresis" xMin="68" yMin="-12" xMax="604" yMax="850">
      <contour>
        <pt x="338" y="-12" on="1"/>
        <pt x="201" y="-12" on="0"/>
        <pt x="68" y="148" on="0"/>
        <pt x="68" y="314" on="1"/>
        <pt x="68" y="650" on="1"/>
        <pt x="240" y="650" on="1"/>
        <pt x="240" y="294" on="1"/>
        <pt x="240" y="208" on="0"/>
        <pt x="286" y="136" on="0"/>
        <pt x="390" y="136" on="0"/>
        <pt x="438" y="209" on="0"/>
        <pt x="438" y="294" on="1"/>
        <pt x="438" y="650" on="1"/>
        <pt x="604" y="650" on="1"/>
        <pt x="604" y="314" on="1"/>
        <pt x="604" y="147" on="0"/>
        <pt x="474" y="-12" on="0"/>
      </contour>
      <contour>
        <pt x="256" y="694" on="0"/>
        <pt x="188" y="694" on="0"/>
        <pt x="144" y="739" on="0"/>
        <pt x="144" y="805" on="0"/>
        <pt x="188" y="850" on="0"/>
        <pt x="256" y="850" on="0"/>
        <pt x="300" y="805" on="0"/>
        <pt x="300" y="739" on="0"/>
      </contour>
      <contour>
        <pt x="484" y="694" on="0"/>
        <pt x="416" y="694" on="0"/>
        <pt x="372" y="739" on="0"/>
        <pt x="372" y="805" on="0"/>
        <pt x="416" y="850" on="0"/>
        <pt x="484" y="850" on="0"/>
        <pt x="528" y="805" on="0"/>
        <pt x="528" y="739" on="0"/>
      </contour>
    </TTGlyph>
    <TTGlyph name="Ugrave" xMin="68" yMin="-12" xMax="604" yMax="904">
      <contour>
        <pt x="338" y="-12" on="1"/>
        <pt x="201" y="-12" on="0"/>
        <pt x="68" y="148" on="0"/>
        <pt x="68" y="314" on="1"/>
        <pt x="68" y="650" on="1"/>
        <pt x="240" y="650" on="1"/>
        <pt x="240" y="294" on="1"/>
        <pt x="240" y="208" on="0"/>
        <pt x="286" y="136" on="0"/>
        <pt x="390" y="136" on="0"/>
        <pt x="438" y="209" on="0"/>
        <pt x="438" y="294" on="1"/>
        <pt x="438" y="650" on="1"/>
        <pt x="604" y="650" on="1"/>
        <pt x="604" y="314" on="1"/>
        <pt x="604" y="147" on="0"/>
        <pt x="474" y="-12" on="0"/>
      </contour>
      <contour>
        <pt x="344" y="674" on="1"/>
        <pt x="148" y="794" on="1"/>
        <pt x="238" y="904" on="1"/>
        <pt x="420" y="760" on="1"/>
      </contour>
    </TTGlyph>
    <TTGlyph name="V" xMin="-10" yMin="0" xMax="582" yMax="650">
      <contour>
        <pt x="182" y="0" on="1"/>
        <pt x="-10" y="650" on="1"/>
        <pt x="172" y="650" on="1"/>
        <pt x="240" y="366" on="1"/>
        <pt x="249" y="331" on="0"/>
        <pt x="279" y="194" on="0"/>
        <pt x="288" y="160" on="1"/>
        <pt x="292" y="160" on="1"/>
        <pt x="302" y="198" on="0"/>
        <pt x="333" y="336" on="0"/>
        <pt x="340" y="366" on="1"/>
        <pt x="406" y="650" on="1"/>
        <pt x="582" y="650" on="1"/>
        <pt x="390" y="0" on="1"/>
      </contour>
    </TTGlyph>
    <TTGlyph name="W" xMin="10" yMin="0" xMax="814" yMax="650">
      <contour>
        <pt x="124" y="0" on="1"/>
        <pt x="10" y="650" on="1"/>
        <pt x="186" y="650" on="1"/>
        <pt x="222" y="366" on="1"/>
        <pt x="226" y="332" on="0"/>
        <pt x="241" y="196" on="0"/>
        <pt x="244" y="162" on="1"/>
        <pt x="248" y="162" on="1"/>
        <pt x="252" y="185" on="0"/>
        <pt x="267" y="268" on="0"/>
        <pt x="279" y="336" on="0"/>
        <pt x="284" y="366" on="1"/>
        <pt x="346" y="650" on="1"/>
        <pt x="490" y="650" on="1"/>
        <pt x="552" y="366" on="1"/>
        <pt x="561" y="317" on="0"/>
        <pt x="588" y="162" on="1"/>
        <pt x="592" y="162" on="1"/>
        <pt x="596" y="201" on="0"/>
        <pt x="612" y="344" on="0"/>
        <pt x="614" y="366" on="1"/>
        <pt x="650" y="650" on="1"/>
        <pt x="814" y="650" on="1"/>
        <pt x="706" y="0" on="1"/>
        <pt x="488" y="0" on="1"/>
        <pt x="438" y="258" on="1"/>
        <pt x="425" y="325" on="0"/>
        <pt x="414" y="410" on="1"/>
        <pt x="410" y="410" on="1"/>
        <pt x="393" y="292" on="0"/>
        <pt x="386" y="258" on="1"/>
        <pt x="338" y="0" on="1"/>
      </contour>
    </TTGlyph>
    <TTGlyph name="X" xMin="10" yMin="0" xMax="578" yMax="650">
      <contour>
        <pt x="10" y="0" on="1"/>
        <pt x="186" y="334" on="1"/>
        <pt x="20" y="650" on="1"/>
        <pt x="212" y="650" on="1"/>
        <pt x="256" y="544" on="1"/>
        <pt x="262" y="531" on="0"/>
        <pt x="277" y="497" on="0"/>
        <pt x="295" y="451" on="0"/>
        <pt x="302" y="436" on="1"/>
        <pt x="306" y="436" on="1"/>
        <pt x="322" y="484" on="0"/>
        <pt x="346" y="544" on="1"/>
        <pt x="384" y="650" on="1"/>
        <pt x="568" y="650" on="1"/>
        <pt x="402" y="326" on="1"/>
        <pt x="578" y="0" on="1"/>
        <pt x="386" y="0" on="1"/>
        <pt x="334" y="116" on="1"/>
        <pt x="315" y="156" on="0"/>
        <pt x="288" y="224" on="1"/>
        <pt x="284" y="224" on="1"/>
        <pt x="270" y="184" on="0"/>
        <pt x="242" y="116" on="1"/>
        <pt x="194" y="0" on="1"/>
      </contour>
    </TTGlyph>
    <TTGlyph name="Y" xMin="-10" yMin="0" xMax="554" yMax="650">
      <contour>
        <pt x="186" y="0" on="1"/>
        <pt x="186" y="224" on="1"/>
        <pt x="-10" y="650" on="1"/>
        <pt x="174" y="650" on="1"/>
        <pt x="222" y="514" on="1"/>
        <pt x="231" y="487" on="0"/>
        <pt x="264" y="390" on="0"/>
        <pt x="271" y="369" on="1"/>
        <pt x="275" y="369" on="1"/>
        <pt x="285" y="398" on="0"/>
        <pt x="320" y="498" on="0"/>
        <pt x="326" y="514" on="1"/>
        <pt x="374" y="650" on="1"/>
        <pt x="554" y="650" on="1"/>
        <pt x="358" y="224" on="1"/>
        <pt x="358" y="0" on="1"/>
      </contour>
    </TTGlyph>
    <TTGlyph name="Yacute" xMin="-10" yMin="0" xMax="554" yMax="904">
      <contour>
        <pt x="186" y="0" on="1"/>
        <pt x="186" y="224" on="1"/>
        <pt x="-10" y="650" on="1"/>
        <pt x="174" y="650" on="1"/>
        <pt x="222" y="514" on="1"/>
        <pt x="231" y="487" on="0"/>
        <pt x="264" y="390" on="0"/>
        <pt x="271" y="369" on="1"/>
        <pt x="275" y="369" on="1"/>
        <pt x="285" y="398" on="0"/>
        <pt x="320" y="498" on="0"/>
        <pt x="326" y="514" on="1"/>
        <pt x="374" y="650" on="1"/>
        <pt x="554" y="650" on="1"/>
        <pt x="358" y="224" on="1"/>
        <pt x="358" y="0" on="1"/>
      </contour>
      <contour>
        <pt x="264" y="674" on="1"/>
        <pt x="188" y="760" on="1"/>
        <pt x="370" y="904" on="1"/>
        <pt x="460" y="794" on="1"/>
      </contour>
    </TTGlyph>
    <TTGlyph name="Z" xMin="32" yMin="0" xMax="512" yMax="650">
      <contour>
        <pt x="32" y="0" on="1"/>
        <pt x="32" y="104" on="1"/>
        <pt x="298" y="506" on="1"/>
        <pt x="58" y="506" on="1"/>
        <pt x="58" y="650" on="1"/>
        <pt x="510" y="650" on="1"/>
        <pt x="510" y="546" on="1"/>
        <pt x="244" y="144" on="1"/>
        <pt x="512" y="144" on="1"/>
        <pt x="512" y="0" on="1"/>
      </contour>
    </TTGlyph>
    <TTGlyph name="a" xMin="38" yMin="-12" xMax="482" yMax="512">
      <contour>
        <pt x="188" y="-12" on="1"/>
        <pt x="120" y="-12" on="0"/>
        <pt x="38" y="78" on="0"/>
        <pt x="38" y="142" on="1"/>
        <pt x="38" y="221" on="0"/>
        <pt x="167" y="309" on="0"/>
        <pt x="310" y="324" on="1"/>
        <pt x="304" y="376" on="0"/>
        <pt x="240" y="376" on="1"/>
        <pt x="192" y="376" on="0"/>
        <pt x="114" y="334" on="1"/>
        <pt x="54" y="446" on="1"/>
        <pt x="164" y="512" on="0"/>
        <pt x="274" y="512" on="1"/>
        <pt x="482" y="512" on="0"/>
        <pt x="482" y="278" on="1"/>
        <pt x="482" y="0" on="1"/>
        <pt x="342" y="0" on="1"/>
        <pt x="330" y="48" on="1"/>
        <pt x="326" y="48" on="1"/>
        <pt x="259" y="-12" on="0"/>
      </contour>
      <contour>
        <pt x="248" y="120" on="1"/>
        <pt x="279" y="120" on="0"/>
        <pt x="310" y="154" on="1"/>
        <pt x="310" y="222" on="1"/>
        <pt x="202" y="206" on="0"/>
        <pt x="202" y="156" on="1"/>
        <pt x="202" y="120" on="0"/>
      </contour>
    </TTGlyph>
    <TTGlyph name="aacute" xMin="38" yMin="-12" xMax="491" yMax="844">
      <contour>
        <pt x="188" y="-12" on="1"/>
        <pt x="120" y="-12" on="0"/>
        <pt x="38" y="78" on="0"/>
        <pt x="38" y="142" on="1"/>
        <pt x="38" y="221" on="0"/>
        <pt x="167" y="309" on="0"/>
        <pt x="310" y="324" on="1"/>
        <pt x="304" y="376" on="0"/>
        <pt x="240" y="376" on="1"/>
        <pt x="192" y="376" on="0"/>
        <pt x="114" y="334" on="1"/>
        <pt x="54" y="446" on="1"/>
        <pt x="164" y="512" on="0"/>
        <pt x="274" y="512" on="1"/>
        <pt x="482" y="512" on="0"/>
        <pt x="482" y="278" on="1"/>
        <pt x="482" y="0" on="1"/>
        <pt x="342" y="0" on="1"/>
        <pt x="330" y="48" on="1"/>
        <pt x="326" y="48" on="1"/>
        <pt x="259" y="-12" on="0"/>
      </contour>
      <contour>
        <pt x="248" y="120" on="1"/>
        <pt x="279" y="120" on="0"/>
        <pt x="310" y="154" on="1"/>
        <pt x="310" y="222" on="1"/>
        <pt x="202" y="206" on="0"/>
        <pt x="202" y="156" on="1"/>
        <pt x="202" y="120" on="0"/>
      </contour>
      <contour>
        <pt x="301" y="572" on="1"/>
        <pt x="217" y="656" on="1"/>
        <pt x="375" y="844" on="1"/>
        <pt x="491" y="730" on="1"/>
      </contour>
    </TTGlyph>
    <TTGlyph name="acircumflex" xMin="38" yMin="-12" xMax="482" yMax="746">
      <contour>
        <pt x="188" y="-12" on="1"/>
        <pt x="120" y="-12" on="0"/>
        <pt x="38" y="78" on="0"/>
        <pt x="38" y="142" on="1"/>
        <pt x="38" y="221" on="0"/>
        <pt x="167" y="309" on="0"/>
        <pt x="310" y="324" on="1"/>
        <pt x="304" y="376" on="0"/>
        <pt x="240" y="376" on="1"/>
        <pt x="192" y="376" on="0"/>
        <pt x="114" y="334" on="1"/>
        <pt x="54" y="446" on="1"/>
        <pt x="164" y="512" on="0"/>
        <pt x="274" y="512" on="1"/>
        <pt x="482" y="512" on="0"/>
        <pt x="482" y="278" on="1"/>
        <pt x="482" y="0" on="1"/>
        <pt x="342" y="0" on="1"/>
        <pt x="330" y="48" on="1"/>
        <pt x="326" y="48" on="1"/>
        <pt x="259" y="-12" on="0"/>
      </contour>
      <contour>
        <pt x="248" y="120" on="1"/>
        <pt x="279" y="120" on="0"/>
        <pt x="310" y="154" on="1"/>
        <pt x="310" y="222" on="1"/>
        <pt x="202" y="206" on="0"/>
        <pt x="202" y="156" on="1"/>
        <pt x="202" y="120" on="0"/>
      </contour>
      <contour>
        <pt x="87" y="618" on="1"/>
        <pt x="193" y="746" on="1"/>
        <pt x="369" y="746" on="1"/>
        <pt x="475" y="618" on="1"/>
        <pt x="411" y="558" on="1"/>
        <pt x="283" y="642" on="1"/>
        <pt x="279" y="642" on="1"/>
        <pt x="151" y="558" on="1"/>
      </contour>
    </TTGlyph>
    <TTGlyph name="acute" xMin="216" yMin="572" xMax="490" yMax="844">
      <contour>
        <pt x="300" y="572" on="1"/>
        <pt x="216" y="656" on="1"/>
        <pt x="374" y="844" on="1"/>
        <pt x="490" y="730" on="1"/>
      </contour>
    </TTGlyph>
    <TTGlyph name="adieresis" xMin="38" yMin="-12" xMax="482" yMax="722">
      <contour>
        <pt x="188" y="-12" on="1"/>
        <pt x="120" y="-12" on="0"/>
        <pt x="38" y="78" on="0"/>
        <pt x="38" y="142" on="1"/>
        <pt x="38" y="221" on="0"/>
        <pt x="167" y="309" on="0"/>
        <pt x="310" y="324" on="1"/>
        <pt x="304" y="376" on="0"/>
        <pt x="240" y="376" on="1"/>
        <pt x="192" y="376" on="0"/>
        <pt x="114" y="334" on="1"/>
        <pt x="54" y="446" on="1"/>
        <pt x="164" y="512" on="0"/>
        <pt x="274" y="512" on="1"/>
        <pt x="482" y="512" on="0"/>
        <pt x="482" y="278" on="1"/>
        <pt x="482" y="0" on="1"/>
        <pt x="342" y="0" on="1"/>
        <pt x="330" y="48" on="1"/>
        <pt x="326" y="48" on="1"/>
        <pt x="259" y="-12" on="0"/>
      </contour>
      <contour>
        <pt x="248" y="120" on="1"/>
        <pt x="279" y="120" on="0"/>
        <pt x="310" y="154" on="1"/>
        <pt x="310" y="222" on="1"/>
        <pt x="202" y="206" on="0"/>
        <pt x="202" y="156" on="1"/>
        <pt x="202" y="120" on="0"/>
      </contour>
      <contour>
        <pt x="202" y="562" on="0"/>
        <pt x="132" y="562" on="0"/>
        <pt x="87" y="608" on="0"/>
        <pt x="87" y="676" on="0"/>
        <pt x="132" y="722" on="0"/>
        <pt x="202" y="722" on="0"/>
        <pt x="247" y="676" on="0"/>
        <pt x="247" y="608" on="0"/>
      </contour>
      <contour>
        <pt x="430" y="562" on="0"/>
        <pt x="360" y="562" on="0"/>
        <pt x="315" y="608" on="0"/>
        <pt x="315" y="676" on="0"/>
        <pt x="360" y="722" on="0"/>
        <pt x="430" y="722" on="0"/>
        <pt x="475" y="676" on="0"/>
        <pt x="475" y="608" on="0"/>
      </contour>
    </TTGlyph>
    <TTGlyph name="ae" xMin="42" yMin="-12" xMax="750" yMax="512">
      <contour>
        <pt x="192" y="-12" on="1"/>
        <pt x="124" y="-12" on="0"/>
        <pt x="42" y="78" on="0"/>
        <pt x="42" y="142" on="1"/>
        <pt x="42" y="221" on="0"/>
        <pt x="170" y="310" on="0"/>
        <pt x="312" y="325" on="1"/>
        <pt x="309" y="352" on="0"/>
        <pt x="277" y="376" on="0"/>
        <pt x="244" y="376" on="1"/>
        <pt x="196" y="376" on="0"/>
        <pt x="118" y="334" on="1"/>
        <pt x="58" y="446" on="1"/>
        <pt x="168" y="512" on="0"/>
        <pt x="268" y="512" on="1"/>
        <pt x="355" y="512" on="0"/>
        <pt x="406" y="448" on="1"/>
        <pt x="473" y="512" on="0"/>
        <pt x="548" y="512" on="1"/>
        <pt x="646" y="512" on="0"/>
        <pt x="750" y="372" on="0"/>
        <pt x="750" y="266" on="1"/>
        <pt x="750" y="226" on="0"/>
        <pt x="743" y="198" on="1"/>
        <pt x="468" y="198" on="1"/>
        <pt x="487" y="122" on="0"/>
        <pt x="574" y="122" on="1"/>
        <pt x="613" y="122" on="0"/>
        <pt x="674" y="156" on="1"/>
        <pt x="732" y="46" on="1"/>
        <pt x="650" y="-12" on="0"/>
        <pt x="550" y="-12" on="1"/>
        <pt x="449" y="-12" on="0"/>
        <pt x="380" y="60" on="1"/>
        <pt x="327" y="19" on="0"/>
        <pt x="243" y="-12" on="0"/>
      </contour>
      <contour>
        <pt x="252" y="120" on="1"/>
        <pt x="291" y="120" on="0"/>
        <pt x="324" y="150" on="1"/>
        <pt x="315" y="177" on="0"/>
        <pt x="312" y="203" on="1"/>
        <pt x="310" y="222" on="1"/>
        <pt x="206" y="205" on="0"/>
        <pt x="206" y="156" on="1"/>
        <pt x="206" y="120" on="0"/>
      </contour>
      <contour>
        <pt x="468" y="302" on="1"/>
        <pt x="604" y="302" on="1"/>
        <pt x="604" y="382" on="0"/>
        <pt x="542" y="382" on="1"/>
        <pt x="479" y="382" on="0"/>
      </contour>
    </TTGlyph>
    <TTGlyph name="agrave" xMin="38" yMin="-12" xMax="482" yMax="844">
      <contour>
        <pt x="188" y="-12" on="1"/>
        <pt x="120" y="-12" on="0"/>
        <pt x="38" y="78" on="0"/>
        <pt x="38" y="142" on="1"/>
        <pt x="38" y="221" on="0"/>
        <pt x="167" y="309" on="0"/>
        <pt x="310" y="324" on="1"/>
        <pt x="304" y="376" on="0"/>
        <pt x="240" y="376" on="1"/>
        <pt x="192" y="376" on="0"/>
        <pt x="114" y="334" on="1"/>
        <pt x="54" y="446" on="1"/>
        <pt x="164" y="512" on="0"/>
        <pt x="274" y="512" on="1"/>
        <pt x="482" y="512" on="0"/>
        <pt x="482" y="278" on="1"/>
        <pt x="482" y="0" on="1"/>
        <pt x="342" y="0" on="1"/>
        <pt x="330" y="48" on="1"/>
        <pt x="326" y="48" on="1"/>
        <pt x="259" y="-12" on="0"/>
      </contour>
      <contour>
        <pt x="248" y="120" on="1"/>
        <pt x="279" y="120" on="0"/>
        <pt x="310" y="154" on="1"/>
        <pt x="310" y="222" on="1"/>
        <pt x="202" y="206" on="0"/>
        <pt x="202" y="156" on="1"/>
        <pt x="202" y="120" on="0"/>
      </contour>
      <contour>
        <pt x="261" y="572" on="1"/>
        <pt x="71" y="730" on="1"/>
        <pt x="187" y="844" on="1"/>
        <pt x="345" y="656" on="1"/>
      </contour>
    </TTGlyph>
    <TTGlyph name="ampersand" xMin="22" yMin="-12" xMax="670" yMax="662">
      <contour>
        <pt x="246" y="-12" on="1"/>
        <pt x="139" y="-12" on="0"/>
        <pt x="22" y="97" on="0"/>
        <pt x="22" y="176" on="1"/>
        <pt x="22" y="237" on="0"/>
        <pt x="85" y="328" on="0"/>
        <pt x="175" y="379" on="0"/>
        <pt x="265" y="422" on="0"/>
        <pt x="328" y="475" on="0"/>
        <pt x="328" y="508" on="1"/>
        <pt x="328" y="550" on="0"/>
        <pt x="290" y="550" on="1"/>
        <pt x="269" y="550" on="0"/>
        <pt x="239" y="516" on="0"/>
        <pt x="239" y="486" on="1"/>
        <pt x="239" y="418" on="0"/>
        <pt x="408" y="244" on="0"/>
        <pt x="518" y="183" on="1"/>
        <pt x="610" y="133" on="0"/>
        <pt x="670" y="126" on="1"/>
        <pt x="630" y="-12" on="1"/>
        <pt x="525" y="6" on="0"/>
        <pt x="415" y="75" on="1"/>
        <pt x="283" y="157" on="0"/>
        <pt x="98" y="393" on="0"/>
        <pt x="98" y="486" on="1"/>
        <pt x="98" y="559" on="0"/>
        <pt x="202" y="662" on="0"/>
        <pt x="286" y="662" on="1"/>
        <pt x="364" y="662" on="0"/>
        <pt x="458" y="578" on="0"/>
        <pt x="458" y="508" on="1"/>
        <pt x="458" y="467" on="0"/>
        <pt x="417" y="395" on="0"/>
        <pt x="357" y="347" on="0"/>
        <pt x="285" y="298" on="0"/>
        <pt x="225" y="260" on="0"/>
        <pt x="184" y="211" on="0"/>
        <pt x="184" y="186" on="1"/>
        <pt x="184" y="156" on="0"/>
        <pt x="229" y="118" on="0"/>
        <pt x="268" y="118" on="1"/>
        <pt x="329" y="118" on="0"/>
        <pt x="398" y="180" on="1"/>
        <pt x="481" y="260" on="0"/>
        <pt x="512" y="374" on="1"/>
        <pt x="668" y="374" on="1"/>
        <pt x="622" y="222" on="0"/>
        <pt x="516" y="104" on="1"/>
        <pt x="410" y="-12" on="0"/>
      </contour>
    </TTGlyph>
    <TTGlyph name="ar1Dot.above" xMin="-86" yMin="-86" xMax="86" yMax="86">
      <contour>
        <pt x="-86" y="35" on="0"/>
        <pt x="-86" y="-35" on="0"/>
        <pt x="-35" y="-86" on="0"/>
        <pt x="35" y="-86" on="0"/>
        <pt x="86" y="-35" on="0"/>
        <pt x="86" y="35" on="0"/>
        <pt x="35" y="86" on="0"/>
        <pt x="-35" y="86" on="0"/>
      </contour>
    </TTGlyph>
    <TTGlyph name="ar1Dot.below" xMin="-86" yMin="-86" xMax="86" yMax="86">
      <contour>
        <pt x="-86" y="35" on="0"/>
        <pt x="-86" y="-35" on="0"/>
        <pt x="-35" y="-86" on="0"/>
        <pt x="35" y="-86" on="0"/>
        <pt x="86" y="-35" on="0"/>
        <pt x="86" y="35" on="0"/>
        <pt x="35" y="86" on="0"/>
        <pt x="-35" y="86" on="0"/>
      </contour>
    </TTGlyph>
    <TTGlyph name="ar2Dot.above" xMin="-206" yMin="-86" xMax="206" yMax="86">
      <contour>
        <pt x="-206" y="35" on="0"/>
        <pt x="-206" y="-35" on="0"/>
        <pt x="-155" y="-86" on="0"/>
        <pt x="-85" y="-86" on="0"/>
        <pt x="-34" y="-35" on="0"/>
        <pt x="-34" y="35" on="0"/>
        <pt x="-85" y="86" on="0"/>
        <pt x="-155" y="86" on="0"/>
      </contour>
      <contour>
        <pt x="34" y="35" on="0"/>
        <pt x="34" y="-35" on="0"/>
        <pt x="85" y="-86" on="0"/>
        <pt x="155" y="-86" on="0"/>
        <pt x="206" y="-35" on="0"/>
        <pt x="206" y="35" on="0"/>
        <pt x="155" y="86" on="0"/>
        <pt x="85" y="86" on="0"/>
      </contour>
    </TTGlyph>
    <TTGlyph name="ar2Dot.below" xMin="-206" yMin="-86" xMax="206" yMax="86">
      <contour>
        <pt x="-206" y="35" on="0"/>
        <pt x="-206" y="-35" on="0"/>
        <pt x="-155" y="-86" on="0"/>
        <pt x="-85" y="-86" on="0"/>
        <pt x="-34" y="-35" on="0"/>
        <pt x="-34" y="35" on="0"/>
        <pt x="-85" y="86" on="0"/>
        <pt x="-155" y="86" on="0"/>
      </contour>
      <contour>
        <pt x="34" y="35" on="0"/>
        <pt x="34" y="-35" on="0"/>
        <pt x="85" y="-86" on="0"/>
        <pt x="155" y="-86" on="0"/>
        <pt x="206" y="-35" on="0"/>
        <pt x="206" y="35" on="0"/>
        <pt x="155" y="86" on="0"/>
        <pt x="85" y="86" on="0"/>
      </contour>
    </TTGlyph>
    <TTGlyph name="ar3Dot.above" xMin="-206" yMin="-86" xMax="206" yMax="256">
      <contour>
        <pt x="-206" y="35" on="0"/>
        <pt x="-206" y="-35" on="0"/>
        <pt x="-155" y="-86" on="0"/>
        <pt x="-85" y="-86" on="0"/>
        <pt x="-34" y="-35" on="0"/>
        <pt x="-34" y="35" on="0"/>
        <pt x="-85" y="86" on="0"/>
        <pt x="-155" y="86" on="0"/>
      </contour>
      <contour>
        <pt x="34" y="35" on="0"/>
        <pt x="34" y="-35" on="0"/>
        <pt x="85" y="-86" on="0"/>
        <pt x="155" y="-86" on="0"/>
        <pt x="206" y="-35" on="0"/>
        <pt x="206" y="35" on="0"/>
        <pt x="155" y="86" on="0"/>
        <pt x="85" y="86" on="0"/>
      </contour>
      <contour>
        <pt x="-86" y="205" on="0"/>
        <pt x="-86" y="135" on="0"/>
        <pt x="-35" y="84" on="0"/>
        <pt x="35" y="84" on="0"/>
        <pt x="86" y="135" on="0"/>
        <pt x="86" y="205" on="0"/>
        <pt x="35" y="256" on="0"/>
        <pt x="-35" y="256" on="0"/>
      </contour>
    </TTGlyph>
    <TTGlyph name="ar3IDot.below" xMin="-206" yMin="-256" xMax="206" yMax="86">
      <contour>
        <pt x="-86" y="-135" on="0"/>
        <pt x="-86" y="-205" on="0"/>
        <pt x="-35" y="-256" on="0"/>
        <pt x="35" y="-256" on="0"/>
        <pt x="86" y="-205" on="0"/>
        <pt x="86" y="-135" on="0"/>
        <pt x="35" y="-84" on="0"/>
        <pt x="-35" y="-84" on="0"/>
      </contour>
      <contour>
        <pt x="-206" y="35" on="0"/>
        <pt x="-206" y="-35" on="0"/>
        <pt x="-155" y="-86" on="0"/>
        <pt x="-85" y="-86" on="0"/>
        <pt x="-34" y="-35" on="0"/>
        <pt x="-34" y="35" on="0"/>
        <pt x="-85" y="86" on="0"/>
        <pt x="-155" y="86" on="0"/>
      </contour>
      <contour>
        <pt x="34" y="35" on="0"/>
        <pt x="34" y="-35" on="0"/>
        <pt x="85" y="-86" on="0"/>
        <pt x="155" y="-86" on="0"/>
        <pt x="206" y="-35" on="0"/>
        <pt x="206" y="35" on="0"/>
        <pt x="155" y="86" on="0"/>
        <pt x="85" y="86" on="0"/>
      </contour>
    </TTGlyph>
    <TTGlyph name="arAin.fina" xMin="60" yMin="-272" xMax="496" yMax="435">
      <contour>
        <pt x="476" y="-100" on="1"/>
        <pt x="212" y="-100" on="1"/>
        <pt x="232" y="-120" on="1"/>
        <pt x="232" y="20" on="1"/>
        <pt x="212" y="0" on="1"/>
        <pt x="476" y="0" on="1"/>
        <pt x="476" y="172" on="1"/>
        <pt x="190" y="172" on="1"/>
        <pt x="135" y="172" on="0"/>
        <pt x="60" y="95" on="0"/>
        <pt x="60" y="40" on="1"/>
        <pt x="60" y="-139" on="1"/>
        <pt x="60" y="-193" on="0"/>
        <pt x="134" y="-272" on="0"/>
        <pt x="188" y="-272" on="1"/>
        <pt x="476" y="-272" on="1"/>
      </contour>
      <contour>
        <pt x="245" y="55" on="1"/>
        <pt x="371" y="171" on="1"/>
        <pt x="324" y="222" on="0"/>
        <pt x="314" y="256" on="1"/>
        <pt x="335" y="258" on="0"/>
        <pt x="366" y="249" on="1"/>
        <pt x="385" y="243" on="0"/>
        <pt x="404" y="235" on="1"/>
        <pt x="470" y="395" on="1"/>
        <pt x="442" y="408" on="0"/>
        <pt x="412" y="415" on="1"/>
        <pt x="354" y="435" on="0"/>
        <pt x="221" y="417" on="0"/>
        <pt x="180" y="373" on="1"/>
        <pt x="139" y="328" on="0"/>
        <pt x="140" y="211" on="0"/>
        <pt x="197" y="107" on="0"/>
      </contour>
      <contour>
        <pt x="496" y="172" on="1"/>
        <pt x="466" y="172" on="1"/>
        <pt x="466" y="0" on="1"/>
        <pt x="496" y="0" on="1"/>
      </contour>
    </TTGlyph>
    <TTGlyph name="arAin.init" xMin="0" yMin="0" xMax="488" yMax="537">
      <contour>
        <pt x="0" y="0" on="1"/>
        <pt x="488" y="0" on="1"/>
        <pt x="488" y="172" on="1"/>
        <pt x="0" y="172" on="1"/>
      </contour>
      <contour>
        <pt x="463" y="462" on="1"/>
        <pt x="214" y="537" on="0"/>
        <pt x="113" y="428" on="1"/>
        <pt x="75" y="387" on="0"/>
        <pt x="61" y="288" on="0"/>
        <pt x="106" y="189" on="0"/>
        <pt x="175" y="99" on="0"/>
        <pt x="223" y="54" on="1"/>
        <pt x="339" y="180" on="1"/>
        <pt x="292" y="223" on="0"/>
        <pt x="244" y="295" on="0"/>
        <pt x="242" y="312" on="1"/>
        <pt x="252" y="316" on="0"/>
        <pt x="292" y="320" on="0"/>
        <pt x="369" y="311" on="0"/>
        <pt x="413" y="298" on="1"/>
      </contour>
    </TTGlyph>
    <TTGlyph name="arAin.isol" xMin="60" yMin="-272" xMax="476" yMax="435">
      <contour>
        <pt x="476" y="-100" on="1"/>
        <pt x="212" y="-100" on="1"/>
        <pt x="232" y="-120" on="1"/>
        <pt x="232" y="20" on="1"/>
        <pt x="212" y="0" on="1"/>
        <pt x="476" y="0" on="1"/>
        <pt x="476" y="172" on="1"/>
        <pt x="190" y="172" on="1"/>
        <pt x="135" y="172" on="0"/>
        <pt x="60" y="95" on="0"/>
        <pt x="60" y="40" on="1"/>
        <pt x="60" y="-139" on="1"/>
        <pt x="60" y="-193" on="0"/>
        <pt x="134" y="-272" on="0"/>
        <pt x="188" y="-272" on="1"/>
        <pt x="476" y="-272" on="1"/>
      </contour>
      <contour>
        <pt x="245" y="55" on="1"/>
        <pt x="371" y="171" on="1"/>
        <pt x="324" y="222" on="0"/>
        <pt x="314" y="256" on="1"/>
        <pt x="335" y="258" on="0"/>
        <pt x="366" y="249" on="1"/>
        <pt x="385" y="243" on="0"/>
        <pt x="404" y="235" on="1"/>
        <pt x="470" y="395" on="1"/>
        <pt x="442" y="408" on="0"/>
        <pt x="412" y="415" on="1"/>
        <pt x="354" y="435" on="0"/>
        <pt x="221" y="417" on="0"/>
        <pt x="180" y="373" on="1"/>
        <pt x="139" y="328" on="0"/>
        <pt x="140" y="211" on="0"/>
        <pt x="197" y="107" on="0"/>
      </contour>
    </TTGlyph>
    <TTGlyph name="arAin.medi" xMin="0" yMin="0" xMax="508" yMax="537">
      <contour>
        <pt x="0" y="0" on="1"/>
        <pt x="488" y="0" on="1"/>
        <pt x="488" y="172" on="1"/>
        <pt x="0" y="172" on="1"/>
      </contour>
      <contour>
        <pt x="463" y="462" on="1"/>
        <pt x="214" y="537" on="0"/>
        <pt x="113" y="428" on="1"/>
        <pt x="75" y="387" on="0"/>
        <pt x="61" y="288" on="0"/>
        <pt x="106" y="189" on="0"/>
        <pt x="175" y="99" on="0"/>
        <pt x="223" y="54" on="1"/>
        <pt x="339" y="180" on="1"/>
        <pt x="292" y="223" on="0"/>
        <pt x="244" y="295" on="0"/>
        <pt x="242" y="312" on="1"/>
        <pt x="252" y="316" on="0"/>
        <pt x="292" y="320" on="0"/>
        <pt x="369" y="311" on="0"/>
        <pt x="413" y="298" on="1"/>
      </contour>
      <contour>
        <pt x="508" y="172" on="1"/>
        <pt x="478" y="172" on="1"/>
        <pt x="478" y="0" on="1"/>
        <pt x="508" y="0" on="1"/>
      </contour>
    </TTGlyph>
    <TTGlyph name="arAlef.fina" xMin="60" yMin="0" xMax="380" yMax="624">
      <contour>
        <pt x="350" y="172" on="1"/>
        <pt x="380" y="172" on="1"/>
        <pt x="380" y="0" on="1"/>
        <pt x="350" y="0" on="1"/>
      </contour>
      <contour>
        <pt x="232" y="624" on="1"/>
        <pt x="232" y="152" on="1"/>
        <pt x="212" y="172" on="1"/>
        <pt x="370" y="172" on="1"/>
        <pt x="370" y="0" on="1"/>
        <pt x="199" y="0" on="1"/>
        <pt x="142" y="0" on="0"/>
        <pt x="60" y="81" on="0"/>
        <pt x="60" y="138" on="1"/>
        <pt x="60" y="624" on="1"/>
      </contour>
    </TTGlyph>
    <TTGlyph name="arAlef.fina.1" xMin="81" yMin="124" xMax="363" yMax="688">
      <contour>
        <pt x="81" y="640" on="1"/>
        <pt x="197" y="241" on="1"/>
        <pt x="362" y="289" on="1"/>
        <pt x="246" y="688" on="1"/>
      </contour>
      <contour>
        <pt x="203" y="289" on="1"/>
        <pt x="204" y="252" on="0"/>
        <pt x="188" y="199" on="0"/>
        <pt x="149" y="161" on="0"/>
        <pt x="114" y="139" on="0"/>
        <pt x="83" y="124" on="1"/>
        <pt x="193" y="124" on="1"/>
        <pt x="348" y="166" on="0"/>
        <pt x="363" y="289" on="1"/>
      </contour>
    </TTGlyph>
    <TTGlyph name="arAlef.isol" xMin="60" yMin="1" xMax="232" yMax="624">
      <contour>
        <pt x="60" y="624" on="1"/>
        <pt x="60" y="1" on="1"/>
        <pt x="147" y="1" on="0"/>
        <pt x="232" y="112" on="0"/>
        <pt x="232" y="193" on="1"/>
        <pt x="232" y="624" on="1"/>
      </contour>
    </TTGlyph>
    <TTGlyph name="arBeh.fina" xMin="60" yMin="0" xMax="794" yMax="333">
      <contour>
        <pt x="622" y="333" on="1"/>
        <pt x="622" y="152" on="1"/>
        <pt x="642" y="172" on="1"/>
        <pt x="264" y="172" on="1"/>
        <pt x="253" y="172" on="0"/>
        <pt x="237" y="181" on="0"/>
        <pt x="232" y="190" on="0"/>
        <pt x="232" y="193" on="1"/>
        <pt x="232" y="333" on="1"/>
        <pt x="60" y="333" on="1"/>
        <pt x="60" y="193" on="1"/>
        <pt x="60" y="109" on="0"/>
        <pt x="184" y="0" on="0"/>
        <pt x="264" y="0" on="1"/>
        <pt x="656" y="0" on="1"/>
        <pt x="714" y="0" on="0"/>
        <pt x="794" y="80" on="0"/>
        <pt x="794" y="138" on="1"/>
        <pt x="794" y="333" on="1"/>
      </contour>
    </TTGlyph>
    <TTGlyph name="arBeh.init" xMin="0" yMin="0" xMax="428" yMax="410">
      <contour>
        <pt x="256" y="410" on="1"/>
        <pt x="256" y="152" on="1"/>
        <pt x="276" y="172" on="1"/>
        <pt x="0" y="172" on="1"/>
        <pt x="0" y="0" on="1"/>
        <pt x="289" y="0" on="1"/>
        <pt x="346" y="0" on="0"/>
        <pt x="428" y="81" on="0"/>
        <pt x="428" y="138" on="1"/>
        <pt x="428" y="410" on="1"/>
      </contour>
    </TTGlyph>
    <TTGlyph name="arBeh.isol" xMin="60" yMin="0" xMax="794" yMax="333">
      <contour>
        <pt x="622" y="333" on="1"/>
        <pt x="622" y="152" on="1"/>
        <pt x="642" y="172" on="1"/>
        <pt x="264" y="172" on="1"/>
        <pt x="253" y="172" on="0"/>
        <pt x="237" y="181" on="0"/>
        <pt x="232" y="190" on="0"/>
        <pt x="232" y="193" on="1"/>
        <pt x="232" y="333" on="1"/>
        <pt x="60" y="333" on="1"/>
        <pt x="60" y="193" on="1"/>
        <pt x="60" y="109" on="0"/>
        <pt x="184" y="0" on="0"/>
        <pt x="264" y="0" on="1"/>
        <pt x="656" y="0" on="1"/>
        <pt x="714" y="0" on="0"/>
        <pt x="794" y="80" on="0"/>
        <pt x="794" y="138" on="1"/>
        <pt x="794" y="333" on="1"/>
      </contour>
    </TTGlyph>
    <TTGlyph name="arBeh.medi" xMin="0" yMin="0" xMax="428" yMax="410">
      <contour>
        <pt x="256" y="410" on="1"/>
        <pt x="256" y="152" on="1"/>
        <pt x="276" y="172" on="1"/>
        <pt x="0" y="172" on="1"/>
        <pt x="0" y="0" on="1"/>
        <pt x="289" y="0" on="1"/>
        <pt x="346" y="0" on="0"/>
        <pt x="428" y="81" on="0"/>
        <pt x="428" y="138" on="1"/>
        <pt x="428" y="410" on="1"/>
      </contour>
    </TTGlyph>
    <TTGlyph name="arDal.fina" xMin="60" yMin="0" xMax="465" yMax="441">
      <contour>
        <pt x="152" y="287" on="1"/>
        <pt x="236" y="246" on="0"/>
        <pt x="268" y="200" on="1"/>
        <pt x="288" y="172" on="0"/>
        <pt x="260" y="172" on="1"/>
        <pt x="60" y="172" on="1"/>
        <pt x="60" y="0" on="1"/>
        <pt x="324" y="0" on="1"/>
        <pt x="384" y="0" on="0"/>
        <pt x="465" y="82" on="0"/>
        <pt x="462" y="142" on="1"/>
        <pt x="459" y="194" on="0"/>
        <pt x="421" y="286" on="0"/>
        <pt x="374" y="345" on="0"/>
        <pt x="301" y="401" on="0"/>
        <pt x="259" y="425" on="0"/>
        <pt x="228" y="441" on="1"/>
      </contour>
    </TTGlyph>
    <TTGlyph name="arDal.isol" xMin="60" yMin="0" xMax="465" yMax="441">
      <contour>
        <pt x="152" y="287" on="1"/>
        <pt x="236" y="246" on="0"/>
        <pt x="268" y="200" on="1"/>
        <pt x="288" y="172" on="0"/>
        <pt x="260" y="172" on="1"/>
        <pt x="60" y="172" on="1"/>
        <pt x="60" y="0" on="1"/>
        <pt x="324" y="0" on="1"/>
        <pt x="384" y="0" on="0"/>
        <pt x="465" y="82" on="0"/>
        <pt x="462" y="142" on="1"/>
        <pt x="459" y="194" on="0"/>
        <pt x="421" y="286" on="0"/>
        <pt x="374" y="345" on="0"/>
        <pt x="301" y="401" on="0"/>
        <pt x="259" y="425" on="0"/>
        <pt x="228" y="441" on="1"/>
      </contour>
    </TTGlyph>
    <TTGlyph name="arFeh.fina" xMin="60" yMin="-200" xMax="974" yMax="445">
      <contour>
        <pt x="974" y="172" on="1"/>
        <pt x="716" y="172" on="1"/>
        <pt x="646" y="172" on="0"/>
        <pt x="618" y="177" on="0"/>
        <pt x="608" y="194" on="1"/>
        <pt x="591" y="223" on="0"/>
        <pt x="617" y="252" on="1"/>
        <pt x="640" y="277" on="0"/>
        <pt x="672" y="266" on="1"/>
        <pt x="706" y="255" on="0"/>
        <pt x="706" y="214" on="1"/>
        <pt x="706" y="-48" on="1"/>
        <pt x="726" y="-28" on="1"/>
        <pt x="212" y="-28" on="1"/>
        <pt x="232" y="-48" on="1"/>
        <pt x="232" y="132" on="1"/>
        <pt x="60" y="132" on="1"/>
        <pt x="60" y="-20" on="1"/>
        <pt x="60" y="-98" on="0"/>
        <pt x="170" y="-200" on="0"/>
        <pt x="245" y="-200" on="1"/>
        <pt x="737" y="-200" on="1"/>
        <pt x="795" y="-200" on="0"/>
        <pt x="878" y="-118" on="0"/>
        <pt x="878" y="-60" on="1"/>
        <pt x="878" y="224" on="1"/>
        <pt x="878" y="291" on="0"/>
        <pt x="846" y="341" on="1"/>
        <pt x="811" y="396" on="0"/>
        <pt x="694" y="445" on="0"/>
        <pt x="577" y="433" on="0"/>
        <pt x="531" y="403" on="1"/>
        <pt x="488" y="375" on="0"/>
        <pt x="433" y="280" on="0"/>
        <pt x="425" y="164" on="0"/>
        <pt x="460" y="106" on="1"/>
        <pt x="478" y="75" on="0"/>
        <pt x="529" y="33" on="0"/>
        <pt x="572" y="12" on="0"/>
        <pt x="640" y="1" on="0"/>
        <pt x="679" y="0" on="0"/>
        <pt x="716" y="0" on="1"/>
        <pt x="974" y="0" on="1"/>
      </contour>
    </TTGlyph>
    <TTGlyph name="arFeh.init" xMin="0" yMin="0" xMax="493" yMax="645">
      <contour>
        <pt x="0" y="172" on="1"/>
        <pt x="0" y="0" on="1"/>
        <pt x="352" y="0" on="1"/>
        <pt x="410" y="0" on="0"/>
        <pt x="493" y="82" on="0"/>
        <pt x="493" y="140" on="1"/>
        <pt x="493" y="424" on="1"/>
        <pt x="493" y="491" on="0"/>
        <pt x="461" y="541" on="1"/>
        <pt x="426" y="596" on="0"/>
        <pt x="309" y="645" on="0"/>
        <pt x="192" y="633" on="0"/>
        <pt x="146" y="603" on="1"/>
        <pt x="103" y="575" on="0"/>
        <pt x="48" y="480" on="0"/>
        <pt x="40" y="364" on="0"/>
        <pt x="75" y="306" on="1"/>
        <pt x="105" y="257" on="0"/>
        <pt x="206" y="214" on="0"/>
        <pt x="307" y="219" on="0"/>
        <pt x="361" y="220" on="1"/>
        <pt x="361" y="357" on="1"/>
        <pt x="311" y="349" on="0"/>
        <pt x="250" y="364" on="0"/>
        <pt x="232" y="378" on="0"/>
        <pt x="223" y="394" on="1"/>
        <pt x="206" y="423" on="0"/>
        <pt x="232" y="452" on="1"/>
        <pt x="255" y="477" on="0"/>
        <pt x="287" y="466" on="1"/>
        <pt x="321" y="455" on="0"/>
        <pt x="321" y="414" on="1"/>
        <pt x="321" y="152" on="1"/>
        <pt x="341" y="172" on="1"/>
      </contour>
    </TTGlyph>
    <TTGlyph name="arFeh.isol" xMin="60" yMin="-199" xMax="878" yMax="446">
      <contour>
        <pt x="746" y="21" on="1"/>
        <pt x="746" y="158" on="1"/>
        <pt x="696" y="150" on="0"/>
        <pt x="635" y="165" on="0"/>
        <pt x="617" y="179" on="0"/>
        <pt x="608" y="195" on="1"/>
        <pt x="591" y="224" on="0"/>
        <pt x="617" y="253" on="1"/>
        <pt x="640" y="278" on="0"/>
        <pt x="672" y="267" on="1"/>
        <pt x="706" y="256" on="0"/>
        <pt x="706" y="215" on="1"/>
        <pt x="706" y="-47" on="1"/>
        <pt x="726" y="-27" on="1"/>
        <pt x="212" y="-27" on="1"/>
        <pt x="232" y="-47" on="1"/>
        <pt x="232" y="133" on="1"/>
        <pt x="60" y="133" on="1"/>
        <pt x="60" y="-19" on="1"/>
        <pt x="60" y="-97" on="0"/>
        <pt x="170" y="-199" on="0"/>
        <pt x="245" y="-199" on="1"/>
        <pt x="737" y="-199" on="1"/>
        <pt x="795" y="-199" on="0"/>
        <pt x="878" y="-117" on="0"/>
        <pt x="878" y="-59" on="1"/>
        <pt x="878" y="225" on="1"/>
        <pt x="878" y="292" on="0"/>
        <pt x="846" y="342" on="1"/>
        <pt x="811" y="397" on="0"/>
        <pt x="694" y="446" on="0"/>
        <pt x="577" y="434" on="0"/>
        <pt x="531" y="404" on="1"/>
        <pt x="488" y="376" on="0"/>
        <pt x="433" y="281" on="0"/>
        <pt x="425" y="165" on="0"/>
        <pt x="460" y="107" on="1"/>
        <pt x="490" y="58" on="0"/>
        <pt x="591" y="15" on="0"/>
        <pt x="692" y="20" on="0"/>
      </contour>
    </TTGlyph>
    <TTGlyph name="arFeh.medi" xMin="0" yMin="0" xMax="493" yMax="645">
      <contour>
        <pt x="0" y="172" on="1"/>
        <pt x="0" y="0" on="1"/>
        <pt x="352" y="0" on="1"/>
        <pt x="410" y="0" on="0"/>
        <pt x="493" y="82" on="0"/>
        <pt x="493" y="140" on="1"/>
        <pt x="493" y="424" on="1"/>
        <pt x="493" y="491" on="0"/>
        <pt x="461" y="541" on="1"/>
        <pt x="426" y="596" on="0"/>
        <pt x="309" y="645" on="0"/>
        <pt x="192" y="633" on="0"/>
        <pt x="146" y="603" on="1"/>
        <pt x="103" y="575" on="0"/>
        <pt x="48" y="480" on="0"/>
        <pt x="40" y="364" on="0"/>
        <pt x="75" y="306" on="1"/>
        <pt x="105" y="257" on="0"/>
        <pt x="206" y="214" on="0"/>
        <pt x="307" y="219" on="0"/>
        <pt x="361" y="220" on="1"/>
        <pt x="361" y="357" on="1"/>
        <pt x="311" y="349" on="0"/>
        <pt x="250" y="364" on="0"/>
        <pt x="232" y="378" on="0"/>
        <pt x="223" y="394" on="1"/>
        <pt x="206" y="423" on="0"/>
        <pt x="232" y="452" on="1"/>
        <pt x="255" y="477" on="0"/>
        <pt x="287" y="466" on="1"/>
        <pt x="321" y="455" on="0"/>
        <pt x="321" y="414" on="1"/>
        <pt x="321" y="152" on="1"/>
        <pt x="341" y="172" on="1"/>
      </contour>
    </TTGlyph>
    <TTGlyph name="arGaf.above" xMin="-186" yMin="-75" xMax="186" yMax="127">
      <contour>
        <pt x="-133" y="-75" on="1"/>
        <pt x="-78" y="-41" on="0"/>
        <pt x="158" y="26" on="0"/>
        <pt x="186" y="27" on="1"/>
        <pt x="183" y="127" on="1"/>
        <pt x="132" y="126" on="0"/>
        <pt x="-110" y="58" on="0"/>
        <pt x="-186" y="11" on="1"/>
      </contour>
    </TTGlyph>
    <TTGlyph name="arGaf.fina" xMin="60" yMin="0" xMax="806" yMax="739">
      <contour>
        <pt x="222" y="172" on="1"/>
        <pt x="60" y="172" on="1"/>
        <pt x="204" y="0" on="1"/>
        <pt x="366" y="0" on="1"/>
      </contour>
      <contour>
        <pt x="760" y="739" on="1"/>
        <pt x="700" y="737" on="0"/>
        <pt x="457" y="669" on="0"/>
        <pt x="374" y="618" on="1"/>
        <pt x="335" y="594" on="0"/>
        <pt x="307" y="511" on="0"/>
        <pt x="329" y="425" on="0"/>
        <pt x="360" y="394" on="1"/>
        <pt x="589" y="160" on="1"/>
        <pt x="597" y="172" on="1"/>
        <pt x="204" y="172" on="1"/>
        <pt x="204" y="0" on="1"/>
        <pt x="666" y="0" on="1"/>
        <pt x="710" y="0" on="0"/>
        <pt x="777" y="47" on="0"/>
        <pt x="806" y="115" on="0"/>
        <pt x="793" y="197" on="0"/>
        <pt x="762" y="228" on="1"/>
        <pt x="489" y="508" on="1"/>
        <pt x="483" y="482" on="1"/>
        <pt x="540" y="511" on="0"/>
        <pt x="736" y="564" on="0"/>
        <pt x="764" y="567" on="1"/>
      </contour>
    </TTGlyph>
    <TTGlyph name="arGaf.isol" xMin="60" yMin="0" xMax="806" yMax="739">
      <contour>
        <pt x="222" y="172" on="1"/>
        <pt x="60" y="172" on="1"/>
        <pt x="204" y="0" on="1"/>
        <pt x="366" y="0" on="1"/>
      </contour>
      <contour>
        <pt x="760" y="739" on="1"/>
        <pt x="700" y="737" on="0"/>
        <pt x="457" y="669" on="0"/>
        <pt x="374" y="618" on="1"/>
        <pt x="335" y="594" on="0"/>
        <pt x="307" y="511" on="0"/>
        <pt x="329" y="425" on="0"/>
        <pt x="360" y="394" on="1"/>
        <pt x="589" y="160" on="1"/>
        <pt x="597" y="172" on="1"/>
        <pt x="204" y="172" on="1"/>
        <pt x="204" y="0" on="1"/>
        <pt x="666" y="0" on="1"/>
        <pt x="710" y="0" on="0"/>
        <pt x="777" y="47" on="0"/>
        <pt x="806" y="115" on="0"/>
        <pt x="793" y="197" on="0"/>
        <pt x="762" y="228" on="1"/>
        <pt x="489" y="508" on="1"/>
        <pt x="483" y="482" on="1"/>
        <pt x="540" y="511" on="0"/>
        <pt x="736" y="564" on="0"/>
        <pt x="764" y="567" on="1"/>
      </contour>
    </TTGlyph>
    <TTGlyph name="arHah.fina" xMin="60" yMin="-362" xMax="598" yMax="463">
      <contour>
        <pt x="471" y="-190" on="1"/>
        <pt x="212" y="-190" on="1"/>
        <pt x="232" y="-210" on="1"/>
        <pt x="232" y="20" on="1"/>
        <pt x="212" y="0" on="1"/>
        <pt x="463" y="0" on="1"/>
        <pt x="505" y="0" on="0"/>
        <pt x="563" y="32" on="0"/>
        <pt x="586" y="78" on="0"/>
        <pt x="598" y="124" on="0"/>
        <pt x="597" y="140" on="1"/>
        <pt x="596" y="156" on="1"/>
        <pt x="596" y="242" on="1"/>
        <pt x="592" y="242" on="0"/>
        <pt x="555" y="240" on="0"/>
        <pt x="537" y="242" on="0"/>
        <pt x="506" y="248" on="0"/>
        <pt x="480" y="265" on="0"/>
        <pt x="467" y="279" on="1"/>
        <pt x="464" y="283" on="0"/>
        <pt x="430" y="325" on="0"/>
        <pt x="397" y="360" on="0"/>
        <pt x="346" y="407" on="0"/>
        <pt x="278" y="448" on="0"/>
        <pt x="239" y="463" on="1"/>
        <pt x="179" y="303" on="1"/>
        <pt x="210" y="292" on="0"/>
        <pt x="259" y="257" on="0"/>
        <pt x="288" y="226" on="0"/>
        <pt x="307" y="202" on="1"/>
        <pt x="312" y="196" on="0"/>
        <pt x="314" y="193" on="1"/>
        <pt x="332" y="172" on="1"/>
        <pt x="238" y="172" on="1"/>
        <pt x="160" y="172" on="0"/>
        <pt x="60" y="61" on="0"/>
        <pt x="60" y="-10" on="1"/>
        <pt x="60" y="-195" on="1"/>
        <pt x="60" y="-265" on="0"/>
        <pt x="160" y="-362" on="0"/>
        <pt x="231" y="-362" on="1"/>
        <pt x="471" y="-362" on="1"/>
      </contour>
    </TTGlyph>
    <TTGlyph name="arHah.fina2" xMin="60" yMin="-362" xMax="598" yMax="463">
      <contour>
        <pt x="232" y="-362" on="1"/>
        <pt x="232" y="20" on="1"/>
        <pt x="212" y="0" on="1"/>
        <pt x="463" y="0" on="1"/>
        <pt x="505" y="0" on="0"/>
        <pt x="563" y="32" on="0"/>
        <pt x="586" y="78" on="0"/>
        <pt x="598" y="124" on="0"/>
        <pt x="597" y="140" on="1"/>
        <pt x="596" y="156" on="1"/>
        <pt x="596" y="242" on="1"/>
        <pt x="592" y="242" on="0"/>
        <pt x="555" y="240" on="0"/>
        <pt x="537" y="242" on="0"/>
        <pt x="506" y="248" on="0"/>
        <pt x="480" y="265" on="0"/>
        <pt x="467" y="279" on="1"/>
        <pt x="464" y="283" on="0"/>
        <pt x="430" y="325" on="0"/>
        <pt x="397" y="360" on="0"/>
        <pt x="346" y="407" on="0"/>
        <pt x="278" y="448" on="0"/>
        <pt x="239" y="463" on="1"/>
        <pt x="179" y="303" on="1"/>
        <pt x="210" y="292" on="0"/>
        <pt x="259" y="257" on="0"/>
        <pt x="288" y="226" on="0"/>
        <pt x="307" y="202" on="1"/>
        <pt x="312" y="196" on="0"/>
        <pt x="314" y="193" on="1"/>
        <pt x="332" y="172" on="1"/>
        <pt x="238" y="172" on="1"/>
        <pt x="160" y="172" on="0"/>
        <pt x="60" y="61" on="0"/>
        <pt x="60" y="-10" on="1"/>
        <pt x="60" y="-195" on="1"/>
        <pt x="60" y="-265" on="0"/>
        <pt x="160" y="-362" on="0"/>
      </contour>
    </TTGlyph>
    <TTGlyph name="arHah.init" xMin="0" yMin="0" xMax="627" yMax="486">
      <contour>
        <pt x="0" y="0" on="1"/>
        <pt x="493" y="0" on="1"/>
        <pt x="537" y="0" on="0"/>
        <pt x="598" y="41" on="0"/>
        <pt x="620" y="101" on="0"/>
        <pt x="627" y="145" on="0"/>
        <pt x="626" y="160" on="1"/>
        <pt x="620" y="240" on="1"/>
        <pt x="612" y="240" on="0"/>
        <pt x="577" y="237" on="0"/>
        <pt x="566" y="237" on="0"/>
        <pt x="541" y="240" on="0"/>
        <pt x="525" y="248" on="0"/>
        <pt x="500" y="264" on="0"/>
        <pt x="486" y="276" on="1"/>
        <pt x="475" y="286" on="0"/>
        <pt x="422" y="339" on="0"/>
        <pt x="366" y="390" on="0"/>
        <pt x="338" y="410" on="1"/>
        <pt x="270" y="458" on="0"/>
        <pt x="157" y="486" on="1"/>
        <pt x="117" y="318" on="1"/>
        <pt x="197" y="298" on="0"/>
        <pt x="238" y="270" on="1"/>
        <pt x="258" y="256" on="0"/>
        <pt x="328" y="188" on="1"/>
        <pt x="334" y="182" on="0"/>
        <pt x="356" y="161" on="0"/>
        <pt x="361" y="156" on="1"/>
        <pt x="365" y="172" on="1"/>
        <pt x="0" y="172" on="1"/>
      </contour>
    </TTGlyph>
    <TTGlyph name="arHah.isol" xMin="60" yMin="-362" xMax="598" yMax="463">
      <contour>
        <pt x="471" y="-190" on="1"/>
        <pt x="212" y="-190" on="1"/>
        <pt x="232" y="-210" on="1"/>
        <pt x="232" y="20" on="1"/>
        <pt x="212" y="0" on="1"/>
        <pt x="463" y="0" on="1"/>
        <pt x="505" y="0" on="0"/>
        <pt x="563" y="32" on="0"/>
        <pt x="586" y="78" on="0"/>
        <pt x="598" y="124" on="0"/>
        <pt x="597" y="140" on="1"/>
        <pt x="596" y="156" on="1"/>
        <pt x="596" y="242" on="1"/>
        <pt x="592" y="242" on="0"/>
        <pt x="555" y="240" on="0"/>
        <pt x="537" y="242" on="0"/>
        <pt x="506" y="248" on="0"/>
        <pt x="480" y="265" on="0"/>
        <pt x="467" y="279" on="1"/>
        <pt x="464" y="283" on="0"/>
        <pt x="430" y="325" on="0"/>
        <pt x="397" y="360" on="0"/>
        <pt x="346" y="407" on="0"/>
        <pt x="278" y="448" on="0"/>
        <pt x="239" y="463" on="1"/>
        <pt x="179" y="303" on="1"/>
        <pt x="210" y="292" on="0"/>
        <pt x="259" y="257" on="0"/>
        <pt x="288" y="226" on="0"/>
        <pt x="307" y="202" on="1"/>
        <pt x="312" y="196" on="0"/>
        <pt x="314" y="193" on="1"/>
        <pt x="332" y="172" on="1"/>
        <pt x="238" y="172" on="1"/>
        <pt x="160" y="172" on="0"/>
        <pt x="60" y="61" on="0"/>
        <pt x="60" y="-10" on="1"/>
        <pt x="60" y="-195" on="1"/>
        <pt x="60" y="-265" on="0"/>
        <pt x="160" y="-362" on="0"/>
        <pt x="231" y="-362" on="1"/>
        <pt x="471" y="-362" on="1"/>
      </contour>
    </TTGlyph>
    <TTGlyph name="arHah.isol2" xMin="60" yMin="-362" xMax="598" yMax="463">
      <contour>
        <pt x="232" y="-362" on="1"/>
        <pt x="232" y="20" on="1"/>
        <pt x="212" y="0" on="1"/>
        <pt x="463" y="0" on="1"/>
        <pt x="505" y="0" on="0"/>
        <pt x="563" y="32" on="0"/>
        <pt x="586" y="78" on="0"/>
        <pt x="598" y="124" on="0"/>
        <pt x="597" y="140" on="1"/>
        <pt x="596" y="156" on="1"/>
        <pt x="596" y="242" on="1"/>
        <pt x="592" y="242" on="0"/>
        <pt x="555" y="240" on="0"/>
        <pt x="537" y="242" on="0"/>
        <pt x="506" y="248" on="0"/>
        <pt x="480" y="265" on="0"/>
        <pt x="467" y="279" on="1"/>
        <pt x="464" y="283" on="0"/>
        <pt x="430" y="325" on="0"/>
        <pt x="397" y="360" on="0"/>
        <pt x="346" y="407" on="0"/>
        <pt x="278" y="448" on="0"/>
        <pt x="239" y="463" on="1"/>
        <pt x="179" y="303" on="1"/>
        <pt x="210" y="292" on="0"/>
        <pt x="259" y="257" on="0"/>
        <pt x="288" y="226" on="0"/>
        <pt x="307" y="202" on="1"/>
        <pt x="312" y="196" on="0"/>
        <pt x="314" y="193" on="1"/>
        <pt x="332" y="172" on="1"/>
        <pt x="238" y="172" on="1"/>
        <pt x="160" y="172" on="0"/>
        <pt x="60" y="61" on="0"/>
        <pt x="60" y="-10" on="1"/>
        <pt x="60" y="-195" on="1"/>
        <pt x="60" y="-265" on="0"/>
        <pt x="160" y="-362" on="0"/>
      </contour>
    </TTGlyph>
    <TTGlyph name="arHah.medi" xMin="0" yMin="0" xMax="627" yMax="486">
      <contour>
        <pt x="0" y="0" on="1"/>
        <pt x="493" y="0" on="1"/>
        <pt x="537" y="0" on="0"/>
        <pt x="598" y="41" on="0"/>
        <pt x="620" y="101" on="0"/>
        <pt x="627" y="145" on="0"/>
        <pt x="626" y="160" on="1"/>
        <pt x="620" y="240" on="1"/>
        <pt x="612" y="240" on="0"/>
        <pt x="577" y="237" on="0"/>
        <pt x="566" y="237" on="0"/>
        <pt x="541" y="240" on="0"/>
        <pt x="525" y="248" on="0"/>
        <pt x="500" y="264" on="0"/>
        <pt x="486" y="276" on="1"/>
        <pt x="475" y="286" on="0"/>
        <pt x="422" y="339" on="0"/>
        <pt x="366" y="390" on="0"/>
        <pt x="338" y="410" on="1"/>
        <pt x="270" y="458" on="0"/>
        <pt x="157" y="486" on="1"/>
        <pt x="117" y="318" on="1"/>
        <pt x="197" y="298" on="0"/>
        <pt x="238" y="270" on="1"/>
        <pt x="258" y="256" on="0"/>
        <pt x="328" y="188" on="1"/>
        <pt x="334" y="182" on="0"/>
        <pt x="356" y="161" on="0"/>
        <pt x="361" y="156" on="1"/>
        <pt x="365" y="172" on="1"/>
        <pt x="0" y="172" on="1"/>
      </contour>
    </TTGlyph>
    <TTGlyph name="arHeh.fina" xMin="56" yMin="0" xMax="509" yMax="461">
      <contour>
        <pt x="224" y="154" on="1"/>
        <pt x="231" y="161" on="0"/>
        <pt x="281" y="206" on="0"/>
        <pt x="292" y="216" on="0"/>
        <pt x="330" y="252" on="0"/>
        <pt x="339" y="264" on="0"/>
        <pt x="367" y="296" on="0"/>
        <pt x="378" y="315" on="0"/>
        <pt x="398" y="347" on="0"/>
        <pt x="412" y="378" on="0"/>
        <pt x="420" y="397" on="1"/>
        <pt x="260" y="461" on="1"/>
        <pt x="247" y="431" on="0"/>
        <pt x="213" y="381" on="0"/>
        <pt x="189" y="357" on="0"/>
        <pt x="126" y="299" on="0"/>
        <pt x="109" y="282" on="1"/>
        <pt x="56" y="225" on="0"/>
        <pt x="64" y="89" on="0"/>
        <pt x="113" y="45" on="1"/>
        <pt x="163" y="0" on="0"/>
        <pt x="231" y="0" on="1"/>
        <pt x="371" y="0" on="1"/>
        <pt x="428" y="0" on="0"/>
        <pt x="509" y="81" on="0"/>
        <pt x="509" y="138" on="1"/>
        <pt x="509" y="397" on="1"/>
        <pt x="337" y="397" on="1"/>
        <pt x="337" y="152" on="1"/>
        <pt x="357" y="172" on="1"/>
        <pt x="224" y="172" on="1"/>
        <pt x="224" y="164" on="1"/>
      </contour>
    </TTGlyph>
    <TTGlyph name="arHeh.fina2" xMin="120" yMin="-108" xMax="498" yMax="172">
      <contour>
        <pt x="292" y="-108" on="1"/>
        <pt x="292" y="20" on="1"/>
        <pt x="272" y="0" on="1"/>
        <pt x="498" y="0" on="1"/>
        <pt x="498" y="172" on="1"/>
        <pt x="259" y="172" on="1"/>
        <pt x="202" y="172" on="0"/>
        <pt x="120" y="91" on="0"/>
        <pt x="120" y="34" on="1"/>
        <pt x="120" y="-108" on="1"/>
      </contour>
    </TTGlyph>
    <TTGlyph name="arHeh.init" xMin="0" yMin="0" xMax="723" yMax="622">
      <contour>
        <pt x="269" y="450" on="1"/>
        <pt x="387" y="450" on="0"/>
        <pt x="543" y="268" on="0"/>
        <pt x="552" y="152" on="1"/>
        <pt x="568" y="172" on="1"/>
        <pt x="0" y="172" on="1"/>
        <pt x="0" y="0" on="1"/>
        <pt x="584" y="0" on="1"/>
        <pt x="640" y="0" on="0"/>
        <pt x="721" y="78" on="0"/>
        <pt x="722" y="137" on="1"/>
        <pt x="723" y="194" on="0"/>
        <pt x="691" y="321" on="0"/>
        <pt x="618" y="451" on="0"/>
        <pt x="515" y="556" on="0"/>
        <pt x="359" y="622" on="0"/>
        <pt x="269" y="622" on="1"/>
      </contour>
      <contour>
        <pt x="323" y="0" on="1"/>
        <pt x="369" y="1" on="0"/>
        <pt x="453" y="43" on="0"/>
        <pt x="478" y="85" on="1"/>
        <pt x="534" y="180" on="0"/>
        <pt x="462" y="290" on="1"/>
        <pt x="408" y="373" on="0"/>
        <pt x="239" y="428" on="0"/>
        <pt x="162" y="381" on="1"/>
        <pt x="127" y="358" on="0"/>
        <pt x="86" y="278" on="0"/>
        <pt x="86" y="233" on="1"/>
        <pt x="86" y="136" on="1"/>
        <pt x="258" y="136" on="1"/>
        <pt x="258" y="230" on="1"/>
        <pt x="258" y="234" on="0"/>
        <pt x="261" y="238" on="0"/>
        <pt x="265" y="237" on="1"/>
        <pt x="284" y="235" on="0"/>
        <pt x="304" y="214" on="1"/>
        <pt x="317" y="199" on="0"/>
        <pt x="326" y="176" on="1"/>
        <pt x="327" y="174" on="0"/>
        <pt x="324" y="172" on="0"/>
        <pt x="321" y="172" on="1"/>
      </contour>
    </TTGlyph>
    <TTGlyph name="arHeh.init2" xMin="0" yMin="-306" xMax="378" yMax="310">
      <contour>
        <pt x="302" y="-151" on="1"/>
        <pt x="284" y="-173" on="0"/>
        <pt x="240" y="-158" on="0"/>
        <pt x="247" y="-122" on="1"/>
        <pt x="254" y="-85" on="0"/>
        <pt x="305" y="7" on="0"/>
        <pt x="335" y="39" on="1"/>
        <pt x="265" y="97" on="1"/>
        <pt x="213" y="41" on="0"/>
        <pt x="137" y="-97" on="0"/>
        <pt x="125" y="-160" on="1"/>
        <pt x="110" y="-240" on="0"/>
        <pt x="161" y="-279" on="1"/>
        <pt x="197" y="-306" on="0"/>
        <pt x="281" y="-291" on="0"/>
        <pt x="353" y="-240" on="0"/>
        <pt x="374" y="-207" on="1"/>
      </contour>
      <contour>
        <pt x="206" y="310" on="1"/>
        <pt x="206" y="152" on="1"/>
        <pt x="226" y="172" on="1"/>
        <pt x="0" y="172" on="1"/>
        <pt x="0" y="0" on="1"/>
        <pt x="239" y="0" on="1"/>
        <pt x="296" y="0" on="0"/>
        <pt x="378" y="81" on="0"/>
        <pt x="378" y="138" on="1"/>
        <pt x="378" y="310" on="1"/>
      </contour>
    </TTGlyph>
    <TTGlyph name="arHeh.isol" xMin="56" yMin="0" xMax="509" yMax="461">
      <contour>
        <pt x="224" y="154" on="1"/>
        <pt x="231" y="161" on="0"/>
        <pt x="281" y="206" on="0"/>
        <pt x="292" y="216" on="0"/>
        <pt x="330" y="252" on="0"/>
        <pt x="339" y="264" on="0"/>
        <pt x="367" y="296" on="0"/>
        <pt x="378" y="315" on="0"/>
        <pt x="398" y="347" on="0"/>
        <pt x="412" y="378" on="0"/>
        <pt x="420" y="397" on="1"/>
        <pt x="260" y="461" on="1"/>
        <pt x="247" y="431" on="0"/>
        <pt x="213" y="381" on="0"/>
        <pt x="189" y="357" on="0"/>
        <pt x="126" y="299" on="0"/>
        <pt x="109" y="282" on="1"/>
        <pt x="56" y="225" on="0"/>
        <pt x="64" y="89" on="0"/>
        <pt x="113" y="45" on="1"/>
        <pt x="163" y="0" on="0"/>
        <pt x="231" y="0" on="1"/>
        <pt x="371" y="0" on="1"/>
        <pt x="428" y="0" on="0"/>
        <pt x="509" y="81" on="0"/>
        <pt x="509" y="138" on="1"/>
        <pt x="509" y="397" on="1"/>
        <pt x="337" y="397" on="1"/>
        <pt x="337" y="152" on="1"/>
        <pt x="357" y="172" on="1"/>
        <pt x="224" y="172" on="1"/>
        <pt x="224" y="164" on="1"/>
      </contour>
    </TTGlyph>
    <TTGlyph name="arHeh.medi" xMin="0" yMin="0" xMax="723" yMax="622">
      <contour>
        <pt x="269" y="450" on="1"/>
        <pt x="387" y="450" on="0"/>
        <pt x="543" y="268" on="0"/>
        <pt x="552" y="152" on="1"/>
        <pt x="568" y="172" on="1"/>
        <pt x="0" y="172" on="1"/>
        <pt x="0" y="0" on="1"/>
        <pt x="584" y="0" on="1"/>
        <pt x="640" y="0" on="0"/>
        <pt x="721" y="78" on="0"/>
        <pt x="722" y="137" on="1"/>
        <pt x="723" y="194" on="0"/>
        <pt x="691" y="321" on="0"/>
        <pt x="618" y="451" on="0"/>
        <pt x="515" y="556" on="0"/>
        <pt x="359" y="622" on="0"/>
        <pt x="269" y="622" on="1"/>
      </contour>
      <contour>
        <pt x="323" y="0" on="1"/>
        <pt x="369" y="1" on="0"/>
        <pt x="453" y="43" on="0"/>
        <pt x="478" y="85" on="1"/>
        <pt x="534" y="180" on="0"/>
        <pt x="462" y="290" on="1"/>
        <pt x="408" y="373" on="0"/>
        <pt x="239" y="428" on="0"/>
        <pt x="162" y="381" on="1"/>
        <pt x="127" y="358" on="0"/>
        <pt x="86" y="278" on="0"/>
        <pt x="86" y="233" on="1"/>
        <pt x="86" y="136" on="1"/>
        <pt x="258" y="136" on="1"/>
        <pt x="258" y="230" on="1"/>
        <pt x="258" y="234" on="0"/>
        <pt x="261" y="238" on="0"/>
        <pt x="265" y="237" on="1"/>
        <pt x="284" y="235" on="0"/>
        <pt x="304" y="214" on="1"/>
        <pt x="317" y="199" on="0"/>
        <pt x="326" y="176" on="1"/>
        <pt x="327" y="174" on="0"/>
        <pt x="324" y="172" on="0"/>
        <pt x="321" y="172" on="1"/>
      </contour>
    </TTGlyph>
    <TTGlyph name="arHeh.medi2" xMin="0" yMin="-245" xMax="673" yMax="172">
      <contour>
        <pt x="547" y="-206" on="1"/>
        <pt x="547" y="20" on="1"/>
        <pt x="527" y="0" on="1"/>
        <pt x="673" y="0" on="1"/>
        <pt x="673" y="172" on="1"/>
        <pt x="513" y="172" on="1"/>
        <pt x="456" y="172" on="0"/>
        <pt x="375" y="91" on="0"/>
        <pt x="375" y="34" on="1"/>
        <pt x="375" y="-206" on="1"/>
      </contour>
      <contour>
        <pt x="402" y="-213" on="1"/>
        <pt x="394" y="-169" on="0"/>
        <pt x="365" y="-102" on="0"/>
        <pt x="340" y="-70" on="0"/>
        <pt x="304" y="-28" on="0"/>
        <pt x="295" y="-14" on="1"/>
        <pt x="291" y="-7" on="0"/>
        <pt x="275" y="61" on="0"/>
        <pt x="254" y="121" on="0"/>
        <pt x="191" y="172" on="0"/>
        <pt x="142" y="172" on="1"/>
        <pt x="0" y="172" on="1"/>
        <pt x="0" y="0" on="1"/>
        <pt x="98" y="0" on="1"/>
        <pt x="109" y="0" on="0"/>
        <pt x="123" y="-33" on="0"/>
        <pt x="139" y="-88" on="0"/>
        <pt x="149" y="-104" on="1"/>
        <pt x="170" y="-138" on="0"/>
        <pt x="211" y="-181" on="0"/>
        <pt x="227" y="-209" on="0"/>
        <pt x="234" y="-245" on="1"/>
      </contour>
    </TTGlyph>
    <TTGlyph name="arKaf.above" xMin="-96" yMin="1" xMax="96" yMax="212">
      <contour>
        <pt x="96" y="212" on="1"/>
        <pt x="-4" y="212" on="1"/>
        <pt x="-37" y="212" on="0"/>
        <pt x="-57" y="192" on="1"/>
        <pt x="-69" y="180" on="0"/>
        <pt x="-70" y="145" on="0"/>
        <pt x="-65" y="134" on="1"/>
        <pt x="-60" y="123" on="1"/>
        <pt x="-49" y="101" on="1"/>
        <pt x="-96" y="101" on="1"/>
        <pt x="-96" y="1" on="1"/>
        <pt x="14" y="1" on="1"/>
        <pt x="24" y="1" on="0"/>
        <pt x="58" y="14" on="0"/>
        <pt x="68" y="29" on="1"/>
        <pt x="83" y="52" on="0"/>
        <pt x="67" y="88" on="1"/>
        <pt x="56" y="112" on="1"/>
        <pt x="96" y="112" on="1"/>
      </contour>
    </TTGlyph>
    <TTGlyph name="arKaf.fina" xMin="60" yMin="0" xMax="666" yMax="624">
      <contour>
        <pt x="222" y="172" on="1"/>
        <pt x="60" y="172" on="1"/>
        <pt x="204" y="0" on="1"/>
        <pt x="366" y="0" on="1"/>
      </contour>
      <contour>
        <pt x="494" y="624" on="1"/>
        <pt x="494" y="152" on="1"/>
        <pt x="514" y="172" on="1"/>
        <pt x="204" y="172" on="1"/>
        <pt x="204" y="0" on="1"/>
        <pt x="527" y="0" on="1"/>
        <pt x="584" y="0" on="0"/>
        <pt x="666" y="81" on="0"/>
        <pt x="666" y="138" on="1"/>
        <pt x="666" y="624" on="1"/>
      </contour>
    </TTGlyph>
    <TTGlyph name="arKaf.init" xMin="0" yMin="0" xMax="602" yMax="739">
      <contour>
        <pt x="556" y="739" on="1"/>
        <pt x="496" y="737" on="0"/>
        <pt x="253" y="669" on="0"/>
        <pt x="170" y="618" on="1"/>
        <pt x="131" y="594" on="0"/>
        <pt x="103" y="511" on="0"/>
        <pt x="125" y="425" on="0"/>
        <pt x="156" y="394" on="1"/>
        <pt x="385" y="160" on="1"/>
        <pt x="393" y="172" on="1"/>
        <pt x="0" y="172" on="1"/>
        <pt x="0" y="0" on="1"/>
        <pt x="462" y="0" on="1"/>
        <pt x="506" y="0" on="0"/>
        <pt x="573" y="47" on="0"/>
        <pt x="602" y="115" on="0"/>
        <pt x="589" y="197" on="0"/>
        <pt x="558" y="228" on="1"/>
        <pt x="285" y="508" on="1"/>
        <pt x="279" y="482" on="1"/>
        <pt x="336" y="511" on="0"/>
        <pt x="532" y="564" on="0"/>
        <pt x="560" y="567" on="1"/>
      </contour>
    </TTGlyph>
    <TTGlyph name="arKaf.isol" xMin="60" yMin="0" xMax="666" yMax="624">
      <contour>
        <pt x="222" y="172" on="1"/>
        <pt x="60" y="172" on="1"/>
        <pt x="204" y="0" on="1"/>
        <pt x="366" y="0" on="1"/>
      </contour>
      <contour>
        <pt x="494" y="624" on="1"/>
        <pt x="494" y="152" on="1"/>
        <pt x="514" y="172" on="1"/>
        <pt x="204" y="172" on="1"/>
        <pt x="204" y="0" on="1"/>
        <pt x="527" y="0" on="1"/>
        <pt x="584" y="0" on="0"/>
        <pt x="666" y="81" on="0"/>
        <pt x="666" y="138" on="1"/>
        <pt x="666" y="624" on="1"/>
      </contour>
    </TTGlyph>
    <TTGlyph name="arKaf.medi" xMin="0" yMin="0" xMax="602" yMax="739">
      <contour>
        <pt x="556" y="739" on="1"/>
        <pt x="496" y="737" on="0"/>
        <pt x="253" y="669" on="0"/>
        <pt x="170" y="618" on="1"/>
        <pt x="131" y="594" on="0"/>
        <pt x="103" y="511" on="0"/>
        <pt x="125" y="425" on="0"/>
        <pt x="156" y="394" on="1"/>
        <pt x="385" y="160" on="1"/>
        <pt x="393" y="172" on="1"/>
        <pt x="0" y="172" on="1"/>
        <pt x="0" y="0" on="1"/>
        <pt x="462" y="0" on="1"/>
        <pt x="506" y="0" on="0"/>
        <pt x="573" y="47" on="0"/>
        <pt x="602" y="115" on="0"/>
        <pt x="589" y="197" on="0"/>
        <pt x="558" y="228" on="1"/>
        <pt x="285" y="508" on="1"/>
        <pt x="279" y="482" on="1"/>
        <pt x="336" y="511" on="0"/>
        <pt x="532" y="564" on="0"/>
        <pt x="560" y="567" on="1"/>
      </contour>
    </TTGlyph>
    <TTGlyph name="arLam.fina" xMin="60" yMin="-148" xMax="600" yMax="624">
      <contour>
        <pt x="428" y="624" on="1"/>
        <pt x="428" y="4" on="1"/>
        <pt x="448" y="24" on="1"/>
        <pt x="212" y="24" on="1"/>
        <pt x="232" y="4" on="1"/>
        <pt x="232" y="180" on="1"/>
        <pt x="60" y="180" on="1"/>
        <pt x="60" y="-9" on="1"/>
        <pt x="60" y="-66" on="0"/>
        <pt x="144" y="-148" on="0"/>
        <pt x="201" y="-148" on="1"/>
        <pt x="460" y="-148" on="1"/>
        <pt x="518" y="-148" on="0"/>
        <pt x="600" y="-65" on="0"/>
        <pt x="600" y="-8" on="1"/>
        <pt x="600" y="624" on="1"/>
      </contour>
    </TTGlyph>
    <TTGlyph name="arLam.init" xMin="0" yMin="0" xMax="310" yMax="624">
      <contour>
        <pt x="138" y="624" on="1"/>
        <pt x="138" y="152" on="1"/>
        <pt x="158" y="172" on="1"/>
        <pt x="0" y="172" on="1"/>
        <pt x="0" y="0" on="1"/>
        <pt x="171" y="0" on="1"/>
        <pt x="228" y="0" on="0"/>
        <pt x="310" y="81" on="0"/>
        <pt x="310" y="138" on="1"/>
        <pt x="310" y="624" on="1"/>
      </contour>
    </TTGlyph>
    <TTGlyph name="arLam.init.1" xMin="60" yMin="0" xMax="532" yMax="624">
      <contour>
        <pt x="360" y="624" on="1"/>
        <pt x="360" y="152" on="1"/>
        <pt x="380" y="172" on="1"/>
        <pt x="60" y="172" on="1"/>
        <pt x="60" y="0" on="1"/>
        <pt x="393" y="0" on="1"/>
        <pt x="450" y="0" on="0"/>
        <pt x="532" y="81" on="0"/>
        <pt x="532" y="138" on="1"/>
        <pt x="532" y="624" on="1"/>
      </contour>
    </TTGlyph>
    <TTGlyph name="arLam.isol" xMin="60" yMin="-148" xMax="600" yMax="624">
      <contour>
        <pt x="428" y="624" on="1"/>
        <pt x="428" y="4" on="1"/>
        <pt x="448" y="24" on="1"/>
        <pt x="212" y="24" on="1"/>
        <pt x="232" y="4" on="1"/>
        <pt x="232" y="180" on="1"/>
        <pt x="60" y="180" on="1"/>
        <pt x="60" y="-9" on="1"/>
        <pt x="60" y="-66" on="0"/>
        <pt x="144" y="-148" on="0"/>
        <pt x="201" y="-148" on="1"/>
        <pt x="460" y="-148" on="1"/>
        <pt x="518" y="-148" on="0"/>
        <pt x="600" y="-65" on="0"/>
        <pt x="600" y="-8" on="1"/>
        <pt x="600" y="624" on="1"/>
      </contour>
    </TTGlyph>
    <TTGlyph name="arLam.medi" xMin="0" yMin="0" xMax="310" yMax="624">
      <contour>
        <pt x="138" y="624" on="1"/>
        <pt x="138" y="152" on="1"/>
        <pt x="158" y="172" on="1"/>
        <pt x="0" y="172" on="1"/>
        <pt x="0" y="0" on="1"/>
        <pt x="171" y="0" on="1"/>
        <pt x="228" y="0" on="0"/>
        <pt x="310" y="81" on="0"/>
        <pt x="310" y="138" on="1"/>
        <pt x="310" y="624" on="1"/>
      </contour>
    </TTGlyph>
    <TTGlyph name="arLam.medi.1" xMin="60" yMin="0" xMax="532" yMax="624">
      <contour>
        <pt x="360" y="624" on="1"/>
        <pt x="360" y="152" on="1"/>
        <pt x="380" y="172" on="1"/>
        <pt x="60" y="172" on="1"/>
        <pt x="60" y="0" on="1"/>
        <pt x="393" y="0" on="1"/>
        <pt x="450" y="0" on="0"/>
        <pt x="532" y="81" on="0"/>
        <pt x="532" y="138" on="1"/>
        <pt x="532" y="624" on="1"/>
      </contour>
    </TTGlyph>
    <TTGlyph name="arMeem.fina" xMin="60" yMin="0" xMax="777" yMax="462">
      <contour>
        <pt x="222" y="172" on="1"/>
        <pt x="60" y="172" on="1"/>
        <pt x="204" y="0" on="1"/>
        <pt x="366" y="0" on="1"/>
      </contour>
      <contour>
        <pt x="536" y="172" on="1"/>
        <pt x="470" y="172" on="1"/>
        <pt x="470" y="0" on="1"/>
        <pt x="536" y="0" on="1"/>
        <pt x="575" y="0" on="0"/>
        <pt x="655" y="21" on="0"/>
        <pt x="730" y="64" on="0"/>
        <pt x="777" y="143" on="0"/>
        <pt x="777" y="195" on="1"/>
        <pt x="777" y="289" on="0"/>
        <pt x="680" y="393" on="1"/>
        <pt x="621" y="455" on="0"/>
        <pt x="453" y="462" on="0"/>
        <pt x="394" y="406" on="1"/>
        <pt x="338" y="353" on="0"/>
        <pt x="338" y="271" on="1"/>
        <pt x="338" y="152" on="1"/>
        <pt x="358" y="172" on="1"/>
        <pt x="222" y="172" on="1"/>
        <pt x="222" y="0" on="1"/>
        <pt x="367" y="0" on="1"/>
        <pt x="510" y="0" on="0"/>
        <pt x="510" y="168" on="1"/>
        <pt x="510" y="259" on="1"/>
        <pt x="510" y="283" on="0"/>
        <pt x="523" y="285" on="1"/>
        <pt x="544" y="287" on="0"/>
        <pt x="555" y="275" on="1"/>
        <pt x="605" y="223" on="0"/>
        <pt x="605" y="194" on="1"/>
        <pt x="605" y="192" on="0"/>
        <pt x="600" y="184" on="0"/>
        <pt x="566" y="172" on="0"/>
      </contour>
    </TTGlyph>
    <TTGlyph name="arMeem.init" xMin="0" yMin="0" xMax="555" yMax="462">
      <contour>
        <pt x="314" y="172" on="1"/>
        <pt x="248" y="172" on="1"/>
        <pt x="248" y="0" on="1"/>
        <pt x="314" y="0" on="1"/>
        <pt x="353" y="0" on="0"/>
        <pt x="433" y="21" on="0"/>
        <pt x="508" y="64" on="0"/>
        <pt x="555" y="143" on="0"/>
        <pt x="555" y="195" on="1"/>
        <pt x="555" y="289" on="0"/>
        <pt x="458" y="393" on="1"/>
        <pt x="399" y="455" on="0"/>
        <pt x="231" y="462" on="0"/>
        <pt x="172" y="406" on="1"/>
        <pt x="116" y="353" on="0"/>
        <pt x="116" y="271" on="1"/>
        <pt x="116" y="152" on="1"/>
        <pt x="136" y="172" on="1"/>
        <pt x="0" y="172" on="1"/>
        <pt x="0" y="0" on="1"/>
        <pt x="145" y="0" on="1"/>
        <pt x="288" y="0" on="0"/>
        <pt x="288" y="168" on="1"/>
        <pt x="288" y="259" on="1"/>
        <pt x="288" y="283" on="0"/>
        <pt x="301" y="285" on="1"/>
        <pt x="322" y="287" on="0"/>
        <pt x="333" y="275" on="1"/>
        <pt x="383" y="223" on="0"/>
        <pt x="383" y="194" on="1"/>
        <pt x="383" y="192" on="0"/>
        <pt x="378" y="184" on="0"/>
        <pt x="344" y="172" on="0"/>
      </contour>
    </TTGlyph>
    <TTGlyph name="arMeem.isol" xMin="60" yMin="0" xMax="777" yMax="462">
      <contour>
        <pt x="222" y="172" on="1"/>
        <pt x="60" y="172" on="1"/>
        <pt x="204" y="0" on="1"/>
        <pt x="366" y="0" on="1"/>
      </contour>
      <contour>
        <pt x="536" y="172" on="1"/>
        <pt x="470" y="172" on="1"/>
        <pt x="470" y="0" on="1"/>
        <pt x="536" y="0" on="1"/>
        <pt x="575" y="0" on="0"/>
        <pt x="655" y="21" on="0"/>
        <pt x="730" y="64" on="0"/>
        <pt x="777" y="143" on="0"/>
        <pt x="777" y="195" on="1"/>
        <pt x="777" y="289" on="0"/>
        <pt x="680" y="393" on="1"/>
        <pt x="621" y="455" on="0"/>
        <pt x="453" y="462" on="0"/>
        <pt x="394" y="406" on="1"/>
        <pt x="338" y="353" on="0"/>
        <pt x="338" y="271" on="1"/>
        <pt x="338" y="152" on="1"/>
        <pt x="358" y="172" on="1"/>
        <pt x="222" y="172" on="1"/>
        <pt x="222" y="0" on="1"/>
        <pt x="367" y="0" on="1"/>
        <pt x="510" y="0" on="0"/>
        <pt x="510" y="168" on="1"/>
        <pt x="510" y="259" on="1"/>
        <pt x="510" y="283" on="0"/>
        <pt x="523" y="285" on="1"/>
        <pt x="544" y="287" on="0"/>
        <pt x="555" y="275" on="1"/>
        <pt x="605" y="223" on="0"/>
        <pt x="605" y="194" on="1"/>
        <pt x="605" y="192" on="0"/>
        <pt x="600" y="184" on="0"/>
        <pt x="566" y="172" on="0"/>
      </contour>
    </TTGlyph>
    <TTGlyph name="arMeem.medi" xMin="0" yMin="0" xMax="555" yMax="462">
      <contour>
        <pt x="314" y="172" on="1"/>
        <pt x="248" y="172" on="1"/>
        <pt x="248" y="0" on="1"/>
        <pt x="314" y="0" on="1"/>
        <pt x="353" y="0" on="0"/>
        <pt x="433" y="21" on="0"/>
        <pt x="508" y="64" on="0"/>
        <pt x="555" y="143" on="0"/>
        <pt x="555" y="195" on="1"/>
        <pt x="555" y="289" on="0"/>
        <pt x="458" y="393" on="1"/>
        <pt x="399" y="455" on="0"/>
        <pt x="231" y="462" on="0"/>
        <pt x="172" y="406" on="1"/>
        <pt x="116" y="353" on="0"/>
        <pt x="116" y="271" on="1"/>
        <pt x="116" y="152" on="1"/>
        <pt x="136" y="172" on="1"/>
        <pt x="0" y="172" on="1"/>
        <pt x="0" y="0" on="1"/>
        <pt x="145" y="0" on="1"/>
        <pt x="288" y="0" on="0"/>
        <pt x="288" y="168" on="1"/>
        <pt x="288" y="259" on="1"/>
        <pt x="288" y="283" on="0"/>
        <pt x="301" y="285" on="1"/>
        <pt x="322" y="287" on="0"/>
        <pt x="333" y="275" on="1"/>
        <pt x="383" y="223" on="0"/>
        <pt x="383" y="194" on="1"/>
        <pt x="383" y="192" on="0"/>
        <pt x="378" y="184" on="0"/>
        <pt x="344" y="172" on="0"/>
      </contour>
    </TTGlyph>
    <TTGlyph name="arNoon.fina" xMin="60" yMin="-187" xMax="704" yMax="222">
      <contour>
        <pt x="704" y="172" on="1"/>
        <pt x="543" y="172" on="1"/>
        <pt x="543" y="0" on="1"/>
        <pt x="704" y="0" on="1"/>
      </contour>
      <contour>
        <pt x="424" y="222" on="1"/>
        <pt x="424" y="-45" on="1"/>
        <pt x="464" y="-15" on="1"/>
        <pt x="320" y="-15" on="1"/>
        <pt x="232" y="-15" on="0"/>
        <pt x="232" y="32" on="1"/>
        <pt x="232" y="221" on="1"/>
        <pt x="60" y="221" on="1"/>
        <pt x="60" y="31" on="1"/>
        <pt x="60" y="-72" on="0"/>
        <pt x="216" y="-187" on="0"/>
        <pt x="320" y="-187" on="1"/>
        <pt x="459" y="-187" on="1"/>
        <pt x="516" y="-187" on="0"/>
        <pt x="596" y="-106" on="0"/>
        <pt x="596" y="-49" on="1"/>
        <pt x="596" y="222" on="1"/>
      </contour>
    </TTGlyph>
    <TTGlyph name="arNoon.isol" xMin="60" yMin="-187" xMax="596" yMax="222">
      <contour>
        <pt x="424" y="222" on="1"/>
        <pt x="424" y="-45" on="1"/>
        <pt x="464" y="-15" on="1"/>
        <pt x="320" y="-15" on="1"/>
        <pt x="232" y="-15" on="0"/>
        <pt x="232" y="32" on="1"/>
        <pt x="232" y="221" on="1"/>
        <pt x="60" y="221" on="1"/>
        <pt x="60" y="31" on="1"/>
        <pt x="60" y="-72" on="0"/>
        <pt x="216" y="-187" on="0"/>
        <pt x="320" y="-187" on="1"/>
        <pt x="459" y="-187" on="1"/>
        <pt x="516" y="-187" on="0"/>
        <pt x="596" y="-106" on="0"/>
        <pt x="596" y="-49" on="1"/>
        <pt x="596" y="222" on="1"/>
      </contour>
    </TTGlyph>
    <TTGlyph name="arQaf.fina" xMin="60" yMin="-200" xMax="904" yMax="445">
      <contour>
        <pt x="904" y="172" on="1"/>
        <pt x="646" y="172" on="1"/>
        <pt x="576" y="172" on="0"/>
        <pt x="548" y="177" on="0"/>
        <pt x="538" y="194" on="1"/>
        <pt x="521" y="223" on="0"/>
        <pt x="547" y="252" on="1"/>
        <pt x="570" y="277" on="0"/>
        <pt x="602" y="266" on="1"/>
        <pt x="636" y="255" on="0"/>
        <pt x="636" y="214" on="1"/>
        <pt x="636" y="-48" on="1"/>
        <pt x="656" y="-28" on="1"/>
        <pt x="212" y="-28" on="1"/>
        <pt x="232" y="-48" on="1"/>
        <pt x="232" y="222" on="1"/>
        <pt x="60" y="222" on="1"/>
        <pt x="60" y="-20" on="1"/>
        <pt x="60" y="-98" on="0"/>
        <pt x="170" y="-200" on="0"/>
        <pt x="245" y="-200" on="1"/>
        <pt x="667" y="-200" on="1"/>
        <pt x="725" y="-200" on="0"/>
        <pt x="808" y="-118" on="0"/>
        <pt x="808" y="-60" on="1"/>
        <pt x="808" y="224" on="1"/>
        <pt x="808" y="291" on="0"/>
        <pt x="776" y="341" on="1"/>
        <pt x="741" y="396" on="0"/>
        <pt x="624" y="445" on="0"/>
        <pt x="507" y="433" on="0"/>
        <pt x="461" y="403" on="1"/>
        <pt x="418" y="375" on="0"/>
        <pt x="363" y="280" on="0"/>
        <pt x="355" y="164" on="0"/>
        <pt x="390" y="106" on="1"/>
        <pt x="408" y="75" on="0"/>
        <pt x="459" y="33" on="0"/>
        <pt x="502" y="12" on="0"/>
        <pt x="570" y="1" on="0"/>
        <pt x="609" y="0" on="0"/>
        <pt x="646" y="0" on="1"/>
        <pt x="904" y="0" on="1"/>
      </contour>
    </TTGlyph>
    <TTGlyph name="arQaf.isol" xMin="60" yMin="-199" xMax="808" yMax="446">
      <contour>
        <pt x="676" y="21" on="1"/>
        <pt x="676" y="158" on="1"/>
        <pt x="626" y="150" on="0"/>
        <pt x="565" y="165" on="0"/>
        <pt x="547" y="179" on="0"/>
        <pt x="538" y="195" on="1"/>
        <pt x="521" y="224" on="0"/>
        <pt x="547" y="253" on="1"/>
        <pt x="570" y="278" on="0"/>
        <pt x="602" y="267" on="1"/>
        <pt x="636" y="256" on="0"/>
        <pt x="636" y="215" on="1"/>
        <pt x="636" y="-47" on="1"/>
        <pt x="656" y="-27" on="1"/>
        <pt x="212" y="-27" on="1"/>
        <pt x="232" y="-47" on="1"/>
        <pt x="232" y="223" on="1"/>
        <pt x="60" y="223" on="1"/>
        <pt x="60" y="-19" on="1"/>
        <pt x="60" y="-97" on="0"/>
        <pt x="170" y="-199" on="0"/>
        <pt x="245" y="-199" on="1"/>
        <pt x="667" y="-199" on="1"/>
        <pt x="725" y="-199" on="0"/>
        <pt x="808" y="-117" on="0"/>
        <pt x="808" y="-59" on="1"/>
        <pt x="808" y="225" on="1"/>
        <pt x="808" y="292" on="0"/>
        <pt x="776" y="342" on="1"/>
        <pt x="741" y="397" on="0"/>
        <pt x="624" y="446" on="0"/>
        <pt x="507" y="434" on="0"/>
        <pt x="461" y="404" on="1"/>
        <pt x="418" y="376" on="0"/>
        <pt x="363" y="281" on="0"/>
        <pt x="355" y="165" on="0"/>
        <pt x="390" y="107" on="1"/>
        <pt x="420" y="58" on="0"/>
        <pt x="521" y="15" on="0"/>
        <pt x="622" y="20" on="0"/>
      </contour>
    </TTGlyph>
    <TTGlyph name="arReh.fina" xMin="0" yMin="-230" xMax="436" yMax="221">
      <contour>
        <pt x="436" y="172" on="1"/>
        <pt x="271" y="172" on="1"/>
        <pt x="271" y="0" on="1"/>
        <pt x="436" y="0" on="1"/>
      </contour>
      <contour>
        <pt x="155" y="221" on="1"/>
        <pt x="155" y="3" on="1"/>
        <pt x="155" y="-26" on="0"/>
        <pt x="125" y="-58" on="0"/>
        <pt x="102" y="-58" on="1"/>
        <pt x="0" y="-58" on="1"/>
        <pt x="0" y="-230" on="1"/>
        <pt x="102" y="-230" on="1"/>
        <pt x="199" y="-230" on="0"/>
        <pt x="327" y="-92" on="0"/>
        <pt x="327" y="3" on="1"/>
        <pt x="327" y="221" on="1"/>
      </contour>
    </TTGlyph>
    <TTGlyph name="arReh.isol" xMin="0" yMin="-230" xMax="327" yMax="221">
      <contour>
        <pt x="155" y="221" on="1"/>
        <pt x="155" y="3" on="1"/>
        <pt x="155" y="-26" on="0"/>
        <pt x="125" y="-58" on="0"/>
        <pt x="102" y="-58" on="1"/>
        <pt x="0" y="-58" on="1"/>
        <pt x="0" y="-230" on="1"/>
        <pt x="102" y="-230" on="1"/>
        <pt x="199" y="-230" on="0"/>
        <pt x="327" y="-92" on="0"/>
        <pt x="327" y="3" on="1"/>
        <pt x="327" y="221" on="1"/>
      </contour>
    </TTGlyph>
    <TTGlyph name="arSad.above" xMin="-172" yMin="0" xMax="173" yMax="223">
      <contour>
        <pt x="-98" y="86" on="1"/>
        <pt x="-31" y="31" on="1"/>
        <pt x="45" y="145" on="0"/>
        <pt x="74" y="136" on="1"/>
        <pt x="85" y="130" on="0"/>
        <pt x="86" y="102" on="1"/>
        <pt x="86" y="76" on="1"/>
        <pt x="96" y="86" on="1"/>
        <pt x="-113" y="86" on="1"/>
        <pt x="-113" y="0" on="1"/>
        <pt x="103" y="0" on="1"/>
        <pt x="132" y="0" on="0"/>
        <pt x="173" y="41" on="0"/>
        <pt x="172" y="70" on="1"/>
        <pt x="172" y="104" on="1"/>
        <pt x="170" y="188" on="0"/>
        <pt x="106" y="216" on="1"/>
        <pt x="88" y="223" on="0"/>
        <pt x="52" y="223" on="0"/>
        <pt x="25" y="216" on="0"/>
        <pt x="-7" y="194" on="0"/>
        <pt x="-27" y="179" on="0"/>
        <pt x="-56" y="144" on="0"/>
        <pt x="-68" y="129" on="0"/>
        <pt x="-95" y="90" on="0"/>
      </contour>
      <contour>
        <pt x="-74" y="0" on="1"/>
        <pt x="-74" y="86" on="1"/>
        <pt x="-172" y="86" on="1"/>
        <pt x="-172" y="0" on="1"/>
      </contour>
    </TTGlyph>
    <TTGlyph name="arSad.fina" xMin="60" yMin="-231" xMax="1108" yMax="449">
      <contour>
        <pt x="429" y="311" on="1"/>
        <pt x="429" y="-79" on="1"/>
        <pt x="449" y="-59" on="1"/>
        <pt x="212" y="-59" on="1"/>
        <pt x="232" y="-79" on="1"/>
        <pt x="232" y="219" on="1"/>
        <pt x="60" y="219" on="1"/>
        <pt x="60" y="-89" on="1"/>
        <pt x="60" y="-146" on="0"/>
        <pt x="137" y="-231" on="0"/>
        <pt x="195" y="-231" on="1"/>
        <pt x="462" y="-231" on="1"/>
        <pt x="519" y="-231" on="0"/>
        <pt x="601" y="-150" on="0"/>
        <pt x="601" y="-93" on="1"/>
        <pt x="601" y="311" on="1"/>
      </contour>
      <contour>
        <pt x="565" y="172" on="1"/>
        <pt x="699" y="62" on="1"/>
        <pt x="762" y="157" on="0"/>
        <pt x="880" y="283" on="0"/>
        <pt x="910" y="273" on="1"/>
        <pt x="918" y="269" on="0"/>
        <pt x="923" y="266" on="0"/>
        <pt x="933" y="233" on="0"/>
        <pt x="934" y="203" on="1"/>
        <pt x="933" y="152" on="1"/>
        <pt x="953" y="172" on="1"/>
        <pt x="535" y="172" on="1"/>
        <pt x="535" y="0" on="1"/>
        <pt x="967" y="0" on="1"/>
        <pt x="1025" y="0" on="0"/>
        <pt x="1108" y="83" on="0"/>
        <pt x="1106" y="141" on="1"/>
        <pt x="1104" y="207" on="1"/>
        <pt x="1100" y="380" on="0"/>
        <pt x="973" y="433" on="1"/>
        <pt x="944" y="444" on="0"/>
        <pt x="887" y="449" on="0"/>
        <pt x="839" y="442" on="0"/>
        <pt x="787" y="418" on="0"/>
        <pt x="749" y="395" on="0"/>
        <pt x="703" y="351" on="0"/>
        <pt x="673" y="320" on="0"/>
        <pt x="631" y="266" on="0"/>
        <pt x="610" y="236" on="0"/>
        <pt x="572" y="182" on="0"/>
      </contour>
    </TTGlyph>
    <TTGlyph name="arSad.init" xMin="0" yMin="0" xMax="721" yMax="449">
      <contour>
        <pt x="246" y="0" on="1"/>
        <pt x="246" y="172" on="1"/>
        <pt x="0" y="172" on="1"/>
        <pt x="0" y="0" on="1"/>
      </contour>
      <contour>
        <pt x="102" y="311" on="1"/>
        <pt x="102" y="92" on="1"/>
        <pt x="274" y="92" on="1"/>
        <pt x="274" y="311" on="1"/>
      </contour>
      <contour>
        <pt x="178" y="172" on="1"/>
        <pt x="312" y="62" on="1"/>
        <pt x="375" y="157" on="0"/>
        <pt x="493" y="283" on="0"/>
        <pt x="523" y="273" on="1"/>
        <pt x="531" y="269" on="0"/>
        <pt x="536" y="266" on="0"/>
        <pt x="546" y="233" on="0"/>
        <pt x="547" y="203" on="1"/>
        <pt x="546" y="152" on="1"/>
        <pt x="566" y="172" on="1"/>
        <pt x="148" y="172" on="1"/>
        <pt x="148" y="0" on="1"/>
        <pt x="580" y="0" on="1"/>
        <pt x="638" y="0" on="0"/>
        <pt x="721" y="83" on="0"/>
        <pt x="719" y="141" on="1"/>
        <pt x="717" y="207" on="1"/>
        <pt x="713" y="380" on="0"/>
        <pt x="586" y="433" on="1"/>
        <pt x="557" y="444" on="0"/>
        <pt x="500" y="449" on="0"/>
        <pt x="452" y="442" on="0"/>
        <pt x="400" y="418" on="0"/>
        <pt x="362" y="395" on="0"/>
        <pt x="316" y="351" on="0"/>
        <pt x="286" y="320" on="0"/>
        <pt x="244" y="266" on="0"/>
        <pt x="223" y="236" on="0"/>
        <pt x="185" y="182" on="0"/>
      </contour>
    </TTGlyph>
    <TTGlyph name="arSad.isol" xMin="60" yMin="-231" xMax="1108" yMax="449">
      <contour>
        <pt x="429" y="311" on="1"/>
        <pt x="429" y="-79" on="1"/>
        <pt x="449" y="-59" on="1"/>
        <pt x="212" y="-59" on="1"/>
        <pt x="232" y="-79" on="1"/>
        <pt x="232" y="219" on="1"/>
        <pt x="60" y="219" on="1"/>
        <pt x="60" y="-89" on="1"/>
        <pt x="60" y="-146" on="0"/>
        <pt x="137" y="-231" on="0"/>
        <pt x="195" y="-231" on="1"/>
        <pt x="462" y="-231" on="1"/>
        <pt x="519" y="-231" on="0"/>
        <pt x="601" y="-150" on="0"/>
        <pt x="601" y="-93" on="1"/>
        <pt x="601" y="311" on="1"/>
      </contour>
      <contour>
        <pt x="565" y="172" on="1"/>
        <pt x="699" y="62" on="1"/>
        <pt x="762" y="157" on="0"/>
        <pt x="880" y="283" on="0"/>
        <pt x="910" y="273" on="1"/>
        <pt x="918" y="269" on="0"/>
        <pt x="923" y="266" on="0"/>
        <pt x="933" y="233" on="0"/>
        <pt x="934" y="203" on="1"/>
        <pt x="933" y="152" on="1"/>
        <pt x="953" y="172" on="1"/>
        <pt x="535" y="172" on="1"/>
        <pt x="535" y="0" on="1"/>
        <pt x="967" y="0" on="1"/>
        <pt x="1025" y="0" on="0"/>
        <pt x="1108" y="83" on="0"/>
        <pt x="1106" y="141" on="1"/>
        <pt x="1104" y="207" on="1"/>
        <pt x="1100" y="380" on="0"/>
        <pt x="973" y="433" on="1"/>
        <pt x="944" y="444" on="0"/>
        <pt x="887" y="449" on="0"/>
        <pt x="839" y="442" on="0"/>
        <pt x="787" y="418" on="0"/>
        <pt x="749" y="395" on="0"/>
        <pt x="703" y="351" on="0"/>
        <pt x="673" y="320" on="0"/>
        <pt x="631" y="266" on="0"/>
        <pt x="610" y="236" on="0"/>
        <pt x="572" y="182" on="0"/>
      </contour>
    </TTGlyph>
    <TTGlyph name="arSad.medi" xMin="0" yMin="0" xMax="721" yMax="449">
      <contour>
        <pt x="246" y="0" on="1"/>
        <pt x="246" y="172" on="1"/>
        <pt x="0" y="172" on="1"/>
        <pt x="0" y="0" on="1"/>
      </contour>
      <contour>
        <pt x="102" y="311" on="1"/>
        <pt x="102" y="92" on="1"/>
        <pt x="274" y="92" on="1"/>
        <pt x="274" y="311" on="1"/>
      </contour>
      <contour>
        <pt x="178" y="172" on="1"/>
        <pt x="312" y="62" on="1"/>
        <pt x="375" y="157" on="0"/>
        <pt x="493" y="283" on="0"/>
        <pt x="523" y="273" on="1"/>
        <pt x="531" y="269" on="0"/>
        <pt x="536" y="266" on="0"/>
        <pt x="546" y="233" on="0"/>
        <pt x="547" y="203" on="1"/>
        <pt x="546" y="152" on="1"/>
        <pt x="566" y="172" on="1"/>
        <pt x="148" y="172" on="1"/>
        <pt x="148" y="0" on="1"/>
        <pt x="580" y="0" on="1"/>
        <pt x="638" y="0" on="0"/>
        <pt x="721" y="83" on="0"/>
        <pt x="719" y="141" on="1"/>
        <pt x="717" y="207" on="1"/>
        <pt x="713" y="380" on="0"/>
        <pt x="586" y="433" on="1"/>
        <pt x="557" y="444" on="0"/>
        <pt x="500" y="449" on="0"/>
        <pt x="452" y="442" on="0"/>
        <pt x="400" y="418" on="0"/>
        <pt x="362" y="395" on="0"/>
        <pt x="316" y="351" on="0"/>
        <pt x="286" y="320" on="0"/>
        <pt x="244" y="266" on="0"/>
        <pt x="223" y="236" on="0"/>
        <pt x="185" y="182" on="0"/>
      </contour>
    </TTGlyph>
    <TTGlyph name="arSeen.fina" xMin="60" yMin="-231" xMax="1048" yMax="412">
      <contour>
        <pt x="429" y="412" on="1"/>
        <pt x="429" y="-79" on="1"/>
        <pt x="449" y="-59" on="1"/>
        <pt x="212" y="-59" on="1"/>
        <pt x="232" y="-79" on="1"/>
        <pt x="232" y="219" on="1"/>
        <pt x="60" y="219" on="1"/>
        <pt x="60" y="-89" on="1"/>
        <pt x="60" y="-146" on="0"/>
        <pt x="137" y="-231" on="0"/>
        <pt x="195" y="-231" on="1"/>
        <pt x="462" y="-231" on="1"/>
        <pt x="519" y="-231" on="0"/>
        <pt x="601" y="-150" on="0"/>
        <pt x="601" y="-93" on="1"/>
        <pt x="601" y="412" on="1"/>
      </contour>
      <contour>
        <pt x="876" y="410" on="1"/>
        <pt x="876" y="152" on="1"/>
        <pt x="896" y="172" on="1"/>
        <pt x="806" y="172" on="1"/>
        <pt x="806" y="0" on="1"/>
        <pt x="908" y="0" on="1"/>
        <pt x="965" y="0" on="0"/>
        <pt x="1048" y="81" on="0"/>
        <pt x="1048" y="138" on="1"/>
        <pt x="1048" y="410" on="1"/>
      </contour>
      <contour>
        <pt x="652" y="410" on="1"/>
        <pt x="652" y="152" on="1"/>
        <pt x="672" y="172" on="1"/>
        <pt x="593" y="172" on="1"/>
        <pt x="593" y="0" on="1"/>
        <pt x="685" y="0" on="1"/>
        <pt x="742" y="0" on="0"/>
        <pt x="824" y="81" on="0"/>
        <pt x="824" y="138" on="1"/>
        <pt x="824" y="410" on="1"/>
      </contour>
    </TTGlyph>
    <TTGlyph name="arSeen.init" xMin="0" yMin="0" xMax="763" yMax="410">
      <contour>
        <pt x="146" y="410" on="1"/>
        <pt x="146" y="152" on="1"/>
        <pt x="166" y="172" on="1"/>
        <pt x="0" y="172" on="1"/>
        <pt x="0" y="0" on="1"/>
        <pt x="179" y="0" on="1"/>
        <pt x="236" y="0" on="0"/>
        <pt x="318" y="81" on="0"/>
        <pt x="318" y="138" on="1"/>
        <pt x="318" y="410" on="1"/>
      </contour>
      <contour>
        <pt x="591" y="410" on="1"/>
        <pt x="591" y="152" on="1"/>
        <pt x="611" y="172" on="1"/>
        <pt x="521" y="172" on="1"/>
        <pt x="521" y="0" on="1"/>
        <pt x="623" y="0" on="1"/>
        <pt x="680" y="0" on="0"/>
        <pt x="763" y="81" on="0"/>
        <pt x="763" y="138" on="1"/>
        <pt x="763" y="410" on="1"/>
      </contour>
      <contour>
        <pt x="367" y="410" on="1"/>
        <pt x="367" y="152" on="1"/>
        <pt x="387" y="172" on="1"/>
        <pt x="279" y="172" on="1"/>
        <pt x="279" y="0" on="1"/>
        <pt x="400" y="0" on="1"/>
        <pt x="457" y="0" on="0"/>
        <pt x="539" y="81" on="0"/>
        <pt x="539" y="138" on="1"/>
        <pt x="539" y="410" on="1"/>
      </contour>
    </TTGlyph>
    <TTGlyph name="arSeen.isol" xMin="60" yMin="-231" xMax="1048" yMax="412">
      <contour>
        <pt x="429" y="412" on="1"/>
        <pt x="429" y="-79" on="1"/>
        <pt x="449" y="-59" on="1"/>
        <pt x="212" y="-59" on="1"/>
        <pt x="232" y="-79" on="1"/>
        <pt x="232" y="219" on="1"/>
        <pt x="60" y="219" on="1"/>
        <pt x="60" y="-89" on="1"/>
        <pt x="60" y="-146" on="0"/>
        <pt x="137" y="-231" on="0"/>
        <pt x="195" y="-231" on="1"/>
        <pt x="462" y="-231" on="1"/>
        <pt x="519" y="-231" on="0"/>
        <pt x="601" y="-150" on="0"/>
        <pt x="601" y="-93" on="1"/>
        <pt x="601" y="412" on="1"/>
      </contour>
      <contour>
        <pt x="876" y="410" on="1"/>
        <pt x="876" y="152" on="1"/>
        <pt x="896" y="172" on="1"/>
        <pt x="806" y="172" on="1"/>
        <pt x="806" y="0" on="1"/>
        <pt x="908" y="0" on="1"/>
        <pt x="965" y="0" on="0"/>
        <pt x="1048" y="81" on="0"/>
        <pt x="1048" y="138" on="1"/>
        <pt x="1048" y="410" on="1"/>
      </contour>
      <contour>
        <pt x="652" y="410" on="1"/>
        <pt x="652" y="152" on="1"/>
        <pt x="672" y="172" on="1"/>
        <pt x="593" y="172" on="1"/>
        <pt x="593" y="0" on="1"/>
        <pt x="685" y="0" on="1"/>
        <pt x="742" y="0" on="0"/>
        <pt x="824" y="81" on="0"/>
        <pt x="824" y="138" on="1"/>
        <pt x="824" y="410" on="1"/>
      </contour>
    </TTGlyph>
    <TTGlyph name="arSeen.medi" xMin="0" yMin="0" xMax="763" yMax="410">
      <contour>
        <pt x="146" y="410" on="1"/>
        <pt x="146" y="152" on="1"/>
        <pt x="166" y="172" on="1"/>
        <pt x="0" y="172" on="1"/>
        <pt x="0" y="0" on="1"/>
        <pt x="179" y="0" on="1"/>
        <pt x="236" y="0" on="0"/>
        <pt x="318" y="81" on="0"/>
        <pt x="318" y="138" on="1"/>
        <pt x="318" y="410" on="1"/>
      </contour>
      <contour>
        <pt x="591" y="410" on="1"/>
        <pt x="591" y="152" on="1"/>
        <pt x="611" y="172" on="1"/>
        <pt x="521" y="172" on="1"/>
        <pt x="521" y="0" on="1"/>
        <pt x="623" y="0" on="1"/>
        <pt x="680" y="0" on="0"/>
        <pt x="763" y="81" on="0"/>
        <pt x="763" y="138" on="1"/>
        <pt x="763" y="410" on="1"/>
      </contour>
      <contour>
        <pt x="367" y="410" on="1"/>
        <pt x="367" y="152" on="1"/>
        <pt x="387" y="172" on="1"/>
        <pt x="279" y="172" on="1"/>
        <pt x="279" y="0" on="1"/>
        <pt x="400" y="0" on="1"/>
        <pt x="457" y="0" on="0"/>
        <pt x="539" y="81" on="0"/>
        <pt x="539" y="138" on="1"/>
        <pt x="539" y="410" on="1"/>
      </contour>
    </TTGlyph>
    <TTGlyph name="arTah.above" xMin="-168" yMin="0" xMax="195" yMax="312">
      <contour>
        <pt x="-73" y="0" on="1"/>
        <pt x="-73" y="86" on="1"/>
        <pt x="-168" y="86" on="1"/>
        <pt x="-168" y="0" on="1"/>
      </contour>
      <contour>
        <pt x="-120" y="312" on="1"/>
        <pt x="-120" y="61" on="1"/>
        <pt x="-34" y="61" on="1"/>
        <pt x="-34" y="312" on="1"/>
      </contour>
      <contour>
        <pt x="-77" y="86" on="1"/>
        <pt x="-10" y="31" on="1"/>
        <pt x="21" y="78" on="0"/>
        <pt x="81" y="141" on="0"/>
        <pt x="96" y="136" on="1"/>
        <pt x="107" y="130" on="0"/>
        <pt x="108" y="102" on="1"/>
        <pt x="107" y="76" on="1"/>
        <pt x="117" y="86" on="1"/>
        <pt x="-92" y="86" on="1"/>
        <pt x="-92" y="0" on="1"/>
        <pt x="124" y="0" on="1"/>
        <pt x="153" y="0" on="0"/>
        <pt x="195" y="41" on="0"/>
        <pt x="194" y="70" on="1"/>
        <pt x="192" y="104" on="1"/>
        <pt x="190" y="189" on="0"/>
        <pt x="127" y="216" on="1"/>
        <pt x="109" y="223" on="0"/>
        <pt x="73" y="223" on="0"/>
        <pt x="46" y="216" on="0"/>
        <pt x="14" y="194" on="0"/>
        <pt x="-6" y="179" on="0"/>
        <pt x="-35" y="144" on="0"/>
        <pt x="-47" y="129" on="0"/>
        <pt x="-74" y="90" on="0"/>
      </contour>
    </TTGlyph>
    <TTGlyph name="arTah.fina" xMin="60" yMin="0" xMax="785" yMax="624">
      <contour>
        <pt x="250" y="0" on="1"/>
        <pt x="250" y="172" on="1"/>
        <pt x="60" y="172" on="1"/>
        <pt x="60" y="0" on="1"/>
      </contour>
      <contour>
        <pt x="156" y="624" on="1"/>
        <pt x="156" y="122" on="1"/>
        <pt x="328" y="122" on="1"/>
        <pt x="328" y="624" on="1"/>
      </contour>
      <contour>
        <pt x="242" y="172" on="1"/>
        <pt x="376" y="62" on="1"/>
        <pt x="439" y="157" on="0"/>
        <pt x="557" y="283" on="0"/>
        <pt x="587" y="273" on="1"/>
        <pt x="594" y="269" on="0"/>
        <pt x="600" y="266" on="0"/>
        <pt x="610" y="233" on="0"/>
        <pt x="611" y="203" on="1"/>
        <pt x="610" y="152" on="1"/>
        <pt x="630" y="172" on="1"/>
        <pt x="212" y="172" on="1"/>
        <pt x="212" y="0" on="1"/>
        <pt x="644" y="0" on="1"/>
        <pt x="702" y="0" on="0"/>
        <pt x="785" y="83" on="0"/>
        <pt x="783" y="141" on="1"/>
        <pt x="781" y="207" on="1"/>
        <pt x="777" y="380" on="0"/>
        <pt x="650" y="433" on="1"/>
        <pt x="621" y="444" on="0"/>
        <pt x="564" y="449" on="0"/>
        <pt x="516" y="442" on="0"/>
        <pt x="464" y="418" on="0"/>
        <pt x="426" y="395" on="0"/>
        <pt x="380" y="351" on="0"/>
        <pt x="350" y="320" on="0"/>
        <pt x="308" y="266" on="0"/>
        <pt x="287" y="236" on="0"/>
        <pt x="249" y="182" on="0"/>
      </contour>
    </TTGlyph>
    <TTGlyph name="arTah.init" xMin="-10" yMin="0" xMax="715" yMax="624">
      <contour>
        <pt x="180" y="0" on="1"/>
        <pt x="180" y="172" on="1"/>
        <pt x="-10" y="172" on="1"/>
        <pt x="-10" y="0" on="1"/>
      </contour>
      <contour>
        <pt x="86" y="624" on="1"/>
        <pt x="86" y="122" on="1"/>
        <pt x="258" y="122" on="1"/>
        <pt x="258" y="624" on="1"/>
      </contour>
      <contour>
        <pt x="172" y="172" on="1"/>
        <pt x="306" y="62" on="1"/>
        <pt x="369" y="157" on="0"/>
        <pt x="487" y="283" on="0"/>
        <pt x="517" y="273" on="1"/>
        <pt x="525" y="269" on="0"/>
        <pt x="530" y="266" on="0"/>
        <pt x="540" y="233" on="0"/>
        <pt x="541" y="203" on="1"/>
        <pt x="540" y="152" on="1"/>
        <pt x="560" y="172" on="1"/>
        <pt x="142" y="172" on="1"/>
        <pt x="142" y="0" on="1"/>
        <pt x="574" y="0" on="1"/>
        <pt x="632" y="0" on="0"/>
        <pt x="715" y="83" on="0"/>
        <pt x="713" y="141" on="1"/>
        <pt x="711" y="207" on="1"/>
        <pt x="707" y="380" on="0"/>
        <pt x="580" y="433" on="1"/>
        <pt x="551" y="444" on="0"/>
        <pt x="494" y="449" on="0"/>
        <pt x="446" y="442" on="0"/>
        <pt x="394" y="418" on="0"/>
        <pt x="356" y="395" on="0"/>
        <pt x="310" y="351" on="0"/>
        <pt x="280" y="320" on="0"/>
        <pt x="238" y="266" on="0"/>
        <pt x="217" y="236" on="0"/>
        <pt x="179" y="182" on="0"/>
      </contour>
    </TTGlyph>
    <TTGlyph name="arTah.isol" xMin="60" yMin="0" xMax="785" yMax="624">
      <contour>
        <pt x="250" y="0" on="1"/>
        <pt x="250" y="172" on="1"/>
        <pt x="60" y="172" on="1"/>
        <pt x="60" y="0" on="1"/>
      </contour>
      <contour>
        <pt x="156" y="624" on="1"/>
        <pt x="156" y="122" on="1"/>
        <pt x="328" y="122" on="1"/>
        <pt x="328" y="624" on="1"/>
      </contour>
      <contour>
        <pt x="242" y="172" on="1"/>
        <pt x="376" y="62" on="1"/>
        <pt x="439" y="157" on="0"/>
        <pt x="557" y="283" on="0"/>
        <pt x="587" y="273" on="1"/>
        <pt x="594" y="269" on="0"/>
        <pt x="600" y="266" on="0"/>
        <pt x="610" y="233" on="0"/>
        <pt x="611" y="203" on="1"/>
        <pt x="610" y="152" on="1"/>
        <pt x="630" y="172" on="1"/>
        <pt x="212" y="172" on="1"/>
        <pt x="212" y="0" on="1"/>
        <pt x="644" y="0" on="1"/>
        <pt x="702" y="0" on="0"/>
        <pt x="785" y="83" on="0"/>
        <pt x="783" y="141" on="1"/>
        <pt x="781" y="207" on="1"/>
        <pt x="777" y="380" on="0"/>
        <pt x="650" y="433" on="1"/>
        <pt x="621" y="444" on="0"/>
        <pt x="564" y="449" on="0"/>
        <pt x="516" y="442" on="0"/>
        <pt x="464" y="418" on="0"/>
        <pt x="426" y="395" on="0"/>
        <pt x="380" y="351" on="0"/>
        <pt x="350" y="320" on="0"/>
        <pt x="308" y="266" on="0"/>
        <pt x="287" y="236" on="0"/>
        <pt x="249" y="182" on="0"/>
      </contour>
    </TTGlyph>
    <TTGlyph name="arTah.medi" xMin="-10" yMin="0" xMax="715" yMax="624">
      <contour>
        <pt x="180" y="0" on="1"/>
        <pt x="180" y="172" on="1"/>
        <pt x="-10" y="172" on="1"/>
        <pt x="-10" y="0" on="1"/>
      </contour>
      <contour>
        <pt x="86" y="624" on="1"/>
        <pt x="86" y="122" on="1"/>
        <pt x="258" y="122" on="1"/>
        <pt x="258" y="624" on="1"/>
      </contour>
      <contour>
        <pt x="172" y="172" on="1"/>
        <pt x="306" y="62" on="1"/>
        <pt x="369" y="157" on="0"/>
        <pt x="487" y="283" on="0"/>
        <pt x="517" y="273" on="1"/>
        <pt x="525" y="269" on="0"/>
        <pt x="530" y="266" on="0"/>
        <pt x="540" y="233" on="0"/>
        <pt x="541" y="203" on="1"/>
        <pt x="540" y="152" on="1"/>
        <pt x="560" y="172" on="1"/>
        <pt x="142" y="172" on="1"/>
        <pt x="142" y="0" on="1"/>
        <pt x="574" y="0" on="1"/>
        <pt x="632" y="0" on="0"/>
        <pt x="715" y="83" on="0"/>
        <pt x="713" y="141" on="1"/>
        <pt x="711" y="207" on="1"/>
        <pt x="707" y="380" on="0"/>
        <pt x="580" y="433" on="1"/>
        <pt x="551" y="444" on="0"/>
        <pt x="494" y="449" on="0"/>
        <pt x="446" y="442" on="0"/>
        <pt x="394" y="418" on="0"/>
        <pt x="356" y="395" on="0"/>
        <pt x="310" y="351" on="0"/>
        <pt x="280" y="320" on="0"/>
        <pt x="238" y="266" on="0"/>
        <pt x="217" y="236" on="0"/>
        <pt x="179" y="182" on="0"/>
      </contour>
    </TTGlyph>
    <TTGlyph name="arWaw.fina" xMin="56" yMin="-229" xMax="579" yMax="444">
      <contour>
        <pt x="579" y="172" on="1"/>
        <pt x="414" y="172" on="1"/>
        <pt x="414" y="0" on="1"/>
        <pt x="579" y="0" on="1"/>
      </contour>
      <contour>
        <pt x="324" y="267" on="1"/>
        <pt x="324" y="0" on="1"/>
        <pt x="324" y="-25" on="0"/>
        <pt x="292" y="-57" on="0"/>
        <pt x="272" y="-57" on="1"/>
        <pt x="79" y="-57" on="1"/>
        <pt x="79" y="-229" on="1"/>
        <pt x="272" y="-229" on="1"/>
        <pt x="371" y="-229" on="0"/>
        <pt x="496" y="-87" on="0"/>
        <pt x="496" y="3" on="1"/>
        <pt x="496" y="267" on="1"/>
        <pt x="496" y="342" on="0"/>
        <pt x="393" y="444" on="0"/>
        <pt x="319" y="444" on="1"/>
        <pt x="226" y="444" on="0"/>
        <pt x="70" y="307" on="0"/>
        <pt x="60" y="195" on="1"/>
        <pt x="56" y="115" on="0"/>
        <pt x="168" y="0" on="0"/>
        <pt x="250" y="0" on="1"/>
        <pt x="378" y="0" on="1"/>
        <pt x="378" y="172" on="1"/>
        <pt x="250" y="172" on="1"/>
        <pt x="228" y="172" on="0"/>
        <pt x="234" y="195" on="1"/>
        <pt x="242" y="228" on="0"/>
        <pt x="292" y="269" on="0"/>
        <pt x="315" y="272" on="1"/>
        <pt x="324" y="274" on="0"/>
      </contour>
    </TTGlyph>
    <TTGlyph name="arWaw.isol" xMin="56" yMin="-229" xMax="496" yMax="444">
      <contour>
        <pt x="324" y="267" on="1"/>
        <pt x="324" y="0" on="1"/>
        <pt x="324" y="-25" on="0"/>
        <pt x="292" y="-57" on="0"/>
        <pt x="272" y="-57" on="1"/>
        <pt x="79" y="-57" on="1"/>
        <pt x="79" y="-229" on="1"/>
        <pt x="272" y="-229" on="1"/>
        <pt x="371" y="-229" on="0"/>
        <pt x="496" y="-87" on="0"/>
        <pt x="496" y="3" on="1"/>
        <pt x="496" y="267" on="1"/>
        <pt x="496" y="342" on="0"/>
        <pt x="393" y="444" on="0"/>
        <pt x="319" y="444" on="1"/>
        <pt x="226" y="444" on="0"/>
        <pt x="70" y="307" on="0"/>
        <pt x="60" y="195" on="1"/>
        <pt x="56" y="115" on="0"/>
        <pt x="168" y="0" on="0"/>
        <pt x="250" y="0" on="1"/>
        <pt x="378" y="0" on="1"/>
        <pt x="378" y="172" on="1"/>
        <pt x="250" y="172" on="1"/>
        <pt x="228" y="172" on="0"/>
        <pt x="234" y="195" on="1"/>
        <pt x="242" y="228" on="0"/>
        <pt x="292" y="269" on="0"/>
        <pt x="315" y="272" on="1"/>
        <pt x="324" y="274" on="0"/>
      </contour>
    </TTGlyph>
    <TTGlyph name="arYeh.fina" xMin="60" yMin="-214" xMax="657" yMax="232">
      <contour>
        <pt x="654" y="232" on="1"/>
        <pt x="486" y="232" on="1"/>
        <pt x="430" y="232" on="0"/>
        <pt x="351" y="162" on="0"/>
        <pt x="345" y="65" on="0"/>
        <pt x="383" y="13" on="1"/>
        <pt x="438" y="-54" on="1"/>
        <pt x="452" y="-42" on="1"/>
        <pt x="287" y="-42" on="1"/>
        <pt x="232" y="-42" on="0"/>
        <pt x="232" y="-3" on="1"/>
        <pt x="232" y="223" on="1"/>
        <pt x="60" y="223" on="1"/>
        <pt x="60" y="-3" on="1"/>
        <pt x="60" y="-58" on="0"/>
        <pt x="106" y="-144" on="0"/>
        <pt x="177" y="-191" on="0"/>
        <pt x="252" y="-214" on="0"/>
        <pt x="287" y="-214" on="1"/>
        <pt x="517" y="-214" on="1"/>
        <pt x="557" y="-214" on="0"/>
        <pt x="623" y="-175" on="0"/>
        <pt x="657" y="-117" on="0"/>
        <pt x="651" y="-42" on="0"/>
        <pt x="624" y="-9" on="1"/>
        <pt x="553" y="77" on="1"/>
        <pt x="546" y="60" on="1"/>
        <pt x="654" y="60" on="1"/>
      </contour>
    </TTGlyph>
    <TTGlyph name="arYeh.fina2" xMin="45" yMin="-276" xMax="791" yMax="301">
      <contour>
        <pt x="752" y="-104" on="1"/>
        <pt x="314" y="-104" on="1"/>
        <pt x="280" y="-104" on="0"/>
        <pt x="239" y="-90" on="0"/>
        <pt x="236" y="-84" on="1"/>
        <pt x="232" y="-77" on="1"/>
        <pt x="230" y="-70" on="0"/>
        <pt x="243" y="-48" on="0"/>
        <pt x="259" y="-44" on="1"/>
        <pt x="284" y="-38" on="0"/>
        <pt x="328" y="-17" on="0"/>
        <pt x="360" y="5" on="0"/>
        <pt x="387" y="31" on="0"/>
        <pt x="405" y="54" on="0"/>
        <pt x="420" y="77" on="0"/>
        <pt x="428" y="92" on="0"/>
        <pt x="430" y="98" on="1"/>
        <pt x="433" y="105" on="1"/>
        <pt x="445" y="125" on="0"/>
        <pt x="462" y="128" on="1"/>
        <pt x="477" y="131" on="0"/>
        <pt x="486" y="114" on="1"/>
        <pt x="545" y="0" on="0"/>
        <pt x="698" y="0" on="1"/>
        <pt x="791" y="0" on="1"/>
        <pt x="791" y="172" on="1"/>
        <pt x="698" y="172" on="1"/>
        <pt x="678" y="172" on="0"/>
        <pt x="663" y="173" on="0"/>
        <pt x="644" y="183" on="0"/>
        <pt x="638" y="194" on="1"/>
        <pt x="611" y="245" on="0"/>
        <pt x="516" y="301" on="0"/>
        <pt x="462" y="300" on="1"/>
        <pt x="402" y="299" on="0"/>
        <pt x="312" y="239" on="0"/>
        <pt x="285" y="191" on="1"/>
        <pt x="283" y="188" on="0"/>
        <pt x="272" y="167" on="0"/>
        <pt x="268" y="161" on="0"/>
        <pt x="258" y="145" on="0"/>
        <pt x="250" y="139" on="0"/>
        <pt x="238" y="130" on="0"/>
        <pt x="224" y="124" on="0"/>
        <pt x="215" y="122" on="1"/>
        <pt x="135" y="104" on="0"/>
        <pt x="45" y="-42" on="0"/>
        <pt x="66" y="-121" on="1"/>
        <pt x="85" y="-193" on="0"/>
        <pt x="220" y="-276" on="0"/>
        <pt x="314" y="-276" on="1"/>
        <pt x="752" y="-276" on="1"/>
      </contour>
    </TTGlyph>
    <TTGlyph name="arYeh.isol" xMin="60" yMin="-214" xMax="657" yMax="232">
      <contour>
        <pt x="654" y="232" on="1"/>
        <pt x="486" y="232" on="1"/>
        <pt x="430" y="232" on="0"/>
        <pt x="351" y="162" on="0"/>
        <pt x="345" y="65" on="0"/>
        <pt x="383" y="13" on="1"/>
        <pt x="438" y="-54" on="1"/>
        <pt x="452" y="-42" on="1"/>
        <pt x="287" y="-42" on="1"/>
        <pt x="232" y="-42" on="0"/>
        <pt x="232" y="-3" on="1"/>
        <pt x="232" y="223" on="1"/>
        <pt x="60" y="223" on="1"/>
        <pt x="60" y="-3" on="1"/>
        <pt x="60" y="-58" on="0"/>
        <pt x="106" y="-144" on="0"/>
        <pt x="177" y="-191" on="0"/>
        <pt x="252" y="-214" on="0"/>
        <pt x="287" y="-214" on="1"/>
        <pt x="517" y="-214" on="1"/>
        <pt x="557" y="-214" on="0"/>
        <pt x="623" y="-175" on="0"/>
        <pt x="657" y="-117" on="0"/>
        <pt x="651" y="-42" on="0"/>
        <pt x="624" y="-9" on="1"/>
        <pt x="553" y="77" on="1"/>
        <pt x="546" y="60" on="1"/>
        <pt x="654" y="60" on="1"/>
      </contour>
    </TTGlyph>
    <TTGlyph name="arYeh.isol2" xMin="45" yMin="-197" xMax="940" yMax="382">
      <contour>
        <pt x="643" y="327" on="1"/>
        <pt x="620" y="341" on="0"/>
        <pt x="562" y="364" on="0"/>
        <pt x="482" y="382" on="0"/>
        <pt x="392" y="368" on="0"/>
        <pt x="354" y="342" on="1"/>
        <pt x="319" y="319" on="0"/>
        <pt x="279" y="268" on="0"/>
        <pt x="268" y="235" on="0"/>
        <pt x="241" y="207" on="0"/>
        <pt x="215" y="200" on="1"/>
        <pt x="132" y="178" on="0"/>
        <pt x="45" y="37" on="0"/>
        <pt x="66" y="-42" on="1"/>
        <pt x="85" y="-114" on="0"/>
        <pt x="220" y="-197" on="0"/>
        <pt x="314" y="-197" on="1"/>
        <pt x="940" y="-197" on="1"/>
        <pt x="940" y="-25" on="1"/>
        <pt x="314" y="-25" on="1"/>
        <pt x="279" y="-25" on="0"/>
        <pt x="239" y="-12" on="0"/>
        <pt x="236" y="-5" on="1"/>
        <pt x="233" y="2" on="1"/>
        <pt x="232" y="6" on="0"/>
        <pt x="234" y="17" on="0"/>
        <pt x="248" y="31" on="0"/>
        <pt x="259" y="34" on="1"/>
        <pt x="282" y="40" on="0"/>
        <pt x="325" y="59" on="0"/>
        <pt x="355" y="80" on="0"/>
        <pt x="383" y="105" on="0"/>
        <pt x="400" y="126" on="0"/>
        <pt x="416" y="149" on="0"/>
        <pt x="423" y="164" on="0"/>
        <pt x="426" y="171" on="1"/>
        <pt x="430" y="178" on="1"/>
        <pt x="469" y="232" on="0"/>
        <pt x="551" y="181" on="1"/>
      </contour>
    </TTGlyph>
    <TTGlyph name="aring" xMin="38" yMin="-12" xMax="482" yMax="780">
      <contour>
        <pt x="188" y="-12" on="1"/>
        <pt x="120" y="-12" on="0"/>
        <pt x="38" y="78" on="0"/>
        <pt x="38" y="142" on="1"/>
        <pt x="38" y="221" on="0"/>
        <pt x="167" y="309" on="0"/>
        <pt x="310" y="324" on="1"/>
        <pt x="304" y="376" on="0"/>
        <pt x="240" y="376" on="1"/>
        <pt x="192" y="376" on="0"/>
        <pt x="114" y="334" on="1"/>
        <pt x="54" y="446" on="1"/>
        <pt x="164" y="512" on="0"/>
        <pt x="274" y="512" on="1"/>
        <pt x="482" y="512" on="0"/>
        <pt x="482" y="278" on="1"/>
        <pt x="482" y="0" on="1"/>
        <pt x="342" y="0" on="1"/>
        <pt x="330" y="48" on="1"/>
        <pt x="326" y="48" on="1"/>
        <pt x="259" y="-12" on="0"/>
      </contour>
      <contour>
        <pt x="248" y="120" on="1"/>
        <pt x="279" y="120" on="0"/>
        <pt x="310" y="154" on="1"/>
        <pt x="310" y="222" on="1"/>
        <pt x="202" y="206" on="0"/>
        <pt x="202" y="156" on="1"/>
        <pt x="202" y="120" on="0"/>
      </contour>
      <contour>
        <pt x="349" y="568" on="0"/>
        <pt x="213" y="568" on="0"/>
        <pt x="141" y="628" on="0"/>
        <pt x="141" y="720" on="0"/>
        <pt x="213" y="780" on="0"/>
        <pt x="349" y="780" on="0"/>
        <pt x="421" y="720" on="0"/>
        <pt x="421" y="628" on="0"/>
      </contour>
      <contour>
        <pt x="265" y="630" on="0"/>
        <pt x="297" y="630" on="0"/>
        <pt x="319" y="655" on="0"/>
        <pt x="319" y="693" on="0"/>
        <pt x="297" y="718" on="0"/>
        <pt x="265" y="718" on="0"/>
        <pt x="243" y="693" on="0"/>
        <pt x="243" y="655" on="0"/>
      </contour>
    </TTGlyph>
    <TTGlyph name="asciicircum" xMin="46" yMin="270" xMax="494" yMax="670">
      <contour>
        <pt x="46" y="270" on="1"/>
        <pt x="202" y="670" on="1"/>
        <pt x="338" y="670" on="1"/>
        <pt x="494" y="270" on="1"/>
        <pt x="354" y="270" on="1"/>
        <pt x="316" y="380" on="1"/>
        <pt x="272" y="516" on="1"/>
        <pt x="268" y="516" on="1"/>
        <pt x="224" y="380" on="1"/>
        <pt x="186" y="270" on="1"/>
      </contour>
    </TTGlyph>
    <TTGlyph name="asciitilde" xMin="26" yMin="234" xMax="514" yMax="426">
      <contour>
        <pt x="354" y="234" on="1"/>
        <pt x="318" y="234" on="0"/>
        <pt x="256" y="270" on="0"/>
        <pt x="206" y="306" on="0"/>
        <pt x="184" y="306" on="1"/>
        <pt x="147" y="306" on="0"/>
        <pt x="114" y="250" on="1"/>
        <pt x="26" y="318" on="1"/>
        <pt x="99" y="426" on="0"/>
        <pt x="186" y="426" on="1"/>
        <pt x="222" y="426" on="0"/>
        <pt x="284" y="390" on="0"/>
        <pt x="334" y="354" on="0"/>
        <pt x="356" y="354" on="1"/>
        <pt x="393" y="354" on="0"/>
        <pt x="426" y="410" on="1"/>
        <pt x="514" y="342" on="1"/>
        <pt x="441" y="234" on="0"/>
      </contour>
    </TTGlyph>
    <TTGlyph name="asterisk" xMin="30" yMin="321" xMax="442" yMax="712">
      <contour>
        <pt x="152" y="321" on="1"/>
        <pt x="82" y="372" on="1"/>
        <pt x="142" y="479" on="1"/>
        <pt x="30" y="531" on="1"/>
        <pt x="57" y="614" on="1"/>
        <pt x="178" y="590" on="1"/>
        <pt x="192" y="712" on="1"/>
        <pt x="280" y="712" on="1"/>
        <pt x="294" y="589" on="1"/>
        <pt x="415" y="614" on="1"/>
        <pt x="442" y="531" on="1"/>
        <pt x="329" y="479" on="1"/>
        <pt x="390" y="372" on="1"/>
        <pt x="320" y="321" on="1"/>
        <pt x="236" y="412" on="1"/>
      </contour>
    </TTGlyph>
    <TTGlyph name="at" xMin="48" yMin="-178" xMax="876" yMax="678">
      <contour>
        <pt x="438" y="-178" on="1"/>
        <pt x="360" y="-178" on="0"/>
        <pt x="223" y="-131" on="0"/>
        <pt x="112" y="-40" on="0"/>
        <pt x="48" y="110" on="0"/>
        <pt x="48" y="206" on="1"/>
        <pt x="48" y="344" on="0"/>
        <pt x="174" y="562" on="0"/>
        <pt x="385" y="678" on="0"/>
        <pt x="512" y="678" on="1"/>
        <pt x="677" y="678" on="0"/>
        <pt x="876" y="474" on="0"/>
        <pt x="876" y="312" on="1"/>
        <pt x="876" y="182" on="0"/>
        <pt x="730" y="34" on="0"/>
        <pt x="638" y="34" on="1"/>
        <pt x="593" y="34" on="0"/>
        <pt x="527" y="75" on="0"/>
        <pt x="518" y="110" on="1"/>
        <pt x="516" y="110" on="1"/>
        <pt x="497" y="81" on="0"/>
        <pt x="427" y="44" on="0"/>
        <pt x="396" y="44" on="1"/>
        <pt x="335" y="44" on="0"/>
        <pt x="260" y="129" on="0"/>
        <pt x="260" y="198" on="1"/>
        <pt x="260" y="296" on="0"/>
        <pt x="382" y="448" on="0"/>
        <pt x="466" y="448" on="1"/>
        <pt x="518" y="448" on="0"/>
        <pt x="540" y="398" on="1"/>
        <pt x="542" y="398" on="1"/>
        <pt x="558" y="440" on="1"/>
        <pt x="662" y="440" on="1"/>
        <pt x="614" y="212" on="1"/>
        <pt x="596" y="138" on="0"/>
        <pt x="656" y="138" on="1"/>
        <pt x="703" y="138" on="0"/>
        <pt x="770" y="234" on="0"/>
        <pt x="770" y="308" on="1"/>
        <pt x="770" y="362" on="0"/>
        <pt x="741" y="454" on="0"/>
        <pt x="680" y="531" on="0"/>
        <pt x="571" y="576" on="0"/>
        <pt x="498" y="576" on="1"/>
        <pt x="366" y="576" on="0"/>
        <pt x="162" y="370" on="0"/>
        <pt x="162" y="210" on="1"/>
        <pt x="162" y="70" on="0"/>
        <pt x="330" y="-76" on="0"/>
        <pt x="452" y="-76" on="1"/>
        <pt x="528" y="-76" on="0"/>
        <pt x="600" y="-40" on="1"/>
        <pt x="636" y="-132" on="1"/>
        <pt x="547" y="-178" on="0"/>
      </contour>
      <contour>
        <pt x="434" y="150" on="1"/>
        <pt x="461" y="150" on="0"/>
        <pt x="490" y="190" on="1"/>
        <pt x="512" y="316" on="1"/>
        <pt x="500" y="340" on="0"/>
        <pt x="472" y="340" on="1"/>
        <pt x="436" y="340" on="0"/>
        <pt x="388" y="254" on="0"/>
        <pt x="388" y="208" on="1"/>
        <pt x="388" y="150" on="0"/>
      </contour>
    </TTGlyph>
    <TTGlyph name="atilde" xMin="38" yMin="-12" xMax="482" yMax="746">
      <contour>
        <pt x="188" y="-12" on="1"/>
        <pt x="120" y="-12" on="0"/>
        <pt x="38" y="78" on="0"/>
        <pt x="38" y="142" on="1"/>
        <pt x="38" y="221" on="0"/>
        <pt x="167" y="309" on="0"/>
        <pt x="310" y="324" on="1"/>
        <pt x="304" y="376" on="0"/>
        <pt x="240" y="376" on="1"/>
        <pt x="192" y="376" on="0"/>
        <pt x="114" y="334" on="1"/>
        <pt x="54" y="446" on="1"/>
        <pt x="164" y="512" on="0"/>
        <pt x="274" y="512" on="1"/>
        <pt x="482" y="512" on="0"/>
        <pt x="482" y="278" on="1"/>
        <pt x="482" y="0" on="1"/>
        <pt x="342" y="0" on="1"/>
        <pt x="330" y="48" on="1"/>
        <pt x="326" y="48" on="1"/>
        <pt x="259" y="-12" on="0"/>
      </contour>
      <contour>
        <pt x="248" y="120" on="1"/>
        <pt x="279" y="120" on="0"/>
        <pt x="310" y="154" on="1"/>
        <pt x="310" y="222" on="1"/>
        <pt x="202" y="206" on="0"/>
        <pt x="202" y="156" on="1"/>
        <pt x="202" y="120" on="0"/>
      </contour>
      <contour>
        <pt x="345" y="572" on="1"/>
        <pt x="311" y="572" on="0"/>
        <pt x="230" y="628" on="0"/>
        <pt x="221" y="628" on="1"/>
        <pt x="196" y="628" on="0"/>
        <pt x="191" y="582" on="1"/>
        <pt x="85" y="588" on="1"/>
        <pt x="88" y="746" on="0"/>
        <pt x="217" y="746" on="1"/>
        <pt x="251" y="746" on="0"/>
        <pt x="332" y="690" on="0"/>
        <pt x="341" y="690" on="1"/>
        <pt x="366" y="690" on="0"/>
        <pt x="371" y="736" on="1"/>
        <pt x="477" y="730" on="1"/>
        <pt x="474" y="572" on="0"/>
      </contour>
    </TTGlyph>
    <TTGlyph name="b" xMin="58" yMin="-12" xMax="544" yMax="696">
      <contour>
        <pt x="336" y="-12" on="1"/>
        <pt x="267" y="-12" on="0"/>
        <pt x="210" y="54" on="1"/>
        <pt x="206" y="54" on="1"/>
        <pt x="192" y="0" on="1"/>
        <pt x="58" y="0" on="1"/>
        <pt x="58" y="696" on="1"/>
        <pt x="230" y="696" on="1"/>
        <pt x="230" y="534" on="1"/>
        <pt x="226" y="462" on="1"/>
        <pt x="281" y="512" on="0"/>
        <pt x="349" y="512" on="1"/>
        <pt x="437" y="512" on="0"/>
        <pt x="544" y="374" on="0"/>
        <pt x="544" y="259" on="1"/>
        <pt x="544" y="135" on="0"/>
        <pt x="420" y="-12" on="0"/>
      </contour>
      <contour>
        <pt x="294" y="128" on="1"/>
        <pt x="368" y="128" on="0"/>
        <pt x="368" y="256" on="1"/>
        <pt x="368" y="372" on="0"/>
        <pt x="298" y="372" on="1"/>
        <pt x="260" y="372" on="0"/>
        <pt x="230" y="336" on="1"/>
        <pt x="230" y="152" on="1"/>
        <pt x="257" y="128" on="0"/>
      </contour>
    </TTGlyph>
    <TTGlyph name="backslash" xMin="34" yMin="-160" xMax="320" yMax="710">
      <contour>
        <pt x="210" y="-160" on="1"/>
        <pt x="34" y="710" on="1"/>
        <pt x="144" y="710" on="1"/>
        <pt x="320" y="-160" on="1"/>
      </contour>
    </TTGlyph>
    <TTGlyph name="bar" xMin="84" yMin="-250" xMax="194" yMax="750">
      <contour>
        <pt x="84" y="-250" on="1"/>
        <pt x="84" y="750" on="1"/>
        <pt x="194" y="750" on="1"/>
        <pt x="194" y="-250" on="1"/>
      </contour>
    </TTGlyph>
    <TTGlyph name="braceleft" xMin="30" yMin="-152" xMax="308" yMax="708">
      <contour>
        <pt x="238" y="-152" on="1"/>
        <pt x="168" y="-152" on="0"/>
        <pt x="106" y="-87" on="0"/>
        <pt x="106" y="-6" on="1"/>
        <pt x="106" y="30" on="0"/>
        <pt x="116" y="126" on="0"/>
        <pt x="116" y="156" on="1"/>
        <pt x="116" y="185" on="0"/>
        <pt x="74" y="227" on="0"/>
        <pt x="30" y="228" on="1"/>
        <pt x="30" y="328" on="1"/>
        <pt x="74" y="329" on="0"/>
        <pt x="116" y="371" on="0"/>
        <pt x="116" y="400" on="1"/>
        <pt x="116" y="430" on="0"/>
        <pt x="106" y="526" on="0"/>
        <pt x="106" y="562" on="1"/>
        <pt x="106" y="643" on="0"/>
        <pt x="168" y="708" on="0"/>
        <pt x="238" y="708" on="1"/>
        <pt x="308" y="708" on="1"/>
        <pt x="308" y="618" on="1"/>
        <pt x="292" y="618" on="1"/>
        <pt x="264" y="618" on="0"/>
        <pt x="244" y="594" on="0"/>
        <pt x="244" y="556" on="1"/>
        <pt x="244" y="531" on="0"/>
        <pt x="248" y="430" on="0"/>
        <pt x="248" y="400" on="1"/>
        <pt x="248" y="342" on="0"/>
        <pt x="210" y="289" on="0"/>
        <pt x="168" y="280" on="1"/>
        <pt x="168" y="276" on="1"/>
        <pt x="210" y="267" on="0"/>
        <pt x="248" y="214" on="0"/>
        <pt x="248" y="156" on="1"/>
        <pt x="248" y="126" on="0"/>
        <pt x="244" y="25" on="0"/>
        <pt x="244" y="0" on="1"/>
        <pt x="244" y="-38" on="0"/>
        <pt x="264" y="-62" on="0"/>
        <pt x="292" y="-62" on="1"/>
        <pt x="308" y="-62" on="1"/>
        <pt x="308" y="-152" on="1"/>
      </contour>
    </TTGlyph>
    <TTGlyph name="braceright" xMin="52" yMin="-152" xMax="330" yMax="708">
      <contour>
        <pt x="52" y="-152" on="1"/>
        <pt x="52" y="-62" on="1"/>
        <pt x="68" y="-62" on="1"/>
        <pt x="96" y="-62" on="0"/>
        <pt x="116" y="-38" on="0"/>
        <pt x="116" y="0" on="1"/>
        <pt x="116" y="25" on="0"/>
        <pt x="112" y="126" on="0"/>
        <pt x="112" y="156" on="1"/>
        <pt x="112" y="214" on="0"/>
        <pt x="150" y="267" on="0"/>
        <pt x="192" y="276" on="1"/>
        <pt x="192" y="280" on="1"/>
        <pt x="150" y="289" on="0"/>
        <pt x="112" y="342" on="0"/>
        <pt x="112" y="400" on="1"/>
        <pt x="112" y="430" on="0"/>
        <pt x="116" y="531" on="0"/>
        <pt x="116" y="556" on="1"/>
        <pt x="116" y="594" on="0"/>
        <pt x="96" y="618" on="0"/>
        <pt x="68" y="618" on="1"/>
        <pt x="52" y="618" on="1"/>
        <pt x="52" y="708" on="1"/>
        <pt x="122" y="708" on="1"/>
        <pt x="192" y="708" on="0"/>
        <pt x="254" y="643" on="0"/>
        <pt x="254" y="562" on="1"/>
        <pt x="254" y="526" on="0"/>
        <pt x="244" y="430" on="0"/>
        <pt x="244" y="400" on="1"/>
        <pt x="244" y="371" on="0"/>
        <pt x="286" y="329" on="0"/>
        <pt x="330" y="328" on="1"/>
        <pt x="330" y="228" on="1"/>
        <pt x="286" y="227" on="0"/>
        <pt x="244" y="185" on="0"/>
        <pt x="244" y="156" on="1"/>
        <pt x="244" y="126" on="0"/>
        <pt x="254" y="30" on="0"/>
        <pt x="254" y="-6" on="1"/>
        <pt x="254" y="-87" on="0"/>
        <pt x="192" y="-152" on="0"/>
        <pt x="122" y="-152" on="1"/>
      </contour>
    </TTGlyph>
    <TTGlyph name="bracketleft" xMin="84" yMin="-152" xMax="308" yMax="708">
      <contour>
        <pt x="84" y="-152" on="1"/>
        <pt x="84" y="708" on="1"/>
        <pt x="308" y="708" on="1"/>
        <pt x="308" y="618" on="1"/>
        <pt x="212" y="618" on="1"/>
        <pt x="212" y="-62" on="1"/>
        <pt x="308" y="-62" on="1"/>
        <pt x="308" y="-152" on="1"/>
      </contour>
    </TTGlyph>
    <TTGlyph name="bracketright" xMin="52" yMin="-152" xMax="276" yMax="708">
      <contour>
        <pt x="52" y="-152" on="1"/>
        <pt x="52" y="-62" on="1"/>
        <pt x="148" y="-62" on="1"/>
        <pt x="148" y="618" on="1"/>
        <pt x="52" y="618" on="1"/>
        <pt x="52" y="708" on="1"/>
        <pt x="276" y="708" on="1"/>
        <pt x="276" y="-152" on="1"/>
      </contour>
    </TTGlyph>
    <TTGlyph name="brokenbar" xMin="84" yMin="-250" xMax="194" yMax="750">
      <contour>
        <pt x="84" y="320" on="1"/>
        <pt x="84" y="750" on="1"/>
        <pt x="194" y="750" on="1"/>
        <pt x="194" y="320" on="1"/>
      </contour>
      <contour>
        <pt x="84" y="-250" on="1"/>
        <pt x="84" y="200" on="1"/>
        <pt x="194" y="200" on="1"/>
        <pt x="194" y="-250" on="1"/>
      </contour>
    </TTGlyph>
    <TTGlyph name="bullet" xMin="40" yMin="116" xMax="320" yMax="408">
      <contour>
        <pt x="240" y="116" on="0"/>
        <pt x="120" y="116" on="0"/>
        <pt x="40" y="200" on="0"/>
        <pt x="40" y="324" on="0"/>
        <pt x="120" y="408" on="0"/>
        <pt x="240" y="408" on="0"/>
        <pt x="320" y="324" on="0"/>
        <pt x="320" y="200" on="0"/>
      </contour>
    </TTGlyph>
    <TTGlyph name="c" xMin="32" yMin="-12" xMax="450" yMax="512">
      <contour>
        <pt x="284" y="-12" on="1"/>
        <pt x="174" y="-12" on="0"/>
        <pt x="32" y="129" on="0"/>
        <pt x="32" y="250" on="1"/>
        <pt x="32" y="370" on="0"/>
        <pt x="188" y="512" on="0"/>
        <pt x="300" y="512" on="1"/>
        <pt x="384" y="512" on="0"/>
        <pt x="446" y="460" on="1"/>
        <pt x="366" y="350" on="1"/>
        <pt x="337" y="374" on="0"/>
        <pt x="310" y="374" on="1"/>
        <pt x="262" y="374" on="0"/>
        <pt x="208" y="307" on="0"/>
        <pt x="208" y="250" on="1"/>
        <pt x="208" y="194" on="0"/>
        <pt x="263" y="126" on="0"/>
        <pt x="304" y="126" on="1"/>
        <pt x="341" y="126" on="0"/>
        <pt x="384" y="158" on="1"/>
        <pt x="450" y="46" on="1"/>
        <pt x="384" y="-12" on="0"/>
      </contour>
    </TTGlyph>
    <TTGlyph name="ccedilla" xMin="32" yMin="-244" xMax="450" yMax="512">
      <contour>
        <pt x="284" y="-12" on="1"/>
        <pt x="174" y="-12" on="0"/>
        <pt x="32" y="129" on="0"/>
        <pt x="32" y="250" on="1"/>
        <pt x="32" y="370" on="0"/>
        <pt x="188" y="512" on="0"/>
        <pt x="300" y="512" on="1"/>
        <pt x="384" y="512" on="0"/>
        <pt x="446" y="460" on="1"/>
        <pt x="366" y="350" on="1"/>
        <pt x="337" y="374" on="0"/>
        <pt x="310" y="374" on="1"/>
        <pt x="262" y="374" on="0"/>
        <pt x="208" y="307" on="0"/>
        <pt x="208" y="250" on="1"/>
        <pt x="208" y="194" on="0"/>
        <pt x="263" y="126" on="0"/>
        <pt x="304" y="126" on="1"/>
        <pt x="341" y="126" on="0"/>
        <pt x="384" y="158" on="1"/>
        <pt x="450" y="46" on="1"/>
        <pt x="384" y="-12" on="0"/>
      </contour>
      <contour>
        <pt x="179" y="-244" on="1"/>
        <pt x="167" y="-178" on="1"/>
        <pt x="224" y="-175" on="0"/>
        <pt x="267" y="-157" on="0"/>
        <pt x="267" y="-136" on="1"/>
        <pt x="267" y="-106" on="0"/>
        <pt x="191" y="-96" on="1"/>
        <pt x="241" y="4" on="1"/>
        <pt x="339" y="4" on="1"/>
        <pt x="311" y="-60" on="1"/>
        <pt x="389" y="-78" on="0"/>
        <pt x="389" y="-136" on="1"/>
        <pt x="389" y="-238" on="0"/>
      </contour>
    </TTGlyph>
    <TTGlyph name="cedilla" xMin="160" yMin="-244" xMax="382" yMax="4">
      <contour>
        <pt x="172" y="-244" on="1"/>
        <pt x="160" y="-178" on="1"/>
        <pt x="217" y="-175" on="0"/>
        <pt x="260" y="-157" on="0"/>
        <pt x="260" y="-136" on="1"/>
        <pt x="260" y="-106" on="0"/>
        <pt x="184" y="-96" on="1"/>
        <pt x="234" y="4" on="1"/>
        <pt x="332" y="4" on="1"/>
        <pt x="304" y="-60" on="1"/>
        <pt x="382" y="-78" on="0"/>
        <pt x="382" y="-136" on="1"/>
        <pt x="382" y="-238" on="0"/>
      </contour>
    </TTGlyph>
    <TTGlyph name="cent" xMin="60" yMin="-44" xMax="500" yMax="656">
      <contour>
        <pt x="332" y="44" on="1"/>
        <pt x="207" y="44" on="0"/>
        <pt x="60" y="183" on="0"/>
        <pt x="60" y="306" on="1"/>
        <pt x="60" y="427" on="0"/>
        <pt x="223" y="568" on="0"/>
        <pt x="348" y="568" on="1"/>
        <pt x="438" y="568" on="0"/>
        <pt x="494" y="512" on="1"/>
        <pt x="416" y="406" on="1"/>
        <pt x="387" y="430" on="0"/>
        <pt x="358" y="430" on="1"/>
        <pt x="226" y="430" on="0"/>
        <pt x="226" y="306" on="1"/>
        <pt x="226" y="248" on="0"/>
        <pt x="291" y="182" on="0"/>
        <pt x="352" y="182" on="1"/>
        <pt x="388" y="182" on="0"/>
        <pt x="432" y="214" on="1"/>
        <pt x="500" y="106" on="1"/>
        <pt x="430" y="44" on="0"/>
      </contour>
      <contour>
        <pt x="280" y="-44" on="1"/>
        <pt x="280" y="656" on="1"/>
        <pt x="372" y="656" on="1"/>
        <pt x="372" y="-44" on="1"/>
      </contour>
    </TTGlyph>
    <TTGlyph name="circumflex" xMin="86" yMin="558" xMax="474" yMax="746">
      <contour>
        <pt x="86" y="618" on="1"/>
        <pt x="192" y="746" on="1"/>
        <pt x="368" y="746" on="1"/>
        <pt x="474" y="618" on="1"/>
        <pt x="410" y="558" on="1"/>
        <pt x="282" y="642" on="1"/>
        <pt x="278" y="642" on="1"/>
        <pt x="150" y="558" on="1"/>
      </contour>
    </TTGlyph>
    <TTGlyph name="colon" xMin="60" yMin="-12" xMax="260" yMax="506">
      <contour>
        <pt x="203" y="298" on="0"/>
        <pt x="117" y="298" on="0"/>
        <pt x="60" y="358" on="0"/>
        <pt x="60" y="446" on="0"/>
        <pt x="117" y="506" on="0"/>
        <pt x="203" y="506" on="0"/>
        <pt x="260" y="446" on="0"/>
        <pt x="260" y="358" on="0"/>
      </contour>
      <contour>
        <pt x="203" y="-12" on="0"/>
        <pt x="117" y="-12" on="0"/>
        <pt x="60" y="48" on="0"/>
        <pt x="60" y="136" on="0"/>
        <pt x="117" y="196" on="0"/>
        <pt x="203" y="196" on="0"/>
        <pt x="260" y="136" on="0"/>
        <pt x="260" y="48" on="0"/>
      </contour>
    </TTGlyph>
    <TTGlyph name="comma" xMin="46" yMin="-204" xMax="278" yMax="196">
      <contour>
        <pt x="80" y="-204" on="1"/>
        <pt x="46" y="-114" on="1"/>
        <pt x="105" y="-95" on="0"/>
        <pt x="168" y="-29" on="0"/>
        <pt x="167" y="10" on="1"/>
        <pt x="167" y="118" on="1"/>
        <pt x="218" y="27" on="1"/>
        <pt x="193" y="8" on="0"/>
        <pt x="160" y="8" on="1"/>
        <pt x="119" y="8" on="0"/>
        <pt x="60" y="59" on="0"/>
        <pt x="60" y="102" on="1"/>
        <pt x="60" y="143" on="0"/>
        <pt x="120" y="196" on="0"/>
        <pt x="164" y="196" on="1"/>
        <pt x="219" y="196" on="0"/>
        <pt x="278" y="114" on="0"/>
        <pt x="278" y="40" on="1"/>
        <pt x="278" y="-50" on="0"/>
        <pt x="176" y="-177" on="0"/>
      </contour>
    </TTGlyph>
    <TTGlyph name="copyright" xMin="44" yMin="-8" xMax="708" yMax="656">
      <contour>
        <pt x="515" y="-8" on="0"/>
        <pt x="237" y="-8" on="0"/>
        <pt x="44" y="175" on="0"/>
        <pt x="44" y="477" on="0"/>
        <pt x="237" y="656" on="0"/>
        <pt x="515" y="656" on="0"/>
        <pt x="708" y="476" on="0"/>
        <pt x="708" y="326" on="1"/>
        <pt x="708" y="175" on="0"/>
      </contour>
      <contour>
        <pt x="265" y="60" on="0"/>
        <pt x="487" y="60" on="0"/>
        <pt x="632" y="207" on="0"/>
        <pt x="632" y="326" on="1"/>
        <pt x="632" y="444" on="0"/>
        <pt x="487" y="588" on="0"/>
        <pt x="265" y="588" on="0"/>
        <pt x="120" y="444" on="0"/>
        <pt x="120" y="326" on="1"/>
        <pt x="120" y="207" on="0"/>
      </contour>
      <contour>
        <pt x="390" y="128" on="1"/>
        <pt x="302" y="128" on="0"/>
        <pt x="192" y="235" on="0"/>
        <pt x="192" y="324" on="1"/>
        <pt x="192" y="410" on="0"/>
        <pt x="308" y="518" on="0"/>
        <pt x="388" y="518" on="1"/>
        <pt x="464" y="518" on="0"/>
        <pt x="524" y="458" on="1"/>
        <pt x="461" y="388" on="1"/>
        <pt x="431" y="420" on="0"/>
        <pt x="400" y="420" on="1"/>
        <pt x="358" y="420" on="0"/>
        <pt x="313" y="365" on="0"/>
        <pt x="313" y="324" on="1"/>
        <pt x="313" y="279" on="0"/>
        <pt x="357" y="226" on="0"/>
        <pt x="394" y="226" on="1"/>
        <pt x="426" y="226" on="0"/>
        <pt x="466" y="256" on="1"/>
        <pt x="520" y="178" on="1"/>
        <pt x="457" y="128" on="0"/>
      </contour>
    </TTGlyph>
    <TTGlyph name="currency" xMin="17" yMin="76" xMax="523" yMax="582">
      <contour>
        <pt x="102" y="76" on="1"/>
        <pt x="17" y="161" on="1"/>
        <pt x="77" y="221" on="1"/>
        <pt x="44" y="268" on="0"/>
        <pt x="44" y="330" on="1"/>
        <pt x="44" y="391" on="0"/>
        <pt x="76" y="437" on="1"/>
        <pt x="17" y="497" on="1"/>
        <pt x="102" y="582" on="1"/>
        <pt x="172" y="512" on="1"/>
        <pt x="220" y="532" on="0"/>
        <pt x="320" y="532" on="0"/>
        <pt x="368" y="512" on="1"/>
        <pt x="438" y="582" on="1"/>
        <pt x="523" y="497" on="1"/>
        <pt x="463" y="437" on="1"/>
        <pt x="496" y="391" on="0"/>
        <pt x="496" y="330" on="1"/>
        <pt x="496" y="270" on="0"/>
        <pt x="462" y="221" on="1"/>
        <pt x="523" y="161" on="1"/>
        <pt x="438" y="76" on="1"/>
        <pt x="367" y="147" on="1"/>
        <pt x="322" y="128" on="0"/>
        <pt x="218" y="128" on="0"/>
        <pt x="173" y="147" on="1"/>
      </contour>
      <contour>
        <pt x="238" y="246" on="0"/>
        <pt x="302" y="246" on="0"/>
        <pt x="344" y="292" on="0"/>
        <pt x="344" y="368" on="0"/>
        <pt x="302" y="414" on="0"/>
        <pt x="238" y="414" on="0"/>
        <pt x="196" y="368" on="0"/>
        <pt x="196" y="292" on="0"/>
      </contour>
    </TTGlyph>
    <TTGlyph name="d" xMin="36" yMin="-12" xMax="522" yMax="696">
      <contour>
        <pt x="240" y="-12" on="1"/>
        <pt x="147" y="-12" on="0"/>
        <pt x="36" y="129" on="0"/>
        <pt x="36" y="250" on="1"/>
        <pt x="36" y="368" on="0"/>
        <pt x="159" y="512" on="0"/>
        <pt x="240" y="512" on="1"/>
        <pt x="306" y="512" on="0"/>
        <pt x="356" y="462" on="1"/>
        <pt x="350" y="534" on="1"/>
        <pt x="350" y="696" on="1"/>
        <pt x="522" y="696" on="1"/>
        <pt x="522" y="0" on="1"/>
        <pt x="382" y="0" on="1"/>
        <pt x="370" y="46" on="1"/>
        <pt x="366" y="46" on="1"/>
        <pt x="308" y="-12" on="0"/>
      </contour>
      <contour>
        <pt x="286" y="128" on="1"/>
        <pt x="327" y="128" on="0"/>
        <pt x="350" y="164" on="1"/>
        <pt x="350" y="348" on="1"/>
        <pt x="323" y="372" on="0"/>
        <pt x="282" y="372" on="1"/>
        <pt x="252" y="372" on="0"/>
        <pt x="212" y="314" on="0"/>
        <pt x="212" y="252" on="1"/>
        <pt x="212" y="128" on="0"/>
      </contour>
    </TTGlyph>
    <TTGlyph name="degree" xMin="38" yMin="386" xMax="342" yMax="686">
      <contour>
        <pt x="255" y="386" on="0"/>
        <pt x="125" y="386" on="0"/>
        <pt x="38" y="472" on="0"/>
        <pt x="38" y="600" on="0"/>
        <pt x="125" y="686" on="0"/>
        <pt x="255" y="686" on="0"/>
        <pt x="342" y="600" on="0"/>
        <pt x="342" y="472" on="0"/>
      </contour>
      <contour>
        <pt x="161" y="466" on="0"/>
        <pt x="219" y="466" on="0"/>
        <pt x="254" y="505" on="0"/>
        <pt x="254" y="567" on="0"/>
        <pt x="219" y="606" on="0"/>
        <pt x="161" y="606" on="0"/>
        <pt x="126" y="567" on="0"/>
        <pt x="126" y="505" on="0"/>
      </contour>
    </TTGlyph>
    <TTGlyph name="dieresis" xMin="86" yMin="562" xMax="474" yMax="722">
      <contour>
        <pt x="201" y="562" on="0"/>
        <pt x="131" y="562" on="0"/>
        <pt x="86" y="608" on="0"/>
        <pt x="86" y="676" on="0"/>
        <pt x="131" y="722" on="0"/>
        <pt x="201" y="722" on="0"/>
        <pt x="246" y="676" on="0"/>
        <pt x="246" y="608" on="0"/>
      </contour>
      <contour>
        <pt x="429" y="562" on="0"/>
        <pt x="359" y="562" on="0"/>
        <pt x="314" y="608" on="0"/>
        <pt x="314" y="676" on="0"/>
        <pt x="359" y="722" on="0"/>
        <pt x="429" y="722" on="0"/>
        <pt x="474" y="676" on="0"/>
        <pt x="474" y="608" on="0"/>
      </contour>
    </TTGlyph>
    <TTGlyph name="divide" xMin="34" yMin="64" xMax="506" yMax="596">
      <contour>
        <pt x="34" y="270" on="1"/>
        <pt x="34" y="390" on="1"/>
        <pt x="506" y="390" on="1"/>
        <pt x="506" y="270" on="1"/>
      </contour>
      <contour>
        <pt x="309" y="64" on="0"/>
        <pt x="231" y="64" on="0"/>
        <pt x="178" y="113" on="0"/>
        <pt x="178" y="187" on="0"/>
        <pt x="231" y="236" on="0"/>
        <pt x="309" y="236" on="0"/>
        <pt x="362" y="187" on="0"/>
        <pt x="362" y="113" on="0"/>
      </contour>
      <contour>
        <pt x="309" y="424" on="0"/>
        <pt x="231" y="424" on="0"/>
        <pt x="178" y="473" on="0"/>
        <pt x="178" y="547" on="0"/>
        <pt x="231" y="596" on="0"/>
        <pt x="309" y="596" on="0"/>
        <pt x="362" y="547" on="0"/>
        <pt x="362" y="473" on="0"/>
      </contour>
    </TTGlyph>
    <TTGlyph name="dollar" xMin="34" yMin="-110" xMax="480" yMax="744">
      <contour>
        <pt x="246" y="-12" on="1"/>
        <pt x="196" y="-12" on="0"/>
        <pt x="76" y="28" on="0"/>
        <pt x="34" y="66" on="1"/>
        <pt x="108" y="182" on="1"/>
        <pt x="184" y="126" on="0"/>
        <pt x="246" y="126" on="1"/>
        <pt x="283" y="126" on="0"/>
        <pt x="316" y="153" on="0"/>
        <pt x="316" y="182" on="1"/>
        <pt x="316" y="204" on="0"/>
        <pt x="263" y="242" on="0"/>
        <pt x="187" y="279" on="0"/>
        <pt x="111" y="324" on="0"/>
        <pt x="58" y="399" on="0"/>
        <pt x="58" y="448" on="1"/>
        <pt x="58" y="540" on="0"/>
        <pt x="175" y="646" on="0"/>
        <pt x="276" y="646" on="1"/>
        <pt x="392" y="646" on="0"/>
        <pt x="475" y="558" on="1"/>
        <pt x="390" y="460" on="1"/>
        <pt x="336" y="508" on="0"/>
        <pt x="286" y="508" on="1"/>
        <pt x="252" y="508" on="0"/>
        <pt x="222" y="485" on="0"/>
        <pt x="222" y="456" on="1"/>
        <pt x="222" y="439" on="0"/>
        <pt x="260" y="407" on="0"/>
        <pt x="318" y="383" on="0"/>
        <pt x="384" y="346" on="0"/>
        <pt x="442" y="306" on="0"/>
        <pt x="480" y="237" on="0"/>
        <pt x="480" y="194" on="1"/>
        <pt x="480" y="102" on="0"/>
        <pt x="360" y="-12" on="0"/>
      </contour>
      <contour>
        <pt x="212" y="-110" on="1"/>
        <pt x="212" y="60" on="1"/>
        <pt x="324" y="60" on="1"/>
        <pt x="324" y="-110" on="1"/>
      </contour>
      <contour>
        <pt x="212" y="594" on="1"/>
        <pt x="212" y="744" on="1"/>
        <pt x="324" y="744" on="1"/>
        <pt x="324" y="594" on="1"/>
      </contour>
    </TTGlyph>
    <TTGlyph name="dotlessi" xMin="58" yMin="0" xMax="230" yMax="500">
      <contour>
        <pt x="58" y="0" on="1"/>
        <pt x="58" y="500" on="1"/>
        <pt x="230" y="500" on="1"/>
        <pt x="230" y="0" on="1"/>
      </contour>
    </TTGlyph>
    <TTGlyph name="e" xMin="32" yMin="-12" xMax="490" yMax="512">
      <contour>
        <pt x="290" y="-12" on="1"/>
        <pt x="177" y="-12" on="0"/>
        <pt x="32" y="129" on="0"/>
        <pt x="32" y="250" on="1"/>
        <pt x="32" y="367" on="0"/>
        <pt x="176" y="512" on="0"/>
        <pt x="272" y="512" on="1"/>
        <pt x="378" y="512" on="0"/>
        <pt x="490" y="376" on="0"/>
        <pt x="490" y="270" on="1"/>
        <pt x="490" y="226" on="0"/>
        <pt x="483" y="198" on="1"/>
        <pt x="198" y="198" on="1"/>
        <pt x="219" y="118" on="0"/>
        <pt x="314" y="118" on="1"/>
        <pt x="362" y="118" on="0"/>
        <pt x="416" y="148" on="1"/>
        <pt x="472" y="46" on="1"/>
        <pt x="390" y="-12" on="0"/>
      </contour>
      <contour>
        <pt x="196" y="310" on="1"/>
        <pt x="344" y="310" on="1"/>
        <pt x="344" y="382" on="0"/>
        <pt x="276" y="382" on="1"/>
        <pt x="246" y="382" on="0"/>
        <pt x="203" y="346" on="0"/>
      </contour>
    </TTGlyph>
    <TTGlyph name="eacute" xMin="32" yMin="-12" xMax="490" yMax="844">
      <contour>
        <pt x="290" y="-12" on="1"/>
        <pt x="177" y="-12" on="0"/>
        <pt x="32" y="129" on="0"/>
        <pt x="32" y="250" on="1"/>
        <pt x="32" y="367" on="0"/>
        <pt x="176" y="512" on="0"/>
        <pt x="272" y="512" on="1"/>
        <pt x="378" y="512" on="0"/>
        <pt x="490" y="376" on="0"/>
        <pt x="490" y="270" on="1"/>
        <pt x="490" y="226" on="0"/>
        <pt x="483" y="198" on="1"/>
        <pt x="198" y="198" on="1"/>
        <pt x="219" y="118" on="0"/>
        <pt x="314" y="118" on="1"/>
        <pt x="362" y="118" on="0"/>
        <pt x="416" y="148" on="1"/>
        <pt x="472" y="46" on="1"/>
        <pt x="390" y="-12" on="0"/>
      </contour>
      <contour>
        <pt x="196" y="310" on="1"/>
        <pt x="344" y="310" on="1"/>
        <pt x="344" y="382" on="0"/>
        <pt x="276" y="382" on="1"/>
        <pt x="246" y="382" on="0"/>
        <pt x="203" y="346" on="0"/>
      </contour>
      <contour>
        <pt x="292" y="572" on="1"/>
        <pt x="208" y="656" on="1"/>
        <pt x="366" y="844" on="1"/>
        <pt x="482" y="730" on="1"/>
      </contour>
    </TTGlyph>
    <TTGlyph name="ecircumflex" xMin="32" yMin="-12" xMax="490" yMax="746">
      <contour>
        <pt x="290" y="-12" on="1"/>
        <pt x="177" y="-12" on="0"/>
        <pt x="32" y="129" on="0"/>
        <pt x="32" y="250" on="1"/>
        <pt x="32" y="367" on="0"/>
        <pt x="176" y="512" on="0"/>
        <pt x="272" y="512" on="1"/>
        <pt x="378" y="512" on="0"/>
        <pt x="490" y="376" on="0"/>
        <pt x="490" y="270" on="1"/>
        <pt x="490" y="226" on="0"/>
        <pt x="483" y="198" on="1"/>
        <pt x="198" y="198" on="1"/>
        <pt x="219" y="118" on="0"/>
        <pt x="314" y="118" on="1"/>
        <pt x="362" y="118" on="0"/>
        <pt x="416" y="148" on="1"/>
        <pt x="472" y="46" on="1"/>
        <pt x="390" y="-12" on="0"/>
      </contour>
      <contour>
        <pt x="196" y="310" on="1"/>
        <pt x="344" y="310" on="1"/>
        <pt x="344" y="382" on="0"/>
        <pt x="276" y="382" on="1"/>
        <pt x="246" y="382" on="0"/>
        <pt x="203" y="346" on="0"/>
      </contour>
      <contour>
        <pt x="78" y="618" on="1"/>
        <pt x="184" y="746" on="1"/>
        <pt x="360" y="746" on="1"/>
        <pt x="466" y="618" on="1"/>
        <pt x="402" y="558" on="1"/>
        <pt x="274" y="642" on="1"/>
        <pt x="270" y="642" on="1"/>
        <pt x="142" y="558" on="1"/>
      </contour>
    </TTGlyph>
    <TTGlyph name="edieresis" xMin="32" yMin="-12" xMax="490" yMax="722">
      <contour>
        <pt x="290" y="-12" on="1"/>
        <pt x="177" y="-12" on="0"/>
        <pt x="32" y="129" on="0"/>
        <pt x="32" y="250" on="1"/>
        <pt x="32" y="367" on="0"/>
        <pt x="176" y="512" on="0"/>
        <pt x="272" y="512" on="1"/>
        <pt x="378" y="512" on="0"/>
        <pt x="490" y="376" on="0"/>
        <pt x="490" y="270" on="1"/>
        <pt x="490" y="226" on="0"/>
        <pt x="483" y="198" on="1"/>
        <pt x="198" y="198" on="1"/>
        <pt x="219" y="118" on="0"/>
        <pt x="314" y="118" on="1"/>
        <pt x="362" y="118" on="0"/>
        <pt x="416" y="148" on="1"/>
        <pt x="472" y="46" on="1"/>
        <pt x="390" y="-12" on="0"/>
      </contour>
      <contour>
        <pt x="196" y="310" on="1"/>
        <pt x="344" y="310" on="1"/>
        <pt x="344" y="382" on="0"/>
        <pt x="276" y="382" on="1"/>
        <pt x="246" y="382" on="0"/>
        <pt x="203" y="346" on="0"/>
      </contour>
      <contour>
        <pt x="193" y="562" on="0"/>
        <pt x="123" y="562" on="0"/>
        <pt x="78" y="608" on="0"/>
        <pt x="78" y="676" on="0"/>
        <pt x="123" y="722" on="0"/>
        <pt x="193" y="722" on="0"/>
        <pt x="238" y="676" on="0"/>
        <pt x="238" y="608" on="0"/>
      </contour>
      <contour>
        <pt x="421" y="562" on="0"/>
        <pt x="351" y="562" on="0"/>
        <pt x="306" y="608" on="0"/>
        <pt x="306" y="676" on="0"/>
        <pt x="351" y="722" on="0"/>
        <pt x="421" y="722" on="0"/>
        <pt x="466" y="676" on="0"/>
        <pt x="466" y="608" on="0"/>
      </contour>
    </TTGlyph>
    <TTGlyph name="egrave" xMin="32" yMin="-12" xMax="490" yMax="844">
      <contour>
        <pt x="290" y="-12" on="1"/>
        <pt x="177" y="-12" on="0"/>
        <pt x="32" y="129" on="0"/>
        <pt x="32" y="250" on="1"/>
        <pt x="32" y="367" on="0"/>
        <pt x="176" y="512" on="0"/>
        <pt x="272" y="512" on="1"/>
        <pt x="378" y="512" on="0"/>
        <pt x="490" y="376" on="0"/>
        <pt x="490" y="270" on="1"/>
        <pt x="490" y="226" on="0"/>
        <pt x="483" y="198" on="1"/>
        <pt x="198" y="198" on="1"/>
        <pt x="219" y="118" on="0"/>
        <pt x="314" y="118" on="1"/>
        <pt x="362" y="118" on="0"/>
        <pt x="416" y="148" on="1"/>
        <pt x="472" y="46" on="1"/>
        <pt x="390" y="-12" on="0"/>
      </contour>
      <contour>
        <pt x="196" y="310" on="1"/>
        <pt x="344" y="310" on="1"/>
        <pt x="344" y="382" on="0"/>
        <pt x="276" y="382" on="1"/>
        <pt x="246" y="382" on="0"/>
        <pt x="203" y="346" on="0"/>
      </contour>
      <contour>
        <pt x="252" y="572" on="1"/>
        <pt x="62" y="730" on="1"/>
        <pt x="178" y="844" on="1"/>
        <pt x="336" y="656" on="1"/>
      </contour>
    </TTGlyph>
    <TTGlyph name="eight" xMin="42" yMin="-12" xMax="500" yMax="646">
      <contour>
        <pt x="268" y="-12" on="1"/>
        <pt x="170" y="-12" on="0"/>
        <pt x="42" y="85" on="0"/>
        <pt x="42" y="162" on="1"/>
        <pt x="42" y="257" on="0"/>
        <pt x="146" y="312" on="1"/>
        <pt x="146" y="316" on="1"/>
        <pt x="62" y="380" on="0"/>
        <pt x="62" y="466" on="1"/>
        <pt x="62" y="549" on="0"/>
        <pt x="180" y="646" on="0"/>
        <pt x="274" y="646" on="1"/>
        <pt x="363" y="646" on="0"/>
        <pt x="472" y="550" on="0"/>
        <pt x="472" y="470" on="1"/>
        <pt x="472" y="389" on="0"/>
        <pt x="391" y="337" on="1"/>
        <pt x="391" y="333" on="1"/>
        <pt x="500" y="275" on="0"/>
        <pt x="500" y="166" on="1"/>
        <pt x="500" y="89" on="0"/>
        <pt x="371" y="-12" on="0"/>
      </contour>
      <contour>
        <pt x="306" y="378" on="1"/>
        <pt x="334" y="418" on="0"/>
        <pt x="334" y="458" on="1"/>
        <pt x="334" y="491" on="0"/>
        <pt x="300" y="528" on="0"/>
        <pt x="270" y="528" on="1"/>
        <pt x="245" y="528" on="0"/>
        <pt x="212" y="497" on="0"/>
        <pt x="212" y="466" on="1"/>
        <pt x="212" y="436" on="0"/>
        <pt x="257" y="398" on="0"/>
      </contour>
      <contour>
        <pt x="272" y="106" on="1"/>
        <pt x="341" y="106" on="0"/>
        <pt x="341" y="172" on="1"/>
        <pt x="341" y="186" on="0"/>
        <pt x="329" y="208" on="0"/>
        <pt x="314" y="224" on="0"/>
        <pt x="276" y="244" on="0"/>
        <pt x="252" y="255" on="0"/>
        <pt x="222" y="268" on="1"/>
        <pt x="189" y="230" on="0"/>
        <pt x="189" y="182" on="1"/>
        <pt x="189" y="146" on="0"/>
        <pt x="237" y="106" on="0"/>
      </contour>
    </TTGlyph>
    <TTGlyph name="ellipsis" xMin="70" yMin="-12" xMax="930" yMax="196">
      <contour>
        <pt x="213" y="-12" on="0"/>
        <pt x="127" y="-12" on="0"/>
        <pt x="70" y="48" on="0"/>
        <pt x="70" y="136" on="0"/>
        <pt x="127" y="196" on="0"/>
        <pt x="213" y="196" on="0"/>
        <pt x="270" y="136" on="0"/>
        <pt x="270" y="48" on="0"/>
      </contour>
      <contour>
        <pt x="543" y="-12" on="0"/>
        <pt x="457" y="-12" on="0"/>
        <pt x="400" y="48" on="0"/>
        <pt x="400" y="136" on="0"/>
        <pt x="457" y="196" on="0"/>
        <pt x="543" y="196" on="0"/>
        <pt x="600" y="136" on="0"/>
        <pt x="600" y="48" on="0"/>
      </contour>
      <contour>
        <pt x="873" y="-12" on="0"/>
        <pt x="787" y="-12" on="0"/>
        <pt x="730" y="48" on="0"/>
        <pt x="730" y="136" on="0"/>
        <pt x="787" y="196" on="0"/>
        <pt x="873" y="196" on="0"/>
        <pt x="930" y="136" on="0"/>
        <pt x="930" y="48" on="0"/>
      </contour>
    </TTGlyph>
    <TTGlyph name="emdash" xMin="44" yMin="200" xMax="756" yMax="308">
      <contour>
        <pt x="44" y="200" on="1"/>
        <pt x="44" y="308" on="1"/>
        <pt x="756" y="308" on="1"/>
        <pt x="756" y="200" on="1"/>
      </contour>
    </TTGlyph>
    <TTGlyph name="endash" xMin="44" yMin="200" xMax="436" yMax="308">
      <contour>
        <pt x="44" y="200" on="1"/>
        <pt x="44" y="308" on="1"/>
        <pt x="436" y="308" on="1"/>
        <pt x="436" y="200" on="1"/>
      </contour>
    </TTGlyph>
    <TTGlyph name="equal" xMin="34" yMin="150" xMax="506" yMax="510">
      <contour>
        <pt x="34" y="390" on="1"/>
        <pt x="34" y="510" on="1"/>
        <pt x="506" y="510" on="1"/>
        <pt x="506" y="390" on="1"/>
      </contour>
      <contour>
        <pt x="34" y="150" on="1"/>
        <pt x="34" y="270" on="1"/>
        <pt x="506" y="270" on="1"/>
        <pt x="506" y="150" on="1"/>
      </contour>
    </TTGlyph>
</ttFont>
